<svg xmlns="http://www.w3.org/2000/svg" xmlns:xlink="http://www.w3.org/1999/xlink" width="932" zoomAndPan="magnify" viewBox="0 0 699 243.75" height="325" preserveAspectRatio="xMidYMid meet" version="1.0"><defs><g/><clipPath id="7c92a5ad16"><path d="M 0.359375 61 L 145 61 L 145 224.421875 L 0.359375 224.421875 Z M 0.359375 61 " clip-rule="nonzero"/></clipPath><clipPath id="24b638754b"><path d="M 85 59.589844 L 184.667969 59.589844 L 184.667969 224 L 85 224 Z M 85 59.589844 " clip-rule="nonzero"/></clipPath></defs><path fill="#ffffff" d="M 50.25 116.890625 L 29.585938 116.890625 C 28.914062 116.996094 28.230469 116.832031 27.683594 116.433594 C 27.132812 116.035156 26.761719 115.433594 26.65625 114.765625 C 24.675781 108.683594 22.625 102.605469 20.5 96.597656 C 19.695312 94.328125 20.5 93.667969 22.550781 93.886719 C 24.605469 94.109375 25.777344 93.886719 27.316406 93.886719 L 63.949219 93.886719 C 76.40625 93.886719 88.9375 93.886719 101.390625 93.886719 C 102.691406 93.875 103.972656 94.207031 105.097656 94.851562 C 106.226562 95.496094 107.164062 96.429688 107.8125 97.554688 C 108.460938 98.683594 108.800781 99.960938 108.792969 101.257812 C 108.785156 102.558594 108.429688 103.832031 107.765625 104.949219 C 101.390625 115.570312 94.285156 125.753906 86.957031 136.8125 C 84.464844 130.515625 82.269531 125.167969 80.144531 119.820312 C 79.628906 118.574219 79.410156 117.183594 77.945312 116.597656 Z M 50.25 116.890625 " fill-opacity="1" fill-rule="nonzero"/><g clip-path="url(#7c92a5ad16)"><path fill="#ffffff" d="M 7.605469 82.238281 C 7.746094 82.886719 8.125 83.457031 8.667969 83.839844 C 9.210938 84.21875 9.878906 84.378906 10.535156 84.292969 L 112.015625 84.292969 C 119.34375 84.292969 121.761719 87.148438 121.835938 94.253906 C 121.835938 98.0625 121.835938 101.578125 121.835938 105.753906 C 122.054688 108.703125 121.167969 111.628906 119.34375 113.957031 C 115.386719 119.304688 112.015625 124.871094 107.914062 130.292969 C 98.902344 142.234375 90.621094 154.613281 82.046875 166.917969 C 78.3125 172.121094 74.722656 177.246094 70.910156 182.449219 C 61.167969 196.21875 51.421875 209.917969 41.601562 223.6875 L 41.015625 224.421875 L 69.300781 224.421875 C 74.429688 216.363281 79.703125 208.378906 84.90625 200.320312 C 93.625 187.941406 101.90625 175.414062 109.964844 162.597656 C 109.964844 162.597656 110.550781 162.15625 110.699219 161.863281 C 121.445312 145.699219 132.191406 129.511719 142.9375 113.296875 C 143.792969 112.074219 144.253906 110.617188 144.253906 109.125 C 144.253906 95.277344 144.253906 81.359375 144.253906 67.515625 C 142.675781 64.648438 140.050781 62.496094 136.929688 61.511719 L 2.550781 61.511719 C 0.644531 61.511719 0.132812 62.097656 0.789062 63.925781 C 3.5 69.496094 5.480469 75.648438 7.605469 82.238281 Z M 7.605469 82.238281 " fill-opacity="1" fill-rule="nonzero"/></g><g clip-path="url(#24b638754b)"><path fill="#ffffff" d="M 184.335938 69.640625 C 183.917969 67.355469 182.796875 65.261719 181.128906 63.644531 C 179.460938 62.027344 177.328125 60.976562 175.03125 60.632812 C 170.445312 59.242188 165.550781 59.242188 160.960938 60.632812 L 160.960938 73.011719 C 160.960938 82.167969 160.960938 91.324219 160.960938 100.480469 C 161.292969 103.414062 161.03125 106.386719 160.1875 109.21875 C 159.34375 112.050781 157.9375 114.683594 156.054688 116.960938 C 154.492188 119.023438 153.097656 121.203125 151.878906 123.480469 C 149.417969 126.699219 147.214844 130.101562 145.28125 133.664062 C 136.710938 145.675781 128.648438 157.910156 120.882812 170.289062 C 120.136719 171.089844 119.453125 171.949219 118.832031 172.851562 C 107.597656 189.699219 96.410156 206.597656 85.273438 223.542969 L 112.015625 223.542969 C 115.535156 218.046875 119.34375 212.480469 122.496094 206.914062 C 125.644531 201.347656 130.554688 194.679688 134.511719 188.527344 C 141.179688 177.980469 147.699219 167.429688 154.367188 156.957031 C 164.136719 141.621094 173.90625 126.335938 183.675781 111.101562 C 184.242188 110.125 184.523438 109.007812 184.484375 107.878906 Z M 184.335938 69.640625 " fill-opacity="1" fill-rule="nonzero"/></g><g fill="#ffffff" fill-opacity="1"><g transform="translate(211.189241, 157.82484)"><g><path d="M 53.46875 -13.28125 L 25.390625 -13.28125 L 20.890625 0 L 1.71875 0 L 28.9375 -75.21875 L 50.15625 -75.21875 L 77.359375 0 L 57.96875 0 Z M 48.75 -27.4375 L 39.4375 -54.96875 L 30.21875 -27.4375 Z M 48.75 -27.4375 "/></g></g></g><g fill="#ffffff" fill-opacity="1"><g transform="translate(288.123936, 157.82484)"><g><path d="M 56.578125 -51.4375 C 55.222656 -53.9375 53.273438 -55.847656 50.734375 -57.171875 C 48.203125 -58.492188 45.222656 -59.15625 41.796875 -59.15625 C 35.859375 -59.15625 31.101562 -57.207031 27.53125 -53.3125 C 23.96875 -49.414062 22.1875 -44.21875 22.1875 -37.71875 C 22.1875 -30.789062 24.0625 -25.378906 27.8125 -21.484375 C 31.5625 -17.585938 36.722656 -15.640625 43.296875 -15.640625 C 47.796875 -15.640625 51.597656 -16.78125 54.703125 -19.0625 C 57.804688 -21.351562 60.070312 -24.644531 61.5 -28.9375 L 38.25 -28.9375 L 38.25 -42.4375 L 78.109375 -42.4375 L 78.109375 -25.390625 C 76.753906 -20.816406 74.453125 -16.566406 71.203125 -12.640625 C 67.953125 -8.710938 63.828125 -5.535156 58.828125 -3.109375 C 53.828125 -0.679688 48.179688 0.53125 41.890625 0.53125 C 34.460938 0.53125 27.835938 -1.09375 22.015625 -4.34375 C 16.191406 -7.59375 11.65625 -12.109375 8.40625 -17.890625 C 5.15625 -23.679688 3.53125 -30.289062 3.53125 -37.71875 C 3.53125 -45.144531 5.15625 -51.769531 8.40625 -57.59375 C 11.65625 -63.414062 16.171875 -67.953125 21.953125 -71.203125 C 27.742188 -74.453125 34.359375 -76.078125 41.796875 -76.078125 C 50.796875 -76.078125 58.382812 -73.898438 64.5625 -69.546875 C 70.738281 -65.191406 74.828125 -59.15625 76.828125 -51.4375 Z M 56.578125 -51.4375 "/></g></g></g><g fill="#ffffff" fill-opacity="1"><g transform="translate(367.737428, 157.82484)"><g><path d="M 24.96875 -14.140625 L 48.96875 -14.140625 L 48.96875 0 L 6.640625 0 L 6.640625 -75.21875 L 24.96875 -75.21875 Z M 24.96875 -14.140625 "/></g></g></g><g fill="#ffffff" fill-opacity="1"><g transform="translate(416.812642, 157.82484)"><g><path d="M 53.46875 -13.28125 L 25.390625 -13.28125 L 20.890625 0 L 1.71875 0 L 28.9375 -75.21875 L 50.15625 -75.21875 L 77.359375 0 L 57.96875 0 Z M 48.75 -27.4375 L 39.4375 -54.96875 L 30.21875 -27.4375 Z M 48.75 -27.4375 "/></g></g></g><g fill="#ffffff" fill-opacity="1"><g transform="translate(493.747341, 157.82484)"><g><path d="M 71.15625 -75.21875 L 45.109375 -24.859375 L 45.109375 0 L 26.796875 0 L 26.796875 -24.859375 L 0.75 -75.21875 L 21.53125 -75.21875 L 36.109375 -43.71875 L 50.578125 -75.21875 Z M 71.15625 -75.21875 "/></g></g></g><g fill="#ffffff" fill-opacity="1"><g transform="translate(563.610026, 157.82484)"><g><path d="M 53.46875 -13.28125 L 25.390625 -13.28125 L 20.890625 0 L 1.71875 0 L 28.9375 -75.21875 L 50.15625 -75.21875 L 77.359375 0 L 57.96875 0 Z M 48.75 -27.4375 L 39.4375 -54.96875 L 30.21875 -27.4375 Z M 48.75 -27.4375 "/></g></g></g><g fill="#ffffff" fill-opacity="1"><g transform="translate(210.700981, 205.003246)"><g><path d="M 8.109375 -33.625 L 8.109375 0 L 3.71875 0 L 3.71875 -33.625 Z M 8.109375 -33.625 "/></g></g></g><g fill="#ffffff" fill-opacity="1"><g transform="translate(223.627208, 205.003246)"><g><path d="M 16.59375 -26.921875 C 19.8125 -26.921875 22.414062 -25.945312 24.40625 -24 C 26.394531 -22.050781 27.390625 -19.242188 27.390625 -15.578125 L 27.390625 0 L 23.0625 0 L 23.0625 -14.953125 C 23.0625 -17.585938 22.398438 -19.601562 21.078125 -21 C 19.753906 -22.40625 17.953125 -23.109375 15.671875 -23.109375 C 13.359375 -23.109375 11.519531 -22.382812 10.15625 -20.9375 C 8.789062 -19.488281 8.109375 -17.378906 8.109375 -14.609375 L 8.109375 0 L 3.71875 0 L 3.71875 -26.4375 L 8.109375 -26.4375 L 8.109375 -22.671875 C 8.972656 -24.023438 10.148438 -25.070312 11.640625 -25.8125 C 13.140625 -26.550781 14.789062 -26.921875 16.59375 -26.921875 Z M 16.59375 -26.921875 "/></g></g></g><g fill="#ffffff" fill-opacity="1"><g transform="translate(255.556737, 205.003246)"><g><path d="M 16.59375 -26.921875 C 19.8125 -26.921875 22.414062 -25.945312 24.40625 -24 C 26.394531 -22.050781 27.390625 -19.242188 27.390625 -15.578125 L 27.390625 0 L 23.0625 0 L 23.0625 -14.953125 C 23.0625 -17.585938 22.398438 -19.601562 21.078125 -21 C 19.753906 -22.40625 17.953125 -23.109375 15.671875 -23.109375 C 13.359375 -23.109375 11.519531 -22.382812 10.15625 -20.9375 C 8.789062 -19.488281 8.109375 -17.378906 8.109375 -14.609375 L 8.109375 0 L 3.71875 0 L 3.71875 -26.4375 L 8.109375 -26.4375 L 8.109375 -22.671875 C 8.972656 -24.023438 10.148438 -25.070312 11.640625 -25.8125 C 13.140625 -26.550781 14.789062 -26.921875 16.59375 -26.921875 Z M 16.59375 -26.921875 "/></g></g></g><g fill="#ffffff" fill-opacity="1"><g transform="translate(287.486266, 205.003246)"><g><path d="M 15.234375 0.4375 C 12.765625 0.4375 10.523438 -0.125 8.515625 -1.25 C 6.503906 -2.375 4.925781 -3.972656 3.78125 -6.046875 C 2.644531 -8.128906 2.078125 -10.535156 2.078125 -13.265625 C 2.078125 -15.960938 2.660156 -18.347656 3.828125 -20.421875 C 5.003906 -22.492188 6.601562 -24.082031 8.625 -25.1875 C 10.65625 -26.300781 12.925781 -26.859375 15.4375 -26.859375 C 17.945312 -26.859375 20.210938 -26.300781 22.234375 -25.1875 C 24.265625 -24.082031 25.863281 -22.5 27.03125 -20.4375 C 28.207031 -18.382812 28.796875 -15.992188 28.796875 -13.265625 C 28.796875 -10.535156 28.191406 -8.128906 26.984375 -6.046875 C 25.773438 -3.972656 24.140625 -2.375 22.078125 -1.25 C 20.023438 -0.125 17.742188 0.4375 15.234375 0.4375 Z M 15.234375 -3.421875 C 16.816406 -3.421875 18.296875 -3.789062 19.671875 -4.53125 C 21.054688 -5.269531 22.175781 -6.378906 23.03125 -7.859375 C 23.882812 -9.335938 24.3125 -11.140625 24.3125 -13.265625 C 24.3125 -15.390625 23.890625 -17.191406 23.046875 -18.671875 C 22.210938 -20.148438 21.117188 -21.25 19.765625 -21.96875 C 18.421875 -22.695312 16.960938 -23.0625 15.390625 -23.0625 C 13.773438 -23.0625 12.300781 -22.695312 10.96875 -21.96875 C 9.632812 -21.25 8.566406 -20.148438 7.765625 -18.671875 C 6.960938 -17.191406 6.5625 -15.390625 6.5625 -13.265625 C 6.5625 -11.109375 6.953125 -9.289062 7.734375 -7.8125 C 8.523438 -6.332031 9.578125 -5.226562 10.890625 -4.5 C 12.210938 -3.78125 13.660156 -3.421875 15.234375 -3.421875 Z M 15.234375 -3.421875 "/></g></g></g><g fill="#ffffff" fill-opacity="1"><g transform="translate(319.415794, 205.003246)"><g><path d="M 13.546875 -4.046875 L 21.75 -26.4375 L 26.4375 -26.4375 L 16.0625 0 L 10.953125 0 L 0.578125 -26.4375 L 5.3125 -26.4375 Z M 13.546875 -4.046875 "/></g></g></g><g fill="#ffffff" fill-opacity="1"><g transform="translate(347.535012, 205.003246)"><g><path d="M 2.078125 -13.3125 C 2.078125 -16.007812 2.625 -18.378906 3.71875 -20.421875 C 4.8125 -22.460938 6.3125 -24.046875 8.21875 -25.171875 C 10.132812 -26.296875 12.265625 -26.859375 14.609375 -26.859375 C 16.929688 -26.859375 18.941406 -26.359375 20.640625 -25.359375 C 22.347656 -24.367188 23.617188 -23.117188 24.453125 -21.609375 L 24.453125 -26.4375 L 28.890625 -26.4375 L 28.890625 0 L 24.453125 0 L 24.453125 -4.921875 C 23.585938 -3.378906 22.289062 -2.097656 20.5625 -1.078125 C 18.84375 -0.0664062 16.84375 0.4375 14.5625 0.4375 C 12.21875 0.4375 10.097656 -0.140625 8.203125 -1.296875 C 6.304688 -2.453125 4.8125 -4.078125 3.71875 -6.171875 C 2.625 -8.265625 2.078125 -10.644531 2.078125 -13.3125 Z M 24.453125 -13.265625 C 24.453125 -15.253906 24.050781 -16.988281 23.25 -18.46875 C 22.445312 -19.945312 21.359375 -21.082031 19.984375 -21.875 C 18.617188 -22.664062 17.117188 -23.0625 15.484375 -23.0625 C 13.835938 -23.0625 12.335938 -22.671875 10.984375 -21.890625 C 9.640625 -21.117188 8.566406 -19.992188 7.765625 -18.515625 C 6.960938 -17.035156 6.5625 -15.300781 6.5625 -13.3125 C 6.5625 -11.289062 6.960938 -9.53125 7.765625 -8.03125 C 8.566406 -6.53125 9.640625 -5.382812 10.984375 -4.59375 C 12.335938 -3.8125 13.835938 -3.421875 15.484375 -3.421875 C 17.117188 -3.421875 18.617188 -3.8125 19.984375 -4.59375 C 21.359375 -5.382812 22.445312 -6.53125 23.25 -8.03125 C 24.050781 -9.53125 24.453125 -11.273438 24.453125 -13.265625 Z M 24.453125 -13.265625 "/></g></g></g><g fill="#ffffff" fill-opacity="1"><g transform="translate(381.200883, 205.003246)"><g><path d="M 9.0625 -22.8125 L 9.0625 -7.234375 C 9.0625 -5.953125 9.332031 -5.046875 9.875 -4.515625 C 10.425781 -3.984375 11.378906 -3.71875 12.734375 -3.71875 L 15.96875 -3.71875 L 15.96875 0 L 12.015625 0 C 9.566406 0 7.726562 -0.5625 6.5 -1.6875 C 5.28125 -2.8125 4.671875 -4.660156 4.671875 -7.234375 L 4.671875 -22.8125 L 1.25 -22.8125 L 1.25 -26.4375 L 4.671875 -26.4375 L 4.671875 -33.09375 L 9.0625 -33.09375 L 9.0625 -26.4375 L 15.96875 -26.4375 L 15.96875 -22.8125 Z M 9.0625 -22.8125 "/></g></g></g><g fill="#ffffff" fill-opacity="1"><g transform="translate(399.818467, 205.003246)"><g><path d="M 5.984375 -30.71875 C 5.148438 -30.71875 4.441406 -31.007812 3.859375 -31.59375 C 3.273438 -32.175781 2.984375 -32.882812 2.984375 -33.71875 C 2.984375 -34.550781 3.273438 -35.253906 3.859375 -35.828125 C 4.441406 -36.410156 5.148438 -36.703125 5.984375 -36.703125 C 6.785156 -36.703125 7.46875 -36.410156 8.03125 -35.828125 C 8.59375 -35.253906 8.875 -34.550781 8.875 -33.71875 C 8.875 -32.882812 8.59375 -32.175781 8.03125 -31.59375 C 7.46875 -31.007812 6.785156 -30.71875 5.984375 -30.71875 Z M 8.109375 -26.4375 L 8.109375 0 L 3.71875 0 L 3.71875 -26.4375 Z M 8.109375 -26.4375 "/></g></g></g><g fill="#ffffff" fill-opacity="1"><g transform="translate(412.7447, 205.003246)"><g><path d="M 15.234375 0.4375 C 12.765625 0.4375 10.523438 -0.125 8.515625 -1.25 C 6.503906 -2.375 4.925781 -3.972656 3.78125 -6.046875 C 2.644531 -8.128906 2.078125 -10.535156 2.078125 -13.265625 C 2.078125 -15.960938 2.660156 -18.347656 3.828125 -20.421875 C 5.003906 -22.492188 6.601562 -24.082031 8.625 -25.1875 C 10.65625 -26.300781 12.925781 -26.859375 15.4375 -26.859375 C 17.945312 -26.859375 20.210938 -26.300781 22.234375 -25.1875 C 24.265625 -24.082031 25.863281 -22.5 27.03125 -20.4375 C 28.207031 -18.382812 28.796875 -15.992188 28.796875 -13.265625 C 28.796875 -10.535156 28.191406 -8.128906 26.984375 -6.046875 C 25.773438 -3.972656 24.140625 -2.375 22.078125 -1.25 C 20.023438 -0.125 17.742188 0.4375 15.234375 0.4375 Z M 15.234375 -3.421875 C 16.816406 -3.421875 18.296875 -3.789062 19.671875 -4.53125 C 21.054688 -5.269531 22.175781 -6.378906 23.03125 -7.859375 C 23.882812 -9.335938 24.3125 -11.140625 24.3125 -13.265625 C 24.3125 -15.390625 23.890625 -17.191406 23.046875 -18.671875 C 22.210938 -20.148438 21.117188 -21.25 19.765625 -21.96875 C 18.421875 -22.695312 16.960938 -23.0625 15.390625 -23.0625 C 13.773438 -23.0625 12.300781 -22.695312 10.96875 -21.96875 C 9.632812 -21.25 8.566406 -20.148438 7.765625 -18.671875 C 6.960938 -17.191406 6.5625 -15.390625 6.5625 -13.265625 C 6.5625 -11.109375 6.953125 -9.289062 7.734375 -7.8125 C 8.523438 -6.332031 9.578125 -5.226562 10.890625 -4.5 C 12.210938 -3.78125 13.660156 -3.421875 15.234375 -3.421875 Z M 15.234375 -3.421875 "/></g></g></g><g fill="#ffffff" fill-opacity="1"><g transform="translate(444.674224, 205.003246)"><g><path d="M 16.59375 -26.921875 C 19.8125 -26.921875 22.414062 -25.945312 24.40625 -24 C 26.394531 -22.050781 27.390625 -19.242188 27.390625 -15.578125 L 27.390625 0 L 23.0625 0 L 23.0625 -14.953125 C 23.0625 -17.585938 22.398438 -19.601562 21.078125 -21 C 19.753906 -22.40625 17.953125 -23.109375 15.671875 -23.109375 C 13.359375 -23.109375 11.519531 -22.382812 10.15625 -20.9375 C 8.789062 -19.488281 8.109375 -17.378906 8.109375 -14.609375 L 8.109375 0 L 3.71875 0 L 3.71875 -26.4375 L 8.109375 -26.4375 L 8.109375 -22.671875 C 8.972656 -24.023438 10.148438 -25.070312 11.640625 -25.8125 C 13.140625 -26.550781 14.789062 -26.921875 16.59375 -26.921875 Z M 16.59375 -26.921875 "/></g></g></g></svg>