<svg xmlns="http://www.w3.org/2000/svg" xmlns:xlink="http://www.w3.org/1999/xlink" width="62" zoomAndPan="magnify" viewBox="0 0 46.5 46.5" height="62" preserveAspectRatio="xMidYMid meet" version="1.0"><defs><clipPath id="e0c02e986e"><path d="M 3.519531 2.316406 L 43.023438 2.316406 L 43.023438 41.816406 L 3.519531 41.816406 Z M 3.519531 2.316406 " clip-rule="nonzero"/></clipPath><clipPath id="c0e3424e6b"><path d="M 23.273438 2.316406 C 12.363281 2.316406 3.519531 11.160156 3.519531 22.066406 C 3.519531 32.976562 12.363281 41.816406 23.273438 41.816406 C 34.179688 41.816406 43.023438 32.976562 43.023438 22.066406 C 43.023438 11.160156 34.179688 2.316406 23.273438 2.316406 Z M 23.273438 2.316406 " clip-rule="nonzero"/></clipPath></defs><g clip-path="url(#e0c02e986e)"><g clip-path="url(#c0e3424e6b)"><path fill="#ffffff" d="M 3.519531 2.316406 L 43.023438 2.316406 L 43.023438 41.816406 L 3.519531 41.816406 Z M 3.519531 2.316406 " fill-opacity="1" fill-rule="nonzero"/></g></g><path fill="#e95063" d="M 22.972656 45.949219 C 35.660156 45.949219 45.949219 35.660156 45.949219 22.972656 C 45.949219 10.285156 35.660156 0 22.972656 0 C 10.285156 0 0 10.285156 0 22.972656 C 0 35.660156 10.285156 45.949219 22.972656 45.949219 Z M 12.539062 13.199219 L 22.972656 21.546875 L 33.40625 13.199219 L 33.710938 12.949219 L 12.238281 12.949219 Z M 34.824219 14.917969 L 35.226562 14.585938 L 35.226562 31.882812 C 35.226562 32.5 34.726562 33 34.113281 33 L 11.835938 33 C 11.21875 33 10.722656 32.5 10.722656 31.882812 L 10.722656 14.585938 L 11.121094 14.917969 L 11.140625 14.933594 L 22.277344 23.84375 C 22.683594 24.167969 23.261719 24.167969 23.667969 23.84375 L 34.808594 14.933594 Z M 34.824219 14.917969 " fill-opacity="1" fill-rule="evenodd"/></svg>