<svg xmlns="http://www.w3.org/2000/svg" xmlns:xlink="http://www.w3.org/1999/xlink" width="62" zoomAndPan="magnify" viewBox="0 0 46.5 46.5" height="62" preserveAspectRatio="xMidYMid meet" version="1.0"><defs><clipPath id="43013d29c6"><path d="M 0 0 L 45.953125 0 L 45.953125 45.953125 L 0 45.953125 Z M 0 0 " clip-rule="nonzero"/></clipPath><clipPath id="87d7f95273"><path d="M 22.976562 0 C 10.285156 0 0 10.285156 0 22.976562 C 0 35.667969 10.285156 45.953125 22.976562 45.953125 C 35.667969 45.953125 45.953125 35.667969 45.953125 22.976562 C 45.953125 10.285156 35.667969 0 22.976562 0 Z M 22.976562 0 " clip-rule="nonzero"/></clipPath><clipPath id="476115e135"><path d="M 11.101562 10.976562 L 34.84375 10.976562 L 34.84375 34.71875 L 11.101562 34.71875 Z M 11.101562 10.976562 " clip-rule="nonzero"/></clipPath></defs><g clip-path="url(#43013d29c6)"><g clip-path="url(#87d7f95273)"><path fill="#e95063" d="M 0 0 L 45.953125 0 L 45.953125 45.953125 L 0 45.953125 Z M 0 0 " fill-opacity="1" fill-rule="nonzero"/></g></g><g clip-path="url(#476115e135)"><path fill="#ffffff" d="M 35.097656 20.753906 L 29.003906 20.753906 C 29.265625 21.445312 29.410156 22.191406 29.410156 22.976562 C 29.410156 26.457031 26.578125 29.285156 23.097656 29.285156 C 19.613281 29.285156 16.785156 26.457031 16.785156 22.976562 C 16.785156 22.191406 16.929688 21.445312 17.1875 20.753906 L 11.097656 20.753906 L 11.097656 31.332031 C 11.097656 33.34375 12.726562 34.976562 14.742188 34.976562 L 31.453125 34.976562 C 33.464844 34.976562 35.097656 33.34375 35.097656 31.332031 Z M 23.097656 17.910156 C 25.894531 17.910156 28.164062 20.179688 28.164062 22.976562 C 28.164062 25.769531 25.894531 28.042969 23.097656 28.042969 C 20.300781 28.042969 18.03125 25.769531 18.03125 22.976562 C 18.03125 20.179688 20.300781 17.910156 23.097656 17.910156 Z M 11.097656 19.507812 L 17.824219 19.507812 C 18.953125 17.796875 20.894531 16.664062 23.097656 16.664062 C 25.300781 16.664062 27.242188 17.796875 28.371094 19.507812 L 35.097656 19.507812 L 35.097656 14.621094 C 35.097656 12.605469 33.464844 10.976562 31.453125 10.976562 L 14.742188 10.976562 C 12.726562 10.976562 11.097656 12.605469 11.097656 14.621094 Z M 30.207031 14.441406 C 30.992188 14.441406 31.628906 15.078125 31.628906 15.863281 C 31.628906 16.648438 30.992188 17.285156 30.207031 17.285156 C 29.421875 17.285156 28.785156 16.648438 28.785156 15.863281 C 28.785156 15.078125 29.421875 14.441406 30.207031 14.441406 Z M 30.207031 14.441406 " fill-opacity="1" fill-rule="evenodd"/></g></svg>