<svg xmlns="http://www.w3.org/2000/svg" xmlns:xlink="http://www.w3.org/1999/xlink" width="61" zoomAndPan="magnify" viewBox="0 0 45.75 45.749999" height="61" preserveAspectRatio="xMidYMid meet" version="1.0"><defs><clipPath id="dc38ffa923"><path d="M 3.539062 1.890625 L 43.25 1.890625 L 43.25 41.601562 L 3.539062 41.601562 Z M 3.539062 1.890625 " clip-rule="nonzero"/></clipPath><clipPath id="4b630550f2"><path d="M 23.394531 1.890625 C 12.429688 1.890625 3.539062 10.78125 3.539062 21.746094 C 3.539062 32.710938 12.429688 41.601562 23.394531 41.601562 C 34.359375 41.601562 43.25 32.710938 43.25 21.746094 C 43.25 10.78125 34.359375 1.890625 23.394531 1.890625 Z M 23.394531 1.890625 " clip-rule="nonzero"/></clipPath><clipPath id="cde7f69dd1"><path d="M 0 0 L 44.753906 0 L 44.753906 44.753906 L 0 44.753906 Z M 0 0 " clip-rule="nonzero"/></clipPath></defs><g clip-path="url(#dc38ffa923)"><g clip-path="url(#4b630550f2)"><path fill="#ffffff" d="M 3.539062 1.890625 L 43.25 1.890625 L 43.25 41.601562 L 3.539062 41.601562 Z M 3.539062 1.890625 " fill-opacity="1" fill-rule="nonzero"/></g></g><g clip-path="url(#cde7f69dd1)"><path fill="#e95063" d="M 22.378906 0 C 21.644531 0 20.914062 0.0351562 20.183594 0.109375 C 19.453125 0.179688 18.730469 0.285156 18.011719 0.429688 C 17.292969 0.574219 16.582031 0.75 15.882812 0.964844 C 15.179688 1.175781 14.492188 1.421875 13.8125 1.703125 C 13.136719 1.984375 12.476562 2.296875 11.828125 2.640625 C 11.183594 2.988281 10.554688 3.363281 9.945312 3.769531 C 9.335938 4.179688 8.746094 4.613281 8.179688 5.078125 C 7.613281 5.542969 7.074219 6.035156 6.554688 6.554688 C 6.035156 7.074219 5.542969 7.613281 5.078125 8.179688 C 4.613281 8.746094 4.179688 9.335938 3.769531 9.945312 C 3.363281 10.554688 2.988281 11.183594 2.640625 11.828125 C 2.296875 12.476562 1.984375 13.136719 1.703125 13.8125 C 1.421875 14.492188 1.175781 15.179688 0.964844 15.882812 C 0.75 16.582031 0.574219 17.292969 0.429688 18.011719 C 0.285156 18.730469 0.179688 19.453125 0.109375 20.183594 C 0.0351562 20.914062 0 21.644531 0 22.378906 C 0 23.109375 0.0351562 23.839844 0.109375 24.570312 C 0.179688 25.300781 0.285156 26.023438 0.429688 26.742188 C 0.574219 27.460938 0.75 28.171875 0.964844 28.875 C 1.175781 29.574219 1.421875 30.265625 1.703125 30.941406 C 1.984375 31.617188 2.296875 32.28125 2.640625 32.925781 C 2.988281 33.574219 3.363281 34.199219 3.769531 34.808594 C 4.179688 35.417969 4.613281 36.007812 5.078125 36.574219 C 5.542969 37.140625 6.035156 37.683594 6.554688 38.199219 C 7.074219 38.71875 7.613281 39.210938 8.179688 39.675781 C 8.746094 40.140625 9.335938 40.578125 9.945312 40.984375 C 10.554688 41.390625 11.183594 41.769531 11.828125 42.113281 C 12.476562 42.457031 13.136719 42.773438 13.8125 43.050781 C 14.492188 43.332031 15.179688 43.578125 15.882812 43.792969 C 16.582031 44.003906 17.292969 44.183594 18.011719 44.324219 C 18.730469 44.46875 19.453125 44.574219 20.183594 44.648438 C 20.914062 44.71875 21.644531 44.753906 22.378906 44.753906 C 23.109375 44.753906 23.839844 44.71875 24.570312 44.648438 C 25.300781 44.574219 26.023438 44.46875 26.742188 44.324219 C 27.460938 44.183594 28.171875 44.003906 28.875 43.792969 C 29.574219 43.578125 30.265625 43.332031 30.941406 43.050781 C 31.617188 42.773438 32.28125 42.457031 32.925781 42.113281 C 33.574219 41.769531 34.199219 41.390625 34.808594 40.984375 C 35.417969 40.578125 36.007812 40.140625 36.574219 39.675781 C 37.140625 39.210938 37.683594 38.71875 38.199219 38.199219 C 38.71875 37.683594 39.210938 37.140625 39.675781 36.574219 C 40.140625 36.007812 40.578125 35.417969 40.984375 34.808594 C 41.390625 34.199219 41.769531 33.574219 42.113281 32.925781 C 42.457031 32.28125 42.773438 31.617188 43.050781 30.941406 C 43.332031 30.265625 43.578125 29.574219 43.792969 28.875 C 44.003906 28.171875 44.183594 27.460938 44.324219 26.742188 C 44.46875 26.023438 44.574219 25.300781 44.648438 24.570312 C 44.71875 23.839844 44.753906 23.109375 44.753906 22.378906 C 44.753906 21.644531 44.71875 20.914062 44.648438 20.183594 C 44.574219 19.453125 44.46875 18.730469 44.324219 18.011719 C 44.183594 17.292969 44.003906 16.582031 43.792969 15.882812 C 43.578125 15.179688 43.332031 14.492188 43.050781 13.8125 C 42.773438 13.136719 42.460938 12.476562 42.113281 11.828125 C 41.769531 11.183594 41.390625 10.554688 40.984375 9.945312 C 40.578125 9.335938 40.140625 8.746094 39.675781 8.179688 C 39.210938 7.613281 38.71875 7.070312 38.203125 6.554688 C 37.683594 6.035156 37.140625 5.542969 36.574219 5.078125 C 36.007812 4.613281 35.417969 4.179688 34.808594 3.769531 C 34.199219 3.363281 33.574219 2.988281 32.925781 2.640625 C 32.28125 2.296875 31.617188 1.984375 30.941406 1.703125 C 30.265625 1.421875 29.574219 1.175781 28.875 0.964844 C 28.171875 0.75 27.460938 0.574219 26.742188 0.429688 C 26.023438 0.285156 25.300781 0.179688 24.570312 0.109375 C 23.839844 0.0351562 23.109375 0 22.378906 0 Z M 25.980469 28.777344 L 19.527344 35.230469 C 19.199219 35.558594 18.84375 35.851562 18.457031 36.109375 C 18.070312 36.367188 17.664062 36.585938 17.234375 36.761719 C 16.804688 36.941406 16.363281 37.074219 15.90625 37.164062 C 15.453125 37.257812 14.992188 37.300781 14.527344 37.300781 C 14.0625 37.300781 13.601562 37.257812 13.148438 37.164062 C 12.691406 37.074219 12.25 36.941406 11.820312 36.761719 C 11.390625 36.585938 10.984375 36.367188 10.597656 36.109375 C 10.210938 35.851562 9.855469 35.558594 9.527344 35.230469 C 9.195312 34.902344 8.902344 34.542969 8.644531 34.15625 C 8.386719 33.773438 8.171875 33.363281 7.992188 32.933594 C 7.816406 32.507812 7.679688 32.0625 7.589844 31.609375 C 7.5 31.152344 7.453125 30.691406 7.453125 30.230469 C 7.453125 29.765625 7.5 29.304688 7.589844 28.847656 C 7.679688 28.394531 7.816406 27.949219 7.992188 27.523438 C 8.171875 27.09375 8.386719 26.683594 8.644531 26.300781 C 8.902344 25.914062 9.195312 25.554688 9.527344 25.226562 C 9.527344 25.226562 16.238281 18.527344 16.367188 18.425781 C 16.160156 19.019531 16.03125 19.632812 15.976562 20.257812 C 15.886719 21.199219 15.96875 22.125 16.214844 23.035156 C 16.328125 23.445312 16.476562 23.847656 16.65625 24.234375 L 12.5625 28.332031 C 12.03125 28.867188 11.765625 29.515625 11.761719 30.269531 C 11.773438 30.816406 11.929688 31.316406 12.238281 31.769531 C 12.546875 32.222656 12.957031 32.554688 13.460938 32.761719 C 13.96875 32.972656 14.492188 33.023438 15.027344 32.921875 C 15.566406 32.820312 16.03125 32.574219 16.425781 32.195312 C 16.425781 32.195312 23.027344 25.601562 23.101562 25.503906 C 23.246094 25.332031 23.367188 25.140625 23.46875 24.941406 C 23.566406 24.738281 23.640625 24.523438 23.683594 24.304688 C 23.730469 24.082031 23.75 23.859375 23.742188 23.632812 C 23.730469 23.410156 23.695312 23.1875 23.632812 22.96875 C 23.566406 22.753906 23.476562 22.546875 23.363281 22.355469 C 23.25 22.160156 23.113281 21.984375 22.953125 21.820312 C 22.792969 21.660156 22.617188 21.523438 22.425781 21.40625 C 22.230469 21.289062 22.027344 21.199219 21.8125 21.132812 C 21.773438 20.542969 21.964844 20.042969 22.378906 19.625 C 22.90625 19.09375 23.878906 18.117188 24.40625 17.597656 C 25.242188 18.054688 25.953125 18.660156 26.542969 19.410156 C 27.132812 20.160156 27.550781 20.996094 27.800781 21.914062 C 27.964844 22.515625 28.046875 23.128906 28.046875 23.753906 C 28.046875 24.375 27.96875 24.988281 27.808594 25.589844 C 27.648438 26.191406 27.414062 26.765625 27.105469 27.304688 C 26.792969 27.84375 26.421875 28.335938 25.980469 28.777344 Z M 35.238281 19.511719 C 35.238281 19.511719 28.53125 26.210938 28.40625 26.316406 C 28.609375 25.722656 28.738281 25.113281 28.792969 24.488281 C 28.925781 23.097656 28.699219 21.773438 28.113281 20.503906 L 32.210938 16.410156 C 32.460938 16.152344 32.652344 15.859375 32.789062 15.523438 C 32.921875 15.191406 32.988281 14.84375 32.988281 14.484375 C 32.984375 14.125 32.914062 13.78125 32.777344 13.449219 C 32.636719 13.117188 32.441406 12.824219 32.1875 12.570312 C 31.933594 12.316406 31.640625 12.117188 31.308594 11.980469 C 30.972656 11.84375 30.628906 11.773438 30.269531 11.769531 C 29.910156 11.769531 29.5625 11.835938 29.230469 11.972656 C 28.898438 12.109375 28.601562 12.300781 28.34375 12.554688 C 26.851562 14.046875 23.265625 17.625 21.824219 19.074219 C 21.660156 19.242188 21.523438 19.425781 21.40625 19.628906 C 21.289062 19.835938 21.199219 20.050781 21.136719 20.277344 C 21.078125 20.503906 21.046875 20.734375 21.042969 20.96875 C 21.039062 21.203125 21.066406 21.433594 21.125 21.660156 C 21.183594 21.890625 21.265625 22.105469 21.378906 22.3125 C 21.492188 22.515625 21.628906 22.707031 21.789062 22.878906 C 21.949219 23.046875 22.128906 23.195312 22.328125 23.320312 C 22.523438 23.445312 22.734375 23.542969 22.960938 23.617188 C 22.988281 24.296875 22.742188 24.851562 22.222656 25.285156 L 20.363281 27.152344 C 19.480469 26.667969 18.738281 26.023438 18.132812 25.214844 C 17.527344 24.410156 17.113281 23.515625 16.894531 22.535156 C 16.765625 21.953125 16.707031 21.363281 16.726562 20.765625 C 16.742188 20.167969 16.835938 19.582031 17 19.007812 C 17.167969 18.4375 17.402344 17.890625 17.703125 17.378906 C 18.007812 16.863281 18.367188 16.394531 18.789062 15.96875 L 25.242188 9.519531 C 25.570312 9.191406 25.925781 8.898438 26.3125 8.640625 C 26.699219 8.382812 27.105469 8.164062 27.535156 7.984375 C 27.964844 7.808594 28.40625 7.675781 28.859375 7.582031 C 29.316406 7.492188 29.777344 7.449219 30.238281 7.449219 C 30.703125 7.449219 31.164062 7.492188 31.617188 7.582031 C 32.074219 7.675781 32.515625 7.808594 32.945312 7.984375 C 33.375 8.164062 33.78125 8.382812 34.167969 8.640625 C 34.550781 8.898438 34.910156 9.191406 35.238281 9.519531 C 35.566406 9.847656 35.859375 10.203125 36.117188 10.589844 C 36.375 10.976562 36.59375 11.382812 36.769531 11.8125 C 36.945312 12.238281 37.082031 12.683594 37.171875 13.136719 C 37.261719 13.59375 37.308594 14.050781 37.308594 14.515625 C 37.308594 14.980469 37.261719 15.4375 37.171875 15.894531 C 37.082031 16.351562 36.945312 16.792969 36.769531 17.21875 C 36.59375 17.648438 36.375 18.054688 36.117188 18.441406 C 35.859375 18.828125 35.566406 19.183594 35.238281 19.511719 Z M 35.238281 19.511719 " fill-opacity="1" fill-rule="nonzero"/></g></svg>