<svg xmlns="http://www.w3.org/2000/svg" xmlns:xlink="http://www.w3.org/1999/xlink" width="62" zoomAndPan="magnify" viewBox="0 0 46.5 46.5" height="62" preserveAspectRatio="xMidYMid meet" version="1.0"><defs><clipPath id="ae80496ef9"><path d="M 3.226562 3.851562 L 42.726562 3.851562 L 42.726562 43.355469 L 3.226562 43.355469 Z M 3.226562 3.851562 " clip-rule="nonzero"/></clipPath><clipPath id="eb37998e78"><path d="M 22.976562 3.851562 C 12.066406 3.851562 3.226562 12.695312 3.226562 23.605469 C 3.226562 34.511719 12.066406 43.355469 22.976562 43.355469 C 33.886719 43.355469 42.726562 34.511719 42.726562 23.605469 C 42.726562 12.695312 33.886719 3.851562 22.976562 3.851562 Z M 22.976562 3.851562 " clip-rule="nonzero"/></clipPath></defs><g clip-path="url(#ae80496ef9)"><g clip-path="url(#eb37998e78)"><path fill="#ffffff" d="M 3.226562 3.851562 L 42.726562 3.851562 L 42.726562 43.355469 L 3.226562 43.355469 Z M 3.226562 3.851562 " fill-opacity="1" fill-rule="nonzero"/></g></g><path fill="#e95063" d="M 22.96875 0 C 10.253906 0 -0.00390625 10.355469 -0.00390625 22.972656 C -0.00390625 35.6875 10.355469 45.945312 22.96875 45.945312 C 35.6875 45.945312 45.941406 35.585938 45.941406 22.972656 C 45.941406 10.355469 35.6875 0 22.96875 0 Z M 37.226562 34.046875 C 36.609375 36.097656 33.839844 39.074219 31.277344 39.074219 L 31.070312 38.96875 C 27.277344 38.765625 22.046875 35.175781 17.226562 29.328125 L 15.484375 27.175781 C 10.664062 21.332031 8.097656 15.585938 8.714844 11.894531 C 9.125 9.230469 13.023438 7.074219 15.277344 7.074219 C 16.40625 7.074219 16.816406 7.589844 16.917969 8 C 18.148438 10.253906 19.789062 14.152344 19.789062 15.585938 L 19.789062 15.792969 C 19.484375 16.511719 18.867188 16.921875 18.355469 17.226562 C 17.636719 17.636719 17.226562 17.945312 17.125 18.664062 C 17.125 18.871094 17.328125 19.996094 20.507812 23.894531 L 21.839844 25.535156 C 25.019531 29.328125 26.046875 29.738281 26.25 29.738281 C 27.070312 29.84375 27.378906 29.535156 27.996094 28.917969 C 28.40625 28.40625 28.917969 27.894531 29.636719 27.792969 L 29.839844 27.792969 C 31.277344 28.097656 34.761719 30.355469 36.816406 32.097656 C 37.121094 32.203125 37.636719 32.714844 37.226562 34.046875 Z M 37.226562 34.046875 " fill-opacity="1" fill-rule="nonzero"/></svg>