<svg xmlns="http://www.w3.org/2000/svg" xmlns:xlink="http://www.w3.org/1999/xlink" width="50" zoomAndPan="magnify" viewBox="0 0 37.5 132.000001" height="176" preserveAspectRatio="xMidYMid meet" version="1.0"><defs><clipPath id="c0d4b68beb"><path d="M 25.460938 13.300781 L 33.355469 13.300781 L 33.355469 20.050781 L 25.460938 20.050781 Z M 25.460938 13.300781 " clip-rule="nonzero"/></clipPath><clipPath id="7e8c1d2969"><path d="M 23 117 L 35 117 L 35 129.898438 L 23 129.898438 Z M 23 117 " clip-rule="nonzero"/></clipPath><clipPath id="46c146f161"><path d="M 0 117 L 12 117 L 12 129.898438 L 0 129.898438 Z M 0 117 " clip-rule="nonzero"/></clipPath><clipPath id="66ac68ece4"><path d="M 11 0.375 L 24 0.375 L 24 13 L 11 13 Z M 11 0.375 " clip-rule="nonzero"/></clipPath></defs><g clip-path="url(#c0d4b68beb)"><path fill="#1b205d" d="M 25.460938 13.300781 L 33.371094 13.300781 L 33.371094 20.050781 L 25.460938 20.050781 Z M 25.460938 13.300781 " fill-opacity="1" fill-rule="nonzero"/></g><path fill="#9d94d7" d="M 34.875 11.761719 L 34.875 22.304688 C 34.875 22.464844 34.820312 22.601562 34.707031 22.710938 C 34.597656 22.824219 34.460938 22.882812 34.300781 22.882812 L 23.828125 22.882812 C 23.667969 22.882812 23.53125 22.824219 23.421875 22.710938 C 23.308594 22.601562 23.25 22.464844 23.25 22.304688 L 23.25 11.761719 C 23.25 11.605469 23.308594 11.46875 23.421875 11.355469 C 23.53125 11.242188 23.667969 11.183594 23.828125 11.183594 L 34.300781 11.183594 C 34.460938 11.183594 34.597656 11.242188 34.707031 11.355469 C 34.820312 11.46875 34.875 11.605469 34.875 11.761719 Z M 34.875 11.761719 " fill-opacity="1" fill-rule="nonzero"/><path fill="#e95063" d="M 34.875 47.921875 L 34.875 58.460938 C 34.875 58.621094 34.820312 58.757812 34.707031 58.871094 C 34.59375 58.984375 34.460938 59.039062 34.300781 59.039062 L 23.828125 59.039062 C 23.667969 59.039062 23.53125 58.984375 23.417969 58.871094 C 23.308594 58.757812 23.25 58.621094 23.25 58.460938 L 23.25 47.921875 C 23.25 47.761719 23.308594 47.625 23.417969 47.511719 C 23.53125 47.398438 23.667969 47.34375 23.828125 47.34375 L 34.300781 47.34375 C 34.460938 47.34375 34.59375 47.398438 34.707031 47.511719 C 34.820312 47.625 34.875 47.761719 34.875 47.921875 Z M 34.875 47.921875 " fill-opacity="1" fill-rule="nonzero"/><path fill="#9d94d7" d="M 23.25 59.621094 L 23.25 70.160156 C 23.25 70.320312 23.195312 70.457031 23.082031 70.570312 C 22.96875 70.683594 22.835938 70.738281 22.675781 70.738281 L 12.199219 70.738281 C 12.042969 70.738281 11.90625 70.683594 11.792969 70.570312 C 11.679688 70.457031 11.625 70.320312 11.625 70.160156 L 11.625 59.621094 C 11.625 59.460938 11.679688 59.324219 11.792969 59.210938 C 11.90625 59.097656 12.042969 59.042969 12.199219 59.042969 L 22.675781 59.042969 C 22.835938 59.042969 22.96875 59.097656 23.082031 59.210938 C 23.195312 59.324219 23.25 59.460938 23.25 59.621094 Z M 23.25 59.621094 " fill-opacity="1" fill-rule="nonzero"/><path fill="#9d94d7" d="M 34.875 71.320312 L 34.875 81.859375 C 34.875 82.019531 34.820312 82.15625 34.707031 82.269531 C 34.59375 82.378906 34.460938 82.4375 34.300781 82.4375 L 23.828125 82.4375 C 23.667969 82.4375 23.53125 82.378906 23.417969 82.269531 C 23.308594 82.15625 23.25 82.019531 23.25 81.859375 L 23.25 71.320312 C 23.25 71.160156 23.308594 71.023438 23.417969 70.910156 C 23.53125 70.796875 23.667969 70.738281 23.828125 70.738281 L 34.300781 70.738281 C 34.460938 70.738281 34.59375 70.796875 34.707031 70.910156 C 34.820312 71.023438 34.875 71.160156 34.875 71.320312 Z M 34.875 71.320312 " fill-opacity="1" fill-rule="nonzero"/><path fill="#e95063" d="M 23.25 83.015625 L 23.25 93.558594 C 23.25 93.714844 23.195312 93.851562 23.082031 93.964844 C 22.96875 94.078125 22.835938 94.136719 22.675781 94.136719 L 12.199219 94.136719 C 12.042969 94.136719 11.90625 94.078125 11.792969 93.964844 C 11.679688 93.851562 11.625 93.714844 11.625 93.558594 L 11.625 83.015625 C 11.625 82.855469 11.679688 82.71875 11.792969 82.609375 C 11.90625 82.496094 12.042969 82.4375 12.199219 82.4375 L 22.675781 82.4375 C 22.835938 82.4375 22.96875 82.496094 23.082031 82.609375 C 23.195312 82.71875 23.25 82.855469 23.25 83.015625 Z M 23.25 83.015625 " fill-opacity="1" fill-rule="nonzero"/><path fill="#9d94d7" d="M 35.933594 94.714844 L 35.933594 105.253906 C 35.933594 105.414062 35.878906 105.550781 35.765625 105.664062 C 35.652344 105.777344 35.515625 105.835938 35.359375 105.835938 L 24.882812 105.835938 C 24.726562 105.835938 24.589844 105.777344 24.476562 105.664062 C 24.363281 105.550781 24.308594 105.414062 24.308594 105.253906 L 24.308594 94.714844 C 24.308594 94.554688 24.363281 94.417969 24.476562 94.304688 C 24.589844 94.191406 24.726562 94.136719 24.882812 94.136719 L 35.359375 94.136719 C 35.515625 94.136719 35.652344 94.191406 35.765625 94.304688 C 35.878906 94.417969 35.933594 94.554688 35.933594 94.714844 Z M 35.933594 94.714844 " fill-opacity="1" fill-rule="nonzero"/><path fill="#9d94d7" d="M 23.25 106.414062 L 23.25 116.953125 C 23.25 117.113281 23.195312 117.25 23.082031 117.363281 C 22.96875 117.476562 22.835938 117.53125 22.675781 117.53125 L 12.199219 117.53125 C 12.042969 117.53125 11.90625 117.476562 11.792969 117.363281 C 11.679688 117.25 11.625 117.113281 11.625 116.953125 L 11.625 106.414062 C 11.625 106.253906 11.679688 106.117188 11.792969 106.003906 C 11.90625 105.890625 12.042969 105.835938 12.199219 105.835938 L 22.675781 105.835938 C 22.835938 105.835938 22.96875 105.890625 23.082031 106.003906 C 23.195312 106.117188 23.25 106.253906 23.25 106.414062 Z M 23.25 106.414062 " fill-opacity="1" fill-rule="nonzero"/><g clip-path="url(#7e8c1d2969)"><path fill="#9d94d7" d="M 34.875 118.113281 L 34.875 128.652344 C 34.875 128.8125 34.820312 128.949219 34.707031 129.0625 C 34.59375 129.175781 34.460938 129.230469 34.300781 129.230469 L 23.828125 129.230469 C 23.667969 129.230469 23.53125 129.175781 23.417969 129.0625 C 23.308594 128.949219 23.25 128.8125 23.25 128.652344 L 23.25 118.113281 C 23.25 117.953125 23.308594 117.816406 23.417969 117.703125 C 23.53125 117.589844 23.667969 117.53125 23.828125 117.53125 L 34.300781 117.53125 C 34.460938 117.53125 34.59375 117.589844 34.707031 117.703125 C 34.820312 117.816406 34.875 117.953125 34.875 118.113281 Z M 34.875 118.113281 " fill-opacity="1" fill-rule="nonzero"/></g><g clip-path="url(#46c146f161)"><path fill="#e95063" d="M 11.625 118.113281 L 11.625 128.652344 C 11.625 128.8125 11.570312 128.949219 11.457031 129.0625 C 11.34375 129.175781 11.207031 129.230469 11.050781 129.230469 L 0.574219 129.230469 C 0.417969 129.230469 0.28125 129.175781 0.167969 129.0625 C 0.0546875 128.949219 0 128.8125 0 128.652344 L 0 118.113281 C 0 117.953125 0.0546875 117.816406 0.167969 117.703125 C 0.28125 117.589844 0.417969 117.53125 0.574219 117.53125 L 11.050781 117.53125 C 11.207031 117.53125 11.34375 117.589844 11.457031 117.703125 C 11.570312 117.816406 11.625 117.953125 11.625 118.113281 Z M 11.625 118.113281 " fill-opacity="1" fill-rule="nonzero"/></g><path fill="#9d94d7" d="M 11.625 94.714844 L 11.625 105.253906 C 11.625 105.414062 11.570312 105.550781 11.457031 105.664062 C 11.34375 105.777344 11.207031 105.835938 11.050781 105.835938 L 0.574219 105.835938 C 0.417969 105.835938 0.28125 105.777344 0.167969 105.664062 C 0.0546875 105.550781 0 105.414062 0 105.253906 L 0 94.714844 C 0 94.554688 0.0546875 94.417969 0.167969 94.304688 C 0.28125 94.191406 0.417969 94.136719 0.574219 94.136719 L 11.050781 94.136719 C 11.207031 94.136719 11.34375 94.191406 11.457031 94.304688 C 11.570312 94.417969 11.625 94.554688 11.625 94.714844 Z M 11.625 94.714844 " fill-opacity="1" fill-rule="nonzero"/><path fill="#9d94d7" d="M 23.25 36.222656 L 23.25 46.761719 C 23.25 46.921875 23.195312 47.058594 23.082031 47.171875 C 22.96875 47.285156 22.835938 47.34375 22.675781 47.34375 L 0.574219 47.34375 C 0.417969 47.34375 0.28125 47.285156 0.167969 47.171875 C 0.0546875 47.058594 0 46.921875 0 46.761719 L 0 36.222656 C 0 36.0625 0.0546875 35.925781 0.167969 35.8125 C 0.28125 35.703125 0.417969 35.644531 0.574219 35.644531 L 22.675781 35.644531 C 22.835938 35.644531 22.96875 35.703125 23.082031 35.8125 C 23.195312 35.925781 23.25 36.0625 23.25 36.222656 Z M 23.25 36.222656 " fill-opacity="1" fill-rule="nonzero"/><g clip-path="url(#66ac68ece4)"><path fill="#9d94d7" d="M 23.25 1.128906 L 23.25 11.667969 C 23.25 11.828125 23.195312 11.964844 23.082031 12.078125 C 22.96875 12.191406 22.835938 12.246094 22.675781 12.246094 L 12.199219 12.246094 C 12.042969 12.246094 11.90625 12.191406 11.792969 12.078125 C 11.679688 11.964844 11.625 11.828125 11.625 11.667969 L 11.625 1.128906 C 11.625 0.96875 11.679688 0.832031 11.792969 0.71875 C 11.90625 0.605469 12.042969 0.550781 12.199219 0.550781 L 22.675781 0.550781 C 22.835938 0.550781 22.96875 0.605469 23.082031 0.71875 C 23.195312 0.832031 23.25 0.96875 23.25 1.128906 Z M 23.25 1.128906 " fill-opacity="1" fill-rule="nonzero"/></g><path fill="#e95063" d="M 11.625 12.828125 L 11.625 23.367188 C 11.625 23.527344 11.570312 23.664062 11.457031 23.777344 C 11.34375 23.890625 11.207031 23.945312 11.050781 23.945312 L 0.574219 23.945312 C 0.417969 23.945312 0.28125 23.890625 0.167969 23.777344 C 0.0546875 23.664062 0 23.527344 0 23.367188 L 0 12.828125 C 0 12.667969 0.0546875 12.53125 0.167969 12.417969 C 0.28125 12.304688 0.417969 12.246094 0.574219 12.246094 L 11.050781 12.246094 C 11.207031 12.246094 11.34375 12.304688 11.457031 12.417969 C 11.570312 12.53125 11.625 12.667969 11.625 12.828125 Z M 11.625 12.828125 " fill-opacity="1" fill-rule="nonzero"/></svg>