<svg width="79" height="161" viewBox="0 0 79 161" fill="none" xmlns="http://www.w3.org/2000/svg">
<path d="M73.8943 157.893C73.8943 156.46 75.0416 155.314 76.4758 155.314C77.91 155.314 79 156.46 79 157.893C79 159.326 77.8526 160.415 76.4758 160.415C75.099 160.415 73.8943 159.269 73.8943 157.893Z" fill="white"/>
<path d="M73.8943 132.103C73.8943 130.67 75.0416 129.582 76.4758 129.582C77.91 129.582 79 130.728 79 132.103C79 133.479 77.8526 134.682 76.4758 134.682C75.099 134.682 73.8943 133.536 73.8943 132.103Z" fill="white"/>
<path d="M73.8943 106.256C73.8943 104.823 75.0416 103.677 76.4758 103.677C77.91 103.677 79 104.823 79 106.256C79 107.689 77.8526 108.778 76.4758 108.778C75.099 108.778 73.8943 107.631 73.8943 106.256Z" fill="white"/>
<path d="M73.8943 80.4086C73.8943 78.9758 75.0416 77.8296 76.4758 77.8296C77.91 77.8296 79 78.9758 79 80.4086C79 81.8414 77.8526 82.9876 76.4758 82.9876C75.099 82.9876 73.8943 81.8414 73.8943 80.4086Z" fill="white"/>
<path d="M73.8943 54.6186C73.8943 53.1858 75.0416 52.0969 76.4758 52.0969C77.91 52.0969 79 53.2432 79 54.6186C79 55.9941 77.8526 57.1976 76.4758 57.1976C75.099 57.1976 73.8943 56.0514 73.8943 54.6186Z" fill="white"/>
<path d="M73.8943 28.7714C73.8943 27.3387 75.0416 26.2498 76.4758 26.2498C77.91 26.2498 79 27.396 79 28.7714C79 30.1469 77.8526 31.2931 76.4758 31.2931C75.099 31.2931 73.8943 30.1469 73.8943 28.7714Z" fill="white"/>
<path d="M73.8943 2.9814C73.8943 1.54862 75.0416 0.459717 76.4758 0.459717C77.91 0.459717 79 1.60593 79 2.9814C79 4.35686 77.8526 5.5031 76.4758 5.5031C75.099 5.5031 73.8943 4.35686 73.8943 2.9814Z" fill="white"/>
<path d="M49.2837 157.893C49.2837 156.46 50.4311 155.314 51.8079 155.314C53.1847 155.314 54.3894 156.46 54.3894 157.893C54.3894 159.326 53.2421 160.415 51.8079 160.415C50.3737 160.415 49.2837 159.269 49.2837 157.893Z" fill="white"/>
<path d="M49.2837 132.103C49.2837 130.67 50.4311 129.582 51.8079 129.582C53.1847 129.582 54.3894 130.728 54.3894 132.103C54.3894 133.479 53.2421 134.682 51.8079 134.682C50.3737 134.682 49.2837 133.536 49.2837 132.103Z" fill="white"/>
<path d="M49.2837 106.256C49.2837 104.823 50.4311 103.677 51.8079 103.677C53.1847 103.677 54.3894 104.823 54.3894 106.256C54.3894 107.689 53.2421 108.778 51.8079 108.778C50.3737 108.778 49.2837 107.631 49.2837 106.256Z" fill="white"/>
<path d="M49.2837 80.4086C49.2837 78.9758 50.4311 77.8296 51.8079 77.8296C53.1847 77.8296 54.3894 78.9758 54.3894 80.4086C54.3894 81.8414 53.2421 82.9876 51.8079 82.9876C50.3737 82.9876 49.2837 81.8414 49.2837 80.4086Z" fill="white"/>
<path d="M49.2837 54.6186C49.2837 53.1858 50.4311 52.0969 51.8079 52.0969C53.1847 52.0969 54.3894 53.2432 54.3894 54.6186C54.3894 55.9941 53.2421 57.1976 51.8079 57.1976C50.3737 57.1976 49.2837 56.0514 49.2837 54.6186Z" fill="white"/>
<path d="M49.2837 28.7714C49.2837 27.3387 50.4311 26.2498 51.8079 26.2498C53.1847 26.2498 54.3894 27.396 54.3894 28.7714C54.3894 30.1469 53.2421 31.2931 51.8079 31.2931C50.3737 31.2931 49.2837 30.1469 49.2837 28.7714Z" fill="white"/>
<path d="M49.2837 2.9814C49.2837 1.54862 50.4311 0.459717 51.8079 0.459717C53.1847 0.459717 54.3894 1.60593 54.3894 2.9814C54.3894 4.35686 53.2421 5.5031 51.8079 5.5031C50.3737 5.5031 49.2837 4.35686 49.2837 2.9814Z" fill="white"/>
<path d="M24.7303 157.893C24.7303 156.46 25.8776 155.314 27.2544 155.314C28.6313 155.314 29.8361 156.46 29.8361 157.893C29.8361 159.326 28.6886 160.415 27.2544 160.415C25.8203 160.415 24.7303 159.269 24.7303 157.893Z" fill="white"/>
<path d="M24.7303 132.103C24.7303 130.67 25.8776 129.582 27.2544 129.582C28.6313 129.582 29.8361 130.728 29.8361 132.103C29.8361 133.479 28.6886 134.682 27.2544 134.682C25.8203 134.682 24.7303 133.536 24.7303 132.103Z" fill="white"/>
<path d="M24.7303 106.256C24.7303 104.823 25.8776 103.677 27.2544 103.677C28.6313 103.677 29.8361 104.823 29.8361 106.256C29.8361 107.689 28.6886 108.778 27.2544 108.778C25.8203 108.778 24.7303 107.631 24.7303 106.256Z" fill="white"/>
<path d="M24.7303 80.4086C24.7303 78.9758 25.8776 77.8296 27.2544 77.8296C28.6313 77.8296 29.8361 78.9758 29.8361 80.4086C29.8361 81.8414 28.6886 82.9876 27.2544 82.9876C25.8203 82.9876 24.7303 81.8414 24.7303 80.4086Z" fill="white"/>
<path d="M24.7303 54.6186C24.7303 53.1858 25.8776 52.0969 27.2544 52.0969C28.6313 52.0969 29.8361 53.2432 29.8361 54.6186C29.8361 55.9941 28.6886 57.1976 27.2544 57.1976C25.8203 57.1976 24.7303 56.0514 24.7303 54.6186Z" fill="white"/>
<path d="M27.3119 31.3504C28.7376 31.3504 29.8934 30.1957 29.8934 28.7714C29.8934 27.347 28.7376 26.1924 27.3119 26.1924C25.8861 26.1924 24.7303 27.347 24.7303 28.7714C24.7303 30.1957 25.8861 31.3504 27.3119 31.3504Z" fill="white"/>
<path d="M27.3119 5.56033C28.7376 5.56033 29.8934 4.40567 29.8934 2.98133C29.8934 1.55698 28.7376 0.402344 27.3119 0.402344C25.8861 0.402344 24.7303 1.55698 24.7303 2.98133C24.7303 4.40567 25.8861 5.56033 27.3119 5.56033Z" fill="white"/>
<path d="M0.177063 157.893C0.177063 156.46 1.32434 155.314 2.70116 155.314C4.07798 155.314 5.22534 156.46 5.22534 157.893C5.22534 159.326 4.07798 160.415 2.70116 160.415C1.32434 160.415 0.177063 159.269 0.177063 157.893Z" fill="white"/>
<path d="M0.177063 132.103C0.177063 130.67 1.32434 129.582 2.70116 129.582C4.07798 129.582 5.22534 130.728 5.22534 132.103C5.22534 133.479 4.07798 134.682 2.70116 134.682C1.32434 134.682 0.177063 133.536 0.177063 132.103Z" fill="white"/>
<path d="M0.177063 106.256C0.177063 104.823 1.32434 103.677 2.70116 103.677C4.07798 103.677 5.22534 104.823 5.22534 106.256C5.22534 107.689 4.07798 108.778 2.70116 108.778C1.32434 108.778 0.177063 107.631 0.177063 106.256Z" fill="white"/>
<path d="M0.177063 80.4086C0.177063 78.9758 1.32434 77.8296 2.70116 77.8296C4.07798 77.8296 5.22534 78.9758 5.22534 80.4086C5.22534 81.8414 4.07798 82.9876 2.70116 82.9876C1.32434 82.9876 0.177063 81.8414 0.177063 80.4086Z" fill="white"/>
<path d="M0.177063 54.6186C0.177063 53.1858 1.32434 52.0969 2.70116 52.0969C4.07798 52.0969 5.22534 53.2432 5.22534 54.6186C5.22534 55.9941 4.07798 57.1976 2.70116 57.1976C1.32434 57.1976 0.177063 56.0514 0.177063 54.6186Z" fill="white"/>
<path d="M2.75862 31.2931C4.15268 31.2931 5.2828 30.1641 5.2828 28.7714C5.2828 27.3787 4.15268 26.2498 2.75862 26.2498C1.36456 26.2498 0.234436 27.3787 0.234436 28.7714C0.234436 30.1641 1.36456 31.2931 2.75862 31.2931Z" fill="white"/>
<path d="M2.75862 5.5031C4.15268 5.5031 5.2828 4.37409 5.2828 2.9814C5.2828 1.58871 4.15268 0.459717 2.75862 0.459717C1.36456 0.459717 0.234436 1.58871 0.234436 2.9814C0.234436 4.37409 1.36456 5.5031 2.75862 5.5031Z" fill="white"/>
</svg>
