<svg xmlns="http://www.w3.org/2000/svg" xmlns:xlink="http://www.w3.org/1999/xlink" width="62" zoomAndPan="magnify" viewBox="0 0 46.5 46.5" height="62" preserveAspectRatio="xMidYMid meet" version="1.0"><defs><clipPath id="2b9813c3e6"><path d="M 3.519531 3.28125 L 43.023438 3.28125 L 43.023438 42.78125 L 3.519531 42.78125 Z M 3.519531 3.28125 " clip-rule="nonzero"/></clipPath><clipPath id="640758610a"><path d="M 23.273438 3.28125 C 12.363281 3.28125 3.519531 12.125 3.519531 23.03125 C 3.519531 33.941406 12.363281 42.78125 23.273438 42.78125 C 34.179688 42.78125 43.023438 33.941406 43.023438 23.03125 C 43.023438 12.125 34.179688 3.28125 23.273438 3.28125 Z M 23.273438 3.28125 " clip-rule="nonzero"/></clipPath></defs><g clip-path="url(#2b9813c3e6)"><g clip-path="url(#640758610a)"><path fill="#ffffff" d="M 3.519531 3.28125 L 43.023438 3.28125 L 43.023438 42.78125 L 3.519531 42.78125 Z M 3.519531 3.28125 " fill-opacity="1" fill-rule="nonzero"/></g></g><path fill="#e95063" d="M 23.449219 10.542969 C 16.746094 10.542969 11.296875 15.992188 11.296875 22.695312 C 11.296875 25.042969 11.972656 27.308594 13.226562 29.277344 L 13.527344 29.738281 L 12.351562 33.953125 L 16.808594 32.898438 L 17.226562 33.15625 C 19.09375 34.273438 21.261719 34.867188 23.449219 34.867188 C 30.152344 34.867188 35.605469 29.417969 35.605469 22.714844 C 35.605469 16.011719 30.152344 10.542969 23.449219 10.542969 Z M 30.371094 27.925781 C 30.253906 28.523438 28.980469 29.277344 28.164062 29.496094 C 26.136719 30.035156 23.273438 28.484375 20.449219 26.015625 C 17.601562 23.550781 15.695312 20.925781 15.933594 18.835938 C 16.03125 18 16.628906 16.628906 17.183594 16.449219 C 17.742188 16.269531 18.140625 16.449219 18.71875 16.628906 C 18.996094 16.945312 19.355469 17.324219 19.75 17.78125 C 20.289062 18.378906 20.644531 18.914062 20.867188 19.292969 C 21.042969 19.613281 20.984375 20.011719 20.707031 20.25 L 19.730469 21.125 C 19.550781 21.28125 19.492188 21.542969 19.59375 21.761719 C 19.890625 22.398438 20.585938 23.710938 21.640625 24.625 C 22.675781 25.539062 24.085938 26.058594 24.765625 26.253906 C 24.984375 26.335938 25.242188 26.234375 25.359375 26.035156 L 26.097656 24.960938 C 26.296875 24.664062 26.691406 24.546875 27.03125 24.683594 C 27.429688 24.863281 28.027344 25.140625 28.683594 25.578125 C 29.179688 25.917969 29.617188 26.214844 29.957031 26.453125 C 30.253906 26.992188 30.492188 27.371094 30.371094 27.925781 Z M 30.371094 27.925781 " fill-opacity="1" fill-rule="nonzero"/><path fill="#e95063" d="M 22.972656 0 C 10.285156 0 0 10.285156 0 22.972656 C 0 35.664062 10.285156 45.949219 22.972656 45.949219 C 35.664062 45.949219 45.949219 35.664062 45.949219 22.972656 C 45.925781 10.285156 35.644531 0 22.972656 0 Z M 23.449219 37.234375 C 20.984375 37.234375 18.578125 36.617188 16.429688 35.425781 L 8.96875 37.195312 L 10.941406 30.09375 C 9.605469 27.847656 8.910156 25.300781 8.910156 22.675781 C 8.910156 14.660156 15.433594 8.136719 23.449219 8.136719 C 31.46875 8.136719 37.992188 14.679688 37.992188 22.695312 C 37.992188 30.710938 31.46875 37.234375 23.449219 37.234375 Z M 23.449219 37.234375 " fill-opacity="1" fill-rule="nonzero"/></svg>