<svg xmlns="http://www.w3.org/2000/svg" xmlns:xlink="http://www.w3.org/1999/xlink" width="325" zoomAndPan="magnify" viewBox="0 0 243.75 347.999987" height="464" preserveAspectRatio="xMidYMid meet" version="1.0"><defs><clipPath id="babfed89fe"><path d="M 0 0.179688 L 242.75 0.179688 L 242.75 347.074219 L 0 347.074219 Z M 0 0.179688 " clip-rule="nonzero"/></clipPath></defs><g clip-path="url(#babfed89fe)"><path fill="#2c2824" d="M 121.523438 0.179688 C 54.425781 0.179688 0 54.605469 0 121.703125 C 0 212.84375 121.523438 347.386719 121.523438 347.386719 C 121.523438 347.386719 243.042969 212.84375 243.042969 121.703125 C 243.042969 54.605469 188.621094 0.179688 121.523438 0.179688 Z M 121.523438 165.101562 C 97.566406 165.101562 78.121094 145.660156 78.121094 121.703125 C 78.121094 97.746094 97.566406 78.300781 121.523438 78.300781 C 145.480469 78.300781 164.921875 97.746094 164.921875 121.703125 C 164.921875 145.660156 145.480469 165.101562 121.523438 165.101562 Z M 121.523438 165.101562 " fill-opacity="1" fill-rule="nonzero"/></g></svg>