<svg xmlns="http://www.w3.org/2000/svg" xmlns:xlink="http://www.w3.org/1999/xlink" width="400" zoomAndPan="magnify" viewBox="0 0 300 299.999988" height="400" preserveAspectRatio="xMidYMid meet" version="1.0"><defs><clipPath id="3801cba246"><path d="M 30.457031 47.070312 L 214 47.070312 L 214 255.433594 L 30.457031 255.433594 Z M 30.457031 47.070312 " clip-rule="nonzero"/></clipPath><clipPath id="fbc81dbae6"><path d="M 138.375 45.269531 L 265.453125 45.269531 L 265.453125 254.898438 L 138.375 254.898438 Z M 138.375 45.269531 " clip-rule="nonzero"/></clipPath></defs><path fill="#e94262" d="M 94.070312 118.332031 L 67.722656 118.332031 C 66.867188 118.464844 65.996094 118.257812 65.296875 117.746094 C 64.59375 117.238281 64.121094 116.472656 63.988281 115.621094 C 61.460938 107.867188 58.847656 100.117188 56.136719 92.457031 C 55.113281 89.5625 56.136719 88.722656 58.753906 89 C 61.371094 89.285156 62.867188 89 64.828125 89 L 111.535156 89 C 127.417969 89 143.398438 89 159.273438 89 C 160.933594 88.984375 162.566406 89.410156 164 90.230469 C 165.441406 91.050781 166.636719 92.242188 167.460938 93.675781 C 168.289062 95.117188 168.722656 96.746094 168.710938 98.398438 C 168.703125 100.058594 168.25 101.679688 167.402344 103.105469 C 159.273438 116.648438 150.214844 129.632812 140.871094 143.730469 C 137.695312 135.703125 134.894531 128.882812 132.183594 122.066406 C 131.527344 120.476562 131.25 118.703125 129.382812 117.957031 Z M 94.070312 118.332031 " fill-opacity="1" fill-rule="nonzero"/><g clip-path="url(#3801cba246)"><path fill="#e94262" d="M 39.695312 74.148438 C 39.875 74.976562 40.359375 75.703125 41.050781 76.191406 C 41.742188 76.671875 42.597656 76.878906 43.433594 76.769531 L 172.820312 76.769531 C 182.164062 76.769531 185.246094 80.410156 185.34375 89.46875 C 185.34375 94.324219 185.34375 98.808594 185.34375 104.132812 C 185.621094 107.890625 184.492188 111.621094 182.164062 114.589844 C 177.121094 121.410156 172.820312 128.503906 167.59375 135.417969 C 156.101562 150.644531 145.542969 166.425781 134.609375 182.117188 C 129.847656 188.75 125.273438 195.285156 120.410156 201.917969 C 107.988281 219.476562 95.5625 236.941406 83.042969 254.5 L 82.296875 255.433594 L 118.359375 255.433594 C 124.898438 245.160156 131.621094 234.980469 138.257812 224.703125 C 149.375 208.921875 159.933594 192.949219 170.207031 176.609375 C 170.207031 176.609375 170.953125 176.042969 171.144531 175.671875 C 184.84375 155.0625 198.546875 134.421875 212.246094 113.75 C 213.339844 112.191406 213.925781 110.332031 213.925781 108.429688 C 213.925781 90.773438 213.925781 73.027344 213.925781 55.375 C 211.914062 51.722656 208.566406 48.976562 204.585938 47.722656 L 33.253906 47.722656 C 30.820312 47.722656 30.167969 48.46875 31.007812 50.800781 C 34.460938 57.902344 36.988281 65.746094 39.695312 74.148438 Z M 39.695312 74.148438 " fill-opacity="1" fill-rule="nonzero"/></g><g clip-path="url(#fbc81dbae6)"><path fill="#e94262" d="M 265.03125 58.085938 C 264.496094 55.171875 263.070312 52.503906 260.941406 50.441406 C 258.816406 48.378906 256.097656 47.039062 253.167969 46.601562 C 247.320312 44.828125 241.078125 44.828125 235.226562 46.601562 L 235.226562 62.382812 C 235.226562 74.058594 235.226562 85.734375 235.226562 97.40625 C 235.652344 101.148438 235.316406 104.9375 234.242188 108.550781 C 233.164062 112.160156 231.371094 115.515625 228.972656 118.421875 C 226.980469 121.050781 225.203125 123.828125 223.648438 126.734375 C 220.511719 130.835938 217.699219 135.175781 215.234375 139.71875 C 204.308594 155.03125 194.027344 170.632812 184.128906 186.414062 C 183.175781 187.433594 182.304688 188.53125 181.511719 189.679688 C 167.1875 211.164062 152.925781 232.707031 138.726562 254.3125 L 172.820312 254.3125 C 177.308594 247.304688 182.164062 240.207031 186.183594 233.113281 C 190.199219 226.015625 196.457031 217.511719 201.503906 209.667969 C 210.007812 196.222656 218.320312 182.769531 226.820312 169.414062 C 239.277344 149.863281 251.734375 130.375 264.1875 110.949219 C 264.910156 109.703125 265.269531 108.28125 265.21875 106.839844 Z M 265.03125 58.085938 " fill-opacity="1" fill-rule="nonzero"/></g></svg>