<svg xmlns="http://www.w3.org/2000/svg" xmlns:xlink="http://www.w3.org/1999/xlink" width="400" zoomAndPan="magnify" viewBox="0 0 300 299.999988" height="400" preserveAspectRatio="xMidYMid meet" version="1.0"><defs><clipPath id="37d342046a"><path d="M 21.761719 21.761719 L 278.261719 21.761719 L 278.261719 278.261719 L 21.761719 278.261719 Z M 21.761719 21.761719 " clip-rule="nonzero"/></clipPath></defs><g clip-path="url(#37d342046a)"><path fill="#ffffff" d="M 149.996094 44.863281 C 184.230469 44.863281 188.292969 44.992188 201.8125 45.613281 C 215.789062 46.253906 230.183594 49.4375 240.367188 59.621094 C 250.644531 69.902344 253.734375 84.15625 254.375 98.175781 C 254.996094 111.695312 255.125 115.757812 255.125 149.996094 C 255.125 184.230469 254.996094 188.292969 254.375 201.8125 C 253.746094 215.714844 250.484375 230.246094 240.367188 240.367188 C 230.085938 250.644531 215.839844 253.734375 201.8125 254.375 C 188.292969 254.996094 184.230469 255.125 149.996094 255.125 C 115.757812 255.125 111.695312 254.996094 98.175781 254.375 C 84.382812 253.746094 69.65625 250.410156 59.621094 240.367188 C 49.394531 230.140625 46.253906 215.746094 45.613281 201.8125 C 44.992188 188.292969 44.863281 184.230469 44.863281 149.996094 C 44.863281 115.757812 44.992188 111.695312 45.613281 98.175781 C 46.242188 84.328125 49.535156 69.710938 59.621094 59.621094 C 69.882812 49.363281 84.191406 46.253906 98.175781 45.613281 C 111.695312 44.992188 115.757812 44.863281 149.996094 44.863281 M 149.996094 21.761719 C 115.167969 21.761719 110.796875 21.910156 97.121094 22.53125 C 77.296875 23.441406 57.613281 28.953125 43.285156 43.285156 C 28.898438 57.667969 23.441406 77.308594 22.53125 97.121094 C 21.910156 110.796875 21.761719 115.167969 21.761719 149.996094 C 21.761719 184.820312 21.910156 189.191406 22.53125 202.867188 C 23.441406 222.671875 28.976562 242.40625 43.285156 256.703125 C 57.65625 271.078125 77.328125 276.550781 97.121094 277.457031 C 110.796875 278.078125 115.167969 278.226562 149.996094 278.226562 C 184.820312 278.226562 189.191406 278.078125 202.867188 277.457031 C 222.679688 276.550781 242.386719 271.023438 256.703125 256.703125 C 271.097656 242.3125 276.550781 222.679688 277.457031 202.867188 C 278.078125 189.191406 278.226562 184.820312 278.226562 149.996094 C 278.226562 115.167969 278.078125 110.796875 277.457031 97.121094 C 276.550781 77.296875 271.023438 57.601562 256.703125 43.285156 C 242.355469 28.933594 222.628906 23.429688 202.867188 22.53125 C 189.191406 21.910156 184.820312 21.761719 149.996094 21.761719 Z M 149.996094 21.761719 " fill-opacity="1" fill-rule="nonzero"/></g><path fill="#ffffff" d="M 149.996094 84.148438 C 113.628906 84.148438 84.148438 113.628906 84.148438 149.996094 C 84.148438 186.359375 113.628906 215.839844 149.996094 215.839844 C 186.359375 215.839844 215.839844 186.359375 215.839844 149.996094 C 215.839844 113.628906 186.359375 84.148438 149.996094 84.148438 Z M 149.996094 192.738281 C 126.390625 192.738281 107.25 173.601562 107.25 149.996094 C 107.25 126.390625 126.390625 107.25 149.996094 107.25 C 173.601562 107.25 192.738281 126.390625 192.738281 149.996094 C 192.738281 173.601562 173.601562 192.738281 149.996094 192.738281 Z M 149.996094 192.738281 " fill-opacity="1" fill-rule="nonzero"/><path fill="#ffffff" d="M 233.835938 81.539062 C 233.835938 82.550781 233.738281 83.550781 233.542969 84.542969 C 233.34375 85.53125 233.050781 86.496094 232.664062 87.429688 C 232.277344 88.363281 231.804688 89.25 231.242188 90.089844 C 230.683594 90.929688 230.042969 91.707031 229.328125 92.421875 C 228.617188 93.136719 227.839844 93.773438 226.996094 94.335938 C 226.15625 94.894531 225.269531 95.371094 224.335938 95.757812 C 223.402344 96.144531 222.441406 96.433594 221.449219 96.632812 C 220.460938 96.828125 219.460938 96.925781 218.449219 96.925781 C 217.4375 96.925781 216.4375 96.828125 215.445312 96.632812 C 214.457031 96.433594 213.492188 96.144531 212.558594 95.757812 C 211.625 95.371094 210.738281 94.894531 209.898438 94.335938 C 209.058594 93.773438 208.28125 93.136719 207.566406 92.421875 C 206.855469 91.707031 206.214844 90.929688 205.65625 90.089844 C 205.09375 89.25 204.617188 88.363281 204.230469 87.429688 C 203.847656 86.496094 203.554688 85.53125 203.355469 84.542969 C 203.160156 83.550781 203.0625 82.550781 203.0625 81.539062 C 203.0625 80.527344 203.160156 79.527344 203.355469 78.539062 C 203.554688 77.546875 203.847656 76.585938 204.234375 75.652344 C 204.617188 74.71875 205.09375 73.832031 205.65625 72.992188 C 206.214844 72.148438 206.855469 71.375 207.566406 70.660156 C 208.28125 69.945312 209.058594 69.304688 209.898438 68.746094 C 210.738281 68.183594 211.625 67.710938 212.558594 67.324219 C 213.492188 66.9375 214.457031 66.644531 215.445312 66.449219 C 216.4375 66.25 217.4375 66.152344 218.449219 66.152344 C 219.460938 66.152344 220.460938 66.25 221.449219 66.449219 C 222.441406 66.644531 223.402344 66.9375 224.335938 67.324219 C 225.269531 67.710938 226.15625 68.183594 226.996094 68.746094 C 227.839844 69.304688 228.617188 69.945312 229.328125 70.660156 C 230.042969 71.375 230.683594 72.148438 231.242188 72.992188 C 231.804688 73.832031 232.277344 74.71875 232.664062 75.652344 C 233.050781 76.585938 233.34375 77.546875 233.542969 78.539062 C 233.738281 79.527344 233.835938 80.527344 233.835938 81.539062 Z M 233.835938 81.539062 " fill-opacity="1" fill-rule="nonzero"/></svg>