<svg xmlns="http://www.w3.org/2000/svg" xmlns:xlink="http://www.w3.org/1999/xlink" width="400" zoomAndPan="magnify" viewBox="0 0 300 299.999988" height="400" preserveAspectRatio="xMidYMid meet" version="1.0"><defs><clipPath id="007a89d0d7"><path d="M 21.246094 40 L 239 40 L 239 259 L 21.246094 259 Z M 21.246094 40 " clip-rule="nonzero"/></clipPath><clipPath id="c3a70c7c2b"><path d="M 249 229 L 278.496094 229 L 278.496094 260 L 249 260 Z M 249 229 " clip-rule="nonzero"/></clipPath></defs><path fill="#ffffff" d="M 268.035156 252.820312 L 270.472656 252.820312 L 265.804688 245.761719 C 268.65625 245.761719 270.171875 243.949219 270.191406 241.726562 C 270.191406 241.640625 270.191406 241.546875 270.179688 241.460938 C 270.179688 238.433594 268.355469 236.984375 264.613281 236.984375 L 258.5625 236.984375 L 258.5625 252.820312 L 260.835938 252.820312 L 260.835938 245.921875 L 263.636719 245.921875 Z M 263.476562 244.132812 L 260.835938 244.132812 L 260.835938 238.777344 L 264.183594 238.777344 C 265.910156 238.777344 267.886719 239.054688 267.886719 241.320312 C 267.886719 243.917969 265.890625 244.132812 263.464844 244.132812 " fill-opacity="1" fill-rule="nonzero"/><g clip-path="url(#007a89d0d7)"><path fill="#ffffff" d="M 206.761719 225.882812 L 174.5 225.882812 L 174.5 175.359375 C 174.5 163.308594 174.285156 147.804688 157.71875 147.804688 C 140.917969 147.804688 138.34375 160.929688 138.34375 174.488281 L 138.34375 225.882812 L 106.09375 225.882812 L 106.09375 121.980469 L 137.066406 121.980469 L 137.066406 136.175781 L 137.496094 136.175781 C 143.816406 125.382812 155.550781 118.933594 168.050781 119.394531 C 200.753906 119.394531 206.773438 140.90625 206.773438 168.878906 Z M 69.6875 107.777344 C 59.34375 107.777344 50.964844 99.398438 50.964844 89.054688 C 50.964844 78.710938 59.34375 70.332031 69.6875 70.332031 C 80.03125 70.332031 88.410156 78.710938 88.410156 89.054688 C 88.410156 99.398438 80.03125 107.777344 69.6875 107.777344 M 85.8125 225.882812 L 53.519531 225.882812 L 53.519531 121.980469 L 85.8125 121.980469 Z M 222.84375 40.375 L 37.308594 40.375 C 28.542969 40.28125 21.355469 47.308594 21.246094 56.074219 L 21.246094 242.371094 C 21.355469 251.148438 28.542969 258.175781 37.308594 258.078125 L 222.84375 258.078125 C 231.632812 258.1875 238.851562 251.160156 238.96875 242.371094 L 238.96875 56.0625 C 238.84375 47.277344 231.621094 40.246094 222.84375 40.367188 " fill-opacity="1" fill-rule="nonzero"/></g><g clip-path="url(#c3a70c7c2b)"><path fill="#ffffff" d="M 263.753906 229.9375 C 255.558594 230.011719 248.96875 236.726562 249.054688 244.925781 C 249.132812 253.121094 255.847656 259.710938 264.042969 259.625 C 272.242188 259.550781 278.828125 252.832031 278.742188 244.636719 C 278.667969 236.546875 272.125 230.011719 264.042969 229.9375 L 263.753906 229.9375 M 264.097656 257.917969 C 256.910156 258.035156 250.644531 252.316406 250.527344 245.128906 C 250.40625 237.941406 256.136719 232.019531 263.324219 231.898438 C 270.515625 231.78125 276.4375 237.511719 276.554688 244.699219 C 276.554688 244.773438 276.554688 244.839844 276.554688 244.914062 C 276.703125 251.941406 271.125 257.769531 264.097656 257.917969 L 263.765625 257.917969 " fill-opacity="1" fill-rule="nonzero"/></g></svg>