<svg xmlns="http://www.w3.org/2000/svg" xmlns:xlink="http://www.w3.org/1999/xlink" width="40" zoomAndPan="magnify" viewBox="0 0 30 30.000001" height="40" preserveAspectRatio="xMidYMid meet" version="1.0"><defs><clipPath id="cfc8ed8a6a"><path d="M 1.933594 1.453125 L 28.066406 1.453125 L 28.066406 27.582031 L 1.933594 27.582031 Z M 1.933594 1.453125 " clip-rule="nonzero"/></clipPath></defs><g clip-path="url(#cfc8ed8a6a)"><path fill="#ffffff" d="M 27.742188 20.632812 C 27.933594 21.144531 28.042969 21.691406 28.058594 22.261719 C 28.0625 22.316406 28.0625 22.371094 28.0625 22.429688 C 28.0625 25.273438 25.757812 27.582031 22.914062 27.582031 C 11.328125 27.582031 1.933594 18.1875 1.933594 6.605469 C 1.933594 3.757812 4.242188 1.453125 7.085938 1.453125 C 7.144531 1.453125 7.199219 1.453125 7.253906 1.457031 C 7.824219 1.472656 8.375 1.582031 8.886719 1.773438 L 10.820312 10.148438 C 10.820312 10.152344 10.816406 10.15625 10.8125 10.15625 L 7.265625 11.75 L 7.253906 11.753906 C 8.882812 16.710938 12.804688 20.632812 17.761719 22.261719 L 17.765625 22.25 L 19.359375 18.699219 L 27.742188 20.632812 " fill-opacity="1" fill-rule="nonzero"/></g></svg>