<svg xmlns="http://www.w3.org/2000/svg" xmlns:xlink="http://www.w3.org/1999/xlink" width="117" zoomAndPan="magnify" viewBox="0 0 87.75 309.74999" height="413" preserveAspectRatio="xMidYMid meet" version="1.0"><defs><clipPath id="39eb3403fc"><path d="M 27 0.316406 L 56 0.316406 L 56 29 L 27 29 Z M 27 0.316406 " clip-rule="nonzero"/></clipPath><clipPath id="a308868234"><path d="M 15.710938 89.117188 L 49.222656 89.117188 L 49.222656 108.011719 L 15.710938 108.011719 Z M 15.710938 89.117188 " clip-rule="nonzero"/></clipPath></defs><path fill="#9d94d7" d="M 83.429688 27.390625 L 83.429688 52.464844 C 83.429688 52.648438 83.394531 52.824219 83.324219 52.992188 C 83.253906 53.160156 83.15625 53.3125 83.023438 53.441406 C 82.894531 53.570312 82.746094 53.667969 82.578125 53.738281 C 82.410156 53.808594 82.234375 53.84375 82.050781 53.84375 L 56.996094 53.84375 C 56.8125 53.84375 56.636719 53.808594 56.46875 53.738281 C 56.300781 53.667969 56.152344 53.570312 56.023438 53.441406 C 55.894531 53.3125 55.792969 53.160156 55.722656 52.992188 C 55.65625 52.824219 55.621094 52.648438 55.621094 52.464844 L 55.621094 27.390625 C 55.621094 27.207031 55.65625 27.03125 55.722656 26.863281 C 55.792969 26.691406 55.894531 26.542969 56.023438 26.414062 C 56.152344 26.285156 56.300781 26.1875 56.46875 26.117188 C 56.636719 26.046875 56.8125 26.011719 56.996094 26.011719 L 82.050781 26.011719 C 82.234375 26.011719 82.410156 26.046875 82.578125 26.117188 C 82.746094 26.1875 82.894531 26.285156 83.023438 26.414062 C 83.15625 26.542969 83.253906 26.691406 83.324219 26.863281 C 83.394531 27.03125 83.429688 27.207031 83.429688 27.390625 Z M 83.429688 27.390625 " fill-opacity="1" fill-rule="nonzero"/><path fill="#e95063" d="M 83.425781 113.417969 L 83.425781 138.492188 C 83.425781 138.675781 83.390625 138.851562 83.324219 139.019531 C 83.253906 139.191406 83.152344 139.339844 83.023438 139.46875 C 82.894531 139.597656 82.746094 139.699219 82.578125 139.765625 C 82.410156 139.835938 82.234375 139.871094 82.050781 139.871094 L 56.996094 139.871094 C 56.8125 139.871094 56.636719 139.835938 56.46875 139.765625 C 56.300781 139.699219 56.152344 139.597656 56.023438 139.46875 C 55.890625 139.339844 55.792969 139.191406 55.722656 139.019531 C 55.652344 138.851562 55.617188 138.675781 55.617188 138.492188 L 55.617188 113.417969 C 55.617188 113.234375 55.652344 113.058594 55.722656 112.890625 C 55.792969 112.722656 55.890625 112.574219 56.023438 112.441406 C 56.152344 112.3125 56.300781 112.214844 56.46875 112.144531 C 56.636719 112.074219 56.8125 112.039062 56.996094 112.039062 L 82.050781 112.039062 C 82.234375 112.039062 82.410156 112.074219 82.578125 112.144531 C 82.746094 112.214844 82.894531 112.3125 83.023438 112.441406 C 83.152344 112.574219 83.253906 112.722656 83.324219 112.890625 C 83.390625 113.058594 83.425781 113.234375 83.425781 113.417969 Z M 83.425781 113.417969 " fill-opacity="1" fill-rule="nonzero"/><path fill="#9d94d7" d="M 55.617188 141.253906 L 55.617188 166.328125 C 55.617188 166.511719 55.582031 166.6875 55.511719 166.855469 C 55.445312 167.027344 55.34375 167.175781 55.214844 167.304688 C 55.085938 167.433594 54.9375 167.53125 54.769531 167.601562 C 54.597656 167.671875 54.421875 167.707031 54.242188 167.707031 L 29.1875 167.707031 C 29.003906 167.707031 28.828125 167.671875 28.660156 167.601562 C 28.492188 167.53125 28.339844 167.433594 28.210938 167.304688 C 28.082031 167.175781 27.984375 167.027344 27.914062 166.855469 C 27.84375 166.6875 27.808594 166.511719 27.808594 166.328125 L 27.808594 141.253906 C 27.808594 141.070312 27.84375 140.894531 27.914062 140.726562 C 27.984375 140.558594 28.082031 140.40625 28.210938 140.277344 C 28.339844 140.148438 28.492188 140.050781 28.660156 139.980469 C 28.828125 139.910156 29.003906 139.875 29.1875 139.875 L 54.242188 139.875 C 54.421875 139.875 54.597656 139.910156 54.769531 139.980469 C 54.9375 140.050781 55.085938 140.148438 55.214844 140.277344 C 55.34375 140.40625 55.445312 140.558594 55.511719 140.726562 C 55.582031 140.894531 55.617188 141.070312 55.617188 141.253906 Z M 55.617188 141.253906 " fill-opacity="1" fill-rule="nonzero"/><path fill="#9d94d7" d="M 83.425781 169.085938 L 83.425781 194.160156 C 83.425781 194.34375 83.390625 194.519531 83.324219 194.6875 C 83.253906 194.855469 83.152344 195.007812 83.023438 195.136719 C 82.894531 195.265625 82.746094 195.363281 82.578125 195.433594 C 82.410156 195.503906 82.234375 195.539062 82.050781 195.539062 L 56.996094 195.539062 C 56.8125 195.539062 56.636719 195.503906 56.46875 195.433594 C 56.300781 195.363281 56.152344 195.265625 56.023438 195.136719 C 55.890625 195.007812 55.792969 194.855469 55.722656 194.6875 C 55.652344 194.519531 55.617188 194.34375 55.617188 194.160156 L 55.617188 169.085938 C 55.617188 168.902344 55.652344 168.726562 55.722656 168.558594 C 55.792969 168.386719 55.890625 168.238281 56.023438 168.109375 C 56.152344 167.980469 56.300781 167.882812 56.46875 167.8125 C 56.636719 167.742188 56.8125 167.707031 56.996094 167.707031 L 82.050781 167.707031 C 82.234375 167.707031 82.410156 167.742188 82.578125 167.8125 C 82.746094 167.882812 82.894531 167.980469 83.023438 168.109375 C 83.152344 168.238281 83.253906 168.386719 83.324219 168.558594 C 83.390625 168.726562 83.425781 168.902344 83.425781 169.085938 Z M 83.425781 169.085938 " fill-opacity="1" fill-rule="nonzero"/><path fill="#e95063" d="M 55.617188 196.917969 L 55.617188 221.996094 C 55.617188 222.179688 55.582031 222.355469 55.511719 222.523438 C 55.445312 222.691406 55.34375 222.839844 55.214844 222.96875 C 55.085938 223.097656 54.9375 223.199219 54.769531 223.269531 C 54.597656 223.339844 54.421875 223.375 54.242188 223.375 L 29.1875 223.375 C 29.003906 223.375 28.828125 223.339844 28.660156 223.269531 C 28.492188 223.199219 28.339844 223.097656 28.210938 222.96875 C 28.082031 222.839844 27.984375 222.691406 27.914062 222.523438 C 27.84375 222.355469 27.808594 222.179688 27.808594 221.996094 L 27.808594 196.917969 C 27.808594 196.734375 27.84375 196.558594 27.914062 196.390625 C 27.984375 196.222656 28.082031 196.074219 28.210938 195.945312 C 28.339844 195.816406 28.492188 195.714844 28.660156 195.644531 C 28.828125 195.574219 29.003906 195.539062 29.1875 195.539062 L 54.242188 195.539062 C 54.421875 195.539062 54.597656 195.574219 54.769531 195.644531 C 54.9375 195.714844 55.085938 195.816406 55.214844 195.945312 C 55.34375 196.074219 55.445312 196.222656 55.511719 196.390625 C 55.582031 196.558594 55.617188 196.734375 55.617188 196.917969 Z M 55.617188 196.917969 " fill-opacity="1" fill-rule="nonzero"/><path fill="#9d94d7" d="M 85.957031 224.75 L 85.957031 249.828125 C 85.957031 250.011719 85.921875 250.1875 85.851562 250.355469 C 85.78125 250.523438 85.683594 250.671875 85.554688 250.800781 C 85.425781 250.929688 85.277344 251.03125 85.105469 251.101562 C 84.9375 251.171875 84.761719 251.207031 84.578125 251.207031 L 59.523438 251.207031 C 59.34375 251.207031 59.167969 251.171875 58.996094 251.101562 C 58.828125 251.03125 58.679688 250.929688 58.550781 250.800781 C 58.421875 250.671875 58.324219 250.523438 58.253906 250.355469 C 58.183594 250.1875 58.148438 250.011719 58.148438 249.828125 L 58.148438 224.75 C 58.148438 224.570312 58.183594 224.394531 58.253906 224.222656 C 58.324219 224.054688 58.421875 223.90625 58.550781 223.777344 C 58.679688 223.648438 58.828125 223.546875 58.996094 223.476562 C 59.167969 223.40625 59.34375 223.375 59.523438 223.375 L 84.578125 223.375 C 84.761719 223.375 84.9375 223.40625 85.105469 223.476562 C 85.277344 223.546875 85.425781 223.648438 85.554688 223.777344 C 85.683594 223.90625 85.78125 224.054688 85.851562 224.222656 C 85.921875 224.394531 85.957031 224.570312 85.957031 224.75 Z M 85.957031 224.75 " fill-opacity="1" fill-rule="nonzero"/><path fill="#9d94d7" d="M 55.617188 252.585938 L 55.617188 277.660156 C 55.617188 277.84375 55.582031 278.019531 55.511719 278.1875 C 55.445312 278.359375 55.34375 278.507812 55.214844 278.636719 C 55.085938 278.765625 54.9375 278.863281 54.769531 278.933594 C 54.597656 279.003906 54.421875 279.039062 54.242188 279.039062 L 29.1875 279.039062 C 29.003906 279.039062 28.828125 279.003906 28.660156 278.933594 C 28.492188 278.863281 28.339844 278.765625 28.210938 278.636719 C 28.082031 278.507812 27.984375 278.359375 27.914062 278.1875 C 27.84375 278.019531 27.808594 277.84375 27.808594 277.660156 L 27.808594 252.585938 C 27.808594 252.402344 27.84375 252.226562 27.914062 252.058594 C 27.984375 251.890625 28.082031 251.738281 28.210938 251.609375 C 28.339844 251.480469 28.492188 251.382812 28.660156 251.3125 C 28.828125 251.242188 29.003906 251.207031 29.1875 251.207031 L 54.242188 251.207031 C 54.421875 251.207031 54.597656 251.242188 54.769531 251.3125 C 54.9375 251.382812 55.085938 251.480469 55.214844 251.609375 C 55.34375 251.738281 55.445312 251.890625 55.511719 252.058594 C 55.582031 252.226562 55.617188 252.402344 55.617188 252.585938 Z M 55.617188 252.585938 " fill-opacity="1" fill-rule="nonzero"/><path fill="#9d94d7" d="M 83.425781 280.417969 L 83.425781 305.492188 C 83.425781 305.675781 83.390625 305.851562 83.324219 306.019531 C 83.253906 306.191406 83.152344 306.339844 83.023438 306.46875 C 82.894531 306.597656 82.746094 306.695312 82.578125 306.765625 C 82.410156 306.835938 82.234375 306.871094 82.050781 306.871094 L 56.996094 306.871094 C 56.8125 306.871094 56.636719 306.835938 56.46875 306.765625 C 56.300781 306.695312 56.152344 306.597656 56.023438 306.46875 C 55.890625 306.339844 55.792969 306.191406 55.722656 306.019531 C 55.652344 305.851562 55.617188 305.675781 55.617188 305.492188 L 55.617188 280.417969 C 55.617188 280.234375 55.652344 280.058594 55.722656 279.890625 C 55.792969 279.71875 55.890625 279.570312 56.023438 279.441406 C 56.152344 279.3125 56.300781 279.214844 56.46875 279.144531 C 56.636719 279.074219 56.8125 279.039062 56.996094 279.039062 L 82.050781 279.039062 C 82.234375 279.039062 82.410156 279.074219 82.578125 279.144531 C 82.746094 279.214844 82.894531 279.3125 83.023438 279.441406 C 83.152344 279.570312 83.253906 279.71875 83.324219 279.890625 C 83.390625 280.058594 83.425781 280.234375 83.425781 280.417969 Z M 83.425781 280.417969 " fill-opacity="1" fill-rule="nonzero"/><path fill="#e95063" d="M 27.808594 280.417969 L 27.808594 305.492188 C 27.808594 305.675781 27.773438 305.851562 27.703125 306.019531 C 27.632812 306.191406 27.535156 306.339844 27.40625 306.46875 C 27.277344 306.597656 27.128906 306.695312 26.960938 306.765625 C 26.789062 306.835938 26.613281 306.871094 26.433594 306.871094 L 1.378906 306.871094 C 1.195312 306.871094 1.019531 306.835938 0.851562 306.765625 C 0.679688 306.695312 0.53125 306.597656 0.402344 306.46875 C 0.273438 306.339844 0.175781 306.191406 0.105469 306.019531 C 0.0351562 305.851562 0 305.675781 0 305.492188 L 0 280.417969 C 0 280.234375 0.0351562 280.058594 0.105469 279.890625 C 0.175781 279.71875 0.273438 279.570312 0.402344 279.441406 C 0.53125 279.3125 0.679688 279.214844 0.851562 279.144531 C 1.019531 279.074219 1.195312 279.039062 1.378906 279.039062 L 26.433594 279.039062 C 26.613281 279.039062 26.789062 279.074219 26.960938 279.144531 C 27.128906 279.214844 27.277344 279.3125 27.40625 279.441406 C 27.535156 279.570312 27.632812 279.71875 27.703125 279.890625 C 27.773438 280.058594 27.808594 280.234375 27.808594 280.417969 Z M 27.808594 280.417969 " fill-opacity="1" fill-rule="nonzero"/><path fill="#9d94d7" d="M 27.808594 224.75 L 27.808594 249.828125 C 27.808594 250.011719 27.773438 250.1875 27.703125 250.355469 C 27.632812 250.523438 27.535156 250.671875 27.40625 250.800781 C 27.277344 250.929688 27.128906 251.03125 26.960938 251.101562 C 26.789062 251.171875 26.613281 251.207031 26.433594 251.207031 L 1.378906 251.207031 C 1.195312 251.207031 1.019531 251.171875 0.851562 251.101562 C 0.679688 251.03125 0.53125 250.929688 0.402344 250.800781 C 0.273438 250.671875 0.175781 250.523438 0.105469 250.355469 C 0.0351562 250.1875 0 250.011719 0 249.828125 L 0 224.75 C 0 224.570312 0.0351562 224.394531 0.105469 224.222656 C 0.175781 224.054688 0.273438 223.90625 0.402344 223.777344 C 0.53125 223.648438 0.679688 223.546875 0.851562 223.476562 C 1.019531 223.40625 1.195312 223.375 1.378906 223.375 L 26.433594 223.375 C 26.613281 223.375 26.789062 223.40625 26.960938 223.476562 C 27.128906 223.546875 27.277344 223.648438 27.40625 223.777344 C 27.535156 223.90625 27.632812 224.054688 27.703125 224.222656 C 27.773438 224.394531 27.808594 224.570312 27.808594 224.75 Z M 27.808594 224.75 " fill-opacity="1" fill-rule="nonzero"/><path fill="#9d94d7" d="M 55.617188 85.585938 L 55.617188 110.664062 C 55.617188 110.84375 55.582031 111.019531 55.511719 111.191406 C 55.445312 111.359375 55.34375 111.507812 55.214844 111.636719 C 55.085938 111.765625 54.9375 111.867188 54.769531 111.9375 C 54.597656 112.007812 54.421875 112.039062 54.242188 112.039062 L 1.375 112.039062 C 1.191406 112.039062 1.015625 112.007812 0.847656 111.9375 C 0.679688 111.867188 0.53125 111.765625 0.402344 111.636719 C 0.273438 111.507812 0.171875 111.359375 0.101562 111.191406 C 0.0351562 111.019531 0 110.84375 0 110.664062 L 0 85.585938 C 0 85.402344 0.0351562 85.226562 0.101562 85.058594 C 0.171875 84.890625 0.273438 84.742188 0.402344 84.613281 C 0.53125 84.484375 0.679688 84.382812 0.847656 84.3125 C 1.015625 84.242188 1.191406 84.207031 1.375 84.207031 L 54.242188 84.207031 C 54.421875 84.207031 54.597656 84.242188 54.769531 84.3125 C 54.9375 84.382812 55.085938 84.484375 55.214844 84.613281 C 55.34375 84.742188 55.445312 84.890625 55.511719 85.058594 C 55.582031 85.226562 55.617188 85.402344 55.617188 85.585938 Z M 55.617188 85.585938 " fill-opacity="1" fill-rule="nonzero"/><g clip-path="url(#39eb3403fc)"><path fill="#9d94d7" d="M 55.617188 2.085938 L 55.617188 27.164062 C 55.617188 27.347656 55.582031 27.523438 55.511719 27.691406 C 55.445312 27.859375 55.34375 28.007812 55.214844 28.136719 C 55.085938 28.265625 54.9375 28.367188 54.769531 28.4375 C 54.597656 28.507812 54.421875 28.542969 54.242188 28.542969 L 29.1875 28.542969 C 29.003906 28.542969 28.828125 28.507812 28.660156 28.4375 C 28.492188 28.367188 28.339844 28.265625 28.210938 28.136719 C 28.082031 28.007812 27.984375 27.859375 27.914062 27.691406 C 27.84375 27.523438 27.808594 27.347656 27.808594 27.164062 L 27.808594 2.085938 C 27.808594 1.902344 27.84375 1.726562 27.914062 1.558594 C 27.984375 1.390625 28.082031 1.242188 28.210938 1.113281 C 28.339844 0.984375 28.492188 0.882812 28.660156 0.8125 C 28.828125 0.742188 29.003906 0.707031 29.1875 0.707031 L 54.242188 0.707031 C 54.421875 0.707031 54.597656 0.742188 54.769531 0.8125 C 54.9375 0.882812 55.085938 0.984375 55.214844 1.113281 C 55.34375 1.242188 55.445312 1.390625 55.511719 1.558594 C 55.582031 1.726562 55.617188 1.902344 55.617188 2.085938 Z M 55.617188 2.085938 " fill-opacity="1" fill-rule="nonzero"/></g><path fill="#e95063" d="M 27.808594 29.917969 L 27.808594 54.996094 C 27.808594 55.175781 27.773438 55.351562 27.703125 55.523438 C 27.632812 55.691406 27.535156 55.839844 27.40625 55.96875 C 27.277344 56.097656 27.128906 56.199219 26.960938 56.269531 C 26.789062 56.335938 26.613281 56.371094 26.433594 56.371094 L 1.378906 56.371094 C 1.195312 56.371094 1.019531 56.335938 0.851562 56.269531 C 0.679688 56.199219 0.53125 56.097656 0.402344 55.96875 C 0.273438 55.839844 0.175781 55.691406 0.105469 55.523438 C 0.0351562 55.351562 0 55.175781 0 54.996094 L 0 29.917969 C 0 29.734375 0.0351562 29.558594 0.105469 29.390625 C 0.175781 29.222656 0.273438 29.074219 0.402344 28.945312 C 0.53125 28.8125 0.679688 28.714844 0.851562 28.644531 C 1.019531 28.574219 1.195312 28.539062 1.378906 28.539062 L 26.433594 28.539062 C 26.613281 28.539062 26.789062 28.574219 26.960938 28.644531 C 27.128906 28.714844 27.277344 28.8125 27.40625 28.945312 C 27.535156 29.074219 27.632812 29.222656 27.703125 29.390625 C 27.773438 29.558594 27.808594 29.734375 27.808594 29.917969 Z M 27.808594 29.917969 " fill-opacity="1" fill-rule="nonzero"/><g clip-path="url(#a308868234)"><path fill="#9d94d7" d="M 15.710938 89.117188 L 49.21875 89.117188 L 49.21875 108.011719 L 15.710938 108.011719 Z M 15.710938 89.117188 " fill-opacity="1" fill-rule="nonzero"/></g></svg>