<svg xmlns="http://www.w3.org/2000/svg" xmlns:xlink="http://www.w3.org/1999/xlink" width="646" zoomAndPan="magnify" viewBox="0 0 484.5 237" height="316" preserveAspectRatio="xMidYMid meet" version="1.0"><defs><clipPath id="d51153e850"><path d="M 2 221 L 19 221 L 19 236.691406 L 2 236.691406 Z M 2 221 " clip-rule="nonzero"/></clipPath><clipPath id="4f8a2cdd7d"><path d="M 80 221 L 96 221 L 96 236.691406 L 80 236.691406 Z M 80 221 " clip-rule="nonzero"/></clipPath><clipPath id="1dc719befb"><path d="M 157 221 L 174 221 L 174 236.691406 L 157 236.691406 Z M 157 221 " clip-rule="nonzero"/></clipPath><clipPath id="bb29772d3d"><path d="M 235 221 L 251 221 L 251 236.691406 L 235 236.691406 Z M 235 221 " clip-rule="nonzero"/></clipPath><clipPath id="bd3f610922"><path d="M 312 221 L 329 221 L 329 236.691406 L 312 236.691406 Z M 312 221 " clip-rule="nonzero"/></clipPath><clipPath id="a02bb39dd5"><path d="M 390 221 L 406 221 L 406 236.691406 L 390 236.691406 Z M 390 221 " clip-rule="nonzero"/></clipPath><clipPath id="1d8e962311"><path d="M 467 221 L 484 221 L 484 236.691406 L 467 236.691406 Z M 467 221 " clip-rule="nonzero"/></clipPath><clipPath id="6624d1fa96"><path d="M 2 0.121094 L 19 0.121094 L 19 16 L 2 16 Z M 2 0.121094 " clip-rule="nonzero"/></clipPath><clipPath id="467183fdd5"><path d="M 80 0.121094 L 96 0.121094 L 96 16 L 80 16 Z M 80 0.121094 " clip-rule="nonzero"/></clipPath><clipPath id="fff1d10738"><path d="M 157 0.121094 L 174 0.121094 L 174 16 L 157 16 Z M 157 0.121094 " clip-rule="nonzero"/></clipPath><clipPath id="ecb744c445"><path d="M 235 0.121094 L 251 0.121094 L 251 16 L 235 16 Z M 235 0.121094 " clip-rule="nonzero"/></clipPath><clipPath id="e5cbe5aec5"><path d="M 312 0.121094 L 329 0.121094 L 329 16 L 312 16 Z M 312 0.121094 " clip-rule="nonzero"/></clipPath><clipPath id="6e057d1ee7"><path d="M 390 0.121094 L 406 0.121094 L 406 16 L 390 16 Z M 390 0.121094 " clip-rule="nonzero"/></clipPath><clipPath id="699b9d7de5"><path d="M 467 0.121094 L 484 0.121094 L 484 16 L 467 16 Z M 467 0.121094 " clip-rule="nonzero"/></clipPath></defs><g clip-path="url(#d51153e850)"><path fill="#ffffff" d="M 10.304688 221.386719 C 14.605469 221.386719 18.046875 224.828125 18.046875 228.953125 C 18.046875 233.082031 14.605469 236.519531 10.304688 236.519531 C 6.003906 236.519531 2.734375 233.082031 2.734375 228.953125 C 2.734375 224.828125 6.175781 221.386719 10.304688 221.386719 Z M 10.304688 221.386719 " fill-opacity="1" fill-rule="nonzero"/></g><g clip-path="url(#4f8a2cdd7d)"><path fill="#ffffff" d="M 87.898438 221.386719 C 92.199219 221.386719 95.46875 224.828125 95.46875 228.953125 C 95.46875 233.082031 92.027344 236.519531 87.898438 236.519531 C 83.769531 236.519531 80.15625 233.082031 80.15625 228.953125 C 80.15625 224.828125 83.597656 221.386719 87.898438 221.386719 Z M 87.898438 221.386719 " fill-opacity="1" fill-rule="nonzero"/></g><g clip-path="url(#1dc719befb)"><path fill="#ffffff" d="M 173.0625 229.125 C 173.0625 224.949219 169.675781 221.558594 165.492188 221.558594 C 161.3125 221.558594 157.921875 224.949219 157.921875 229.125 C 157.921875 233.304688 161.3125 236.691406 165.492188 236.691406 C 169.675781 236.691406 173.0625 233.304688 173.0625 229.125 Z M 173.0625 229.125 " fill-opacity="1" fill-rule="nonzero"/></g><g clip-path="url(#bb29772d3d)"><path fill="#ffffff" d="M 250.488281 229.125 C 250.488281 224.949219 247.097656 221.558594 242.917969 221.558594 C 238.738281 221.558594 235.347656 224.949219 235.347656 229.125 C 235.347656 233.304688 238.738281 236.691406 242.917969 236.691406 C 247.097656 236.691406 250.488281 233.304688 250.488281 229.125 Z M 250.488281 229.125 " fill-opacity="1" fill-rule="nonzero"/></g><g clip-path="url(#bd3f610922)"><path fill="#ffffff" d="M 320.511719 221.386719 C 324.8125 221.386719 328.253906 224.828125 328.253906 228.953125 C 328.253906 233.082031 324.8125 236.519531 320.511719 236.519531 C 316.210938 236.519531 312.769531 233.082031 312.769531 228.953125 C 312.769531 224.828125 316.210938 221.386719 320.511719 221.386719 Z M 320.511719 221.386719 " fill-opacity="1" fill-rule="nonzero"/></g><g clip-path="url(#a02bb39dd5)"><path fill="#ffffff" d="M 397.9375 221.386719 C 402.238281 221.386719 405.679688 224.828125 405.679688 228.953125 C 405.679688 233.082031 402.238281 236.519531 397.9375 236.519531 C 393.636719 236.519531 390.367188 233.082031 390.367188 228.953125 C 390.367188 224.828125 393.808594 221.386719 397.9375 221.386719 Z M 397.9375 221.386719 " fill-opacity="1" fill-rule="nonzero"/></g><g clip-path="url(#1d8e962311)"><path fill="#ffffff" d="M 475.53125 221.386719 C 479.832031 221.386719 483.101562 224.828125 483.101562 228.953125 C 483.101562 233.082031 479.660156 236.519531 475.53125 236.519531 C 471.402344 236.519531 467.789062 233.082031 467.789062 228.953125 C 467.789062 224.828125 471.230469 221.386719 475.53125 221.386719 Z M 475.53125 221.386719 " fill-opacity="1" fill-rule="nonzero"/></g><path fill="#ffffff" d="M 10.304688 147.800781 C 14.605469 147.800781 18.046875 151.238281 18.046875 155.363281 C 18.046875 159.492188 14.605469 163.101562 10.304688 163.101562 C 6.003906 163.101562 2.734375 159.664062 2.734375 155.363281 C 2.734375 151.066406 6.175781 147.800781 10.304688 147.800781 Z M 10.304688 147.800781 " fill-opacity="1" fill-rule="nonzero"/><path fill="#ffffff" d="M 87.898438 147.800781 C 92.199219 147.800781 95.46875 151.238281 95.46875 155.363281 C 95.46875 159.492188 92.027344 163.101562 87.898438 163.101562 C 83.769531 163.101562 80.15625 159.664062 80.15625 155.363281 C 80.15625 151.066406 83.597656 147.800781 87.898438 147.800781 Z M 87.898438 147.800781 " fill-opacity="1" fill-rule="nonzero"/><path fill="#ffffff" d="M 165.492188 147.800781 C 169.796875 147.800781 173.0625 151.238281 173.0625 155.363281 C 173.0625 159.492188 169.625 163.101562 165.492188 163.101562 C 161.363281 163.101562 157.921875 159.664062 157.921875 155.363281 C 157.921875 151.066406 161.363281 147.800781 165.492188 147.800781 Z M 165.492188 147.800781 " fill-opacity="1" fill-rule="nonzero"/><path fill="#ffffff" d="M 242.917969 147.800781 C 247.21875 147.800781 250.488281 151.238281 250.488281 155.363281 C 250.488281 159.492188 247.046875 163.101562 242.917969 163.101562 C 238.789062 163.101562 235.175781 159.664062 235.175781 155.363281 C 235.175781 151.066406 238.617188 147.800781 242.917969 147.800781 Z M 242.917969 147.800781 " fill-opacity="1" fill-rule="nonzero"/><path fill="#ffffff" d="M 320.511719 147.800781 C 324.8125 147.800781 328.253906 151.238281 328.253906 155.363281 C 328.253906 159.492188 324.8125 163.101562 320.511719 163.101562 C 316.210938 163.101562 312.769531 159.664062 312.769531 155.363281 C 312.769531 151.066406 316.210938 147.800781 320.511719 147.800781 Z M 320.511719 147.800781 " fill-opacity="1" fill-rule="nonzero"/><path fill="#ffffff" d="M 397.9375 147.800781 C 402.238281 147.800781 405.679688 151.238281 405.679688 155.363281 C 405.679688 159.492188 402.238281 163.101562 397.9375 163.101562 C 393.636719 163.101562 390.367188 159.664062 390.367188 155.363281 C 390.367188 151.066406 393.808594 147.800781 397.9375 147.800781 Z M 397.9375 147.800781 " fill-opacity="1" fill-rule="nonzero"/><path fill="#ffffff" d="M 475.53125 147.800781 C 479.832031 147.800781 483.101562 151.238281 483.101562 155.363281 C 483.101562 159.492188 479.660156 163.101562 475.53125 163.101562 C 471.402344 163.101562 467.789062 159.664062 467.789062 155.363281 C 467.789062 151.066406 471.230469 147.800781 475.53125 147.800781 Z M 475.53125 147.800781 " fill-opacity="1" fill-rule="nonzero"/><path fill="#ffffff" d="M 10.304688 74.210938 C 14.605469 74.210938 18.046875 77.648438 18.046875 81.773438 C 18.046875 85.902344 14.605469 89.511719 10.304688 89.511719 C 6.003906 89.511719 2.734375 86.074219 2.734375 81.773438 C 2.734375 77.476562 6.175781 74.210938 10.304688 74.210938 Z M 10.304688 74.210938 " fill-opacity="1" fill-rule="nonzero"/><path fill="#ffffff" d="M 87.898438 74.210938 C 92.199219 74.210938 95.46875 77.648438 95.46875 81.773438 C 95.46875 85.902344 92.027344 89.511719 87.898438 89.511719 C 83.769531 89.511719 80.15625 86.074219 80.15625 81.773438 C 80.15625 77.476562 83.597656 74.210938 87.898438 74.210938 Z M 87.898438 74.210938 " fill-opacity="1" fill-rule="nonzero"/><path fill="#ffffff" d="M 165.492188 74.210938 C 169.796875 74.210938 173.0625 77.648438 173.0625 81.773438 C 173.0625 85.902344 169.625 89.511719 165.492188 89.511719 C 161.363281 89.511719 157.921875 86.074219 157.921875 81.773438 C 157.921875 77.476562 161.363281 74.210938 165.492188 74.210938 Z M 165.492188 74.210938 " fill-opacity="1" fill-rule="nonzero"/><path fill="#ffffff" d="M 242.917969 74.210938 C 247.21875 74.210938 250.488281 77.648438 250.488281 81.773438 C 250.488281 85.902344 247.046875 89.511719 242.917969 89.511719 C 238.789062 89.511719 235.175781 86.074219 235.175781 81.773438 C 235.175781 77.476562 238.617188 74.210938 242.917969 74.210938 Z M 242.917969 74.210938 " fill-opacity="1" fill-rule="nonzero"/><path fill="#ffffff" d="M 320.511719 74.210938 C 324.8125 74.210938 328.253906 77.648438 328.253906 81.773438 C 328.253906 85.902344 324.8125 89.511719 320.511719 89.511719 C 316.210938 89.511719 312.769531 86.074219 312.769531 81.773438 C 312.769531 77.476562 316.210938 74.210938 320.511719 74.210938 Z M 320.511719 74.210938 " fill-opacity="1" fill-rule="nonzero"/><path fill="#ffffff" d="M 397.9375 74.210938 C 402.238281 74.210938 405.679688 77.648438 405.679688 81.773438 C 405.679688 85.902344 402.238281 89.511719 397.9375 89.511719 C 393.636719 89.511719 390.367188 86.074219 390.367188 81.773438 C 390.367188 77.476562 393.808594 74.210938 397.9375 74.210938 Z M 397.9375 74.210938 " fill-opacity="1" fill-rule="nonzero"/><path fill="#ffffff" d="M 475.53125 74.210938 C 479.832031 74.210938 483.101562 77.648438 483.101562 81.773438 C 483.101562 85.902344 479.660156 89.511719 475.53125 89.511719 C 471.402344 89.511719 467.789062 86.074219 467.789062 81.773438 C 467.789062 77.476562 471.230469 74.210938 475.53125 74.210938 Z M 475.53125 74.210938 " fill-opacity="1" fill-rule="nonzero"/><g clip-path="url(#6624d1fa96)"><path fill="#ffffff" d="M 10.304688 0.621094 C 14.605469 0.621094 18.046875 4.058594 18.046875 8.1875 C 18.046875 12.3125 14.605469 15.921875 10.304688 15.921875 C 6.003906 15.921875 2.734375 12.484375 2.734375 8.1875 C 2.734375 3.886719 6.175781 0.621094 10.304688 0.621094 Z M 10.304688 0.621094 " fill-opacity="1" fill-rule="nonzero"/></g><g clip-path="url(#467183fdd5)"><path fill="#ffffff" d="M 87.898438 0.621094 C 92.199219 0.621094 95.46875 4.058594 95.46875 8.1875 C 95.46875 12.3125 92.027344 15.921875 87.898438 15.921875 C 83.769531 15.921875 80.15625 12.484375 80.15625 8.1875 C 80.15625 3.886719 83.597656 0.621094 87.898438 0.621094 Z M 87.898438 0.621094 " fill-opacity="1" fill-rule="nonzero"/></g><g clip-path="url(#fff1d10738)"><path fill="#ffffff" d="M 165.492188 0.621094 C 169.796875 0.621094 173.0625 4.058594 173.0625 8.1875 C 173.0625 12.3125 169.625 15.921875 165.492188 15.921875 C 161.363281 15.921875 157.921875 12.484375 157.921875 8.1875 C 157.921875 3.886719 161.363281 0.621094 165.492188 0.621094 Z M 165.492188 0.621094 " fill-opacity="1" fill-rule="nonzero"/></g><g clip-path="url(#ecb744c445)"><path fill="#ffffff" d="M 242.917969 0.621094 C 247.21875 0.621094 250.488281 4.058594 250.488281 8.1875 C 250.488281 12.3125 247.046875 15.921875 242.917969 15.921875 C 238.789062 15.921875 235.175781 12.484375 235.175781 8.1875 C 235.175781 3.886719 238.617188 0.621094 242.917969 0.621094 Z M 242.917969 0.621094 " fill-opacity="1" fill-rule="nonzero"/></g><g clip-path="url(#e5cbe5aec5)"><path fill="#ffffff" d="M 320.511719 0.621094 C 324.8125 0.621094 328.253906 4.058594 328.253906 8.1875 C 328.253906 12.3125 324.8125 15.921875 320.511719 15.921875 C 316.210938 15.921875 312.769531 12.484375 312.769531 8.1875 C 312.769531 3.886719 316.210938 0.621094 320.511719 0.621094 Z M 320.511719 0.621094 " fill-opacity="1" fill-rule="nonzero"/></g><g clip-path="url(#6e057d1ee7)"><path fill="#ffffff" d="M 397.9375 0.621094 C 402.238281 0.621094 405.679688 4.058594 405.679688 8.1875 C 405.679688 12.3125 402.238281 15.921875 397.9375 15.921875 C 393.636719 15.921875 390.367188 12.484375 390.367188 8.1875 C 390.367188 3.886719 393.808594 0.621094 397.9375 0.621094 Z M 397.9375 0.621094 " fill-opacity="1" fill-rule="nonzero"/></g><g clip-path="url(#699b9d7de5)"><path fill="#ffffff" d="M 475.53125 0.621094 C 479.832031 0.621094 483.101562 4.058594 483.101562 8.1875 C 483.101562 12.3125 479.660156 15.921875 475.53125 15.921875 C 471.402344 15.921875 467.789062 12.484375 467.789062 8.1875 C 467.789062 3.886719 471.230469 0.621094 475.53125 0.621094 Z M 475.53125 0.621094 " fill-opacity="1" fill-rule="nonzero"/></g></svg>