<svg xmlns="http://www.w3.org/2000/svg" xmlns:xlink="http://www.w3.org/1999/xlink" width="1069" zoomAndPan="magnify" viewBox="0 0 801.75 915.749972" height="1221" preserveAspectRatio="xMidYMid meet" version="1.0"><defs><clipPath id="1fa6965957"><path d="M 49 51 L 729 51 L 729 870 L 49 870 Z M 49 51 " clip-rule="nonzero"/></clipPath><clipPath id="36c1a115f9"><path d="M 801.421875 77.613281 L 709.847656 915.359375 L 0.296875 837.796875 L 91.871094 0.0507812 Z M 801.421875 77.613281 " clip-rule="nonzero"/></clipPath><clipPath id="ca5ebe944e"><path d="M 801.421875 77.613281 L 709.847656 915.359375 L 0.296875 837.796875 L 91.871094 0.0507812 Z M 801.421875 77.613281 " clip-rule="nonzero"/></clipPath></defs><g clip-path="url(#1fa6965957)"><g clip-path="url(#36c1a115f9)"><g clip-path="url(#ca5ebe944e)"><path fill="#af364d" d="M 655.5 85.785156 C 617.261719 57.941406 564.117188 62.230469 517.125 70.269531 C 470.128906 78.300781 419.59375 88.359375 376.128906 68.871094 C 362.988281 62.976562 350.800781 54.457031 336.578125 51.863281 C 309.417969 46.90625 282.761719 65.730469 270.3125 89.210938 C 257.863281 112.691406 256.207031 139.933594 253.875 166.25 C 251.546875 192.566406 247.859375 219.984375 232.277344 241.660156 C 200.648438 285.644531 133.347656 290.144531 92.101562 326.074219 C 60.773438 353.359375 48.289062 396.214844 49.507812 436.960938 C 50.714844 477.710938 63.976562 517.242188 77.113281 556.121094 C 96.570312 613.710938 116.226562 671.742188 147.269531 724.554688 C 176.128906 773.660156 215.761719 818.511719 267.453125 845.421875 C 319.140625 872.339844 383.945312 879.210938 436.515625 854.917969 C 479.644531 834.980469 516.953125 794.777344 564.882812 798.691406 C 593.046875 800.992188 618.9375 818.9375 647.097656 817.0625 C 711.414062 812.769531 730.304688 727.746094 728.597656 678.925781 C 726.554688 620.511719 697.945312 568.78125 660.238281 524.039062 C 635.847656 495.09375 604.460938 466.808594 603.230469 427.257812 C 601.398438 368.324219 652.125 313.988281 675.929688 262.921875 C 701.589844 207.890625 713.617188 128.097656 655.5 85.785156 " fill-opacity="1" fill-rule="nonzero"/></g></g></g></svg>