<svg xmlns="http://www.w3.org/2000/svg" xmlns:xlink="http://www.w3.org/1999/xlink" width="400" zoomAndPan="magnify" viewBox="0 0 300 299.999988" height="400" preserveAspectRatio="xMidYMid meet" version="1.0"><defs><clipPath id="1e16d318f0"><path d="M 22.277344 22.277344 L 278 22.277344 L 278 278 L 22.277344 278 Z M 22.277344 22.277344 " clip-rule="nonzero"/></clipPath></defs><g clip-path="url(#1e16d318f0)"><path fill="#ffffff" d="M 150 22.277344 C 147.910156 22.277344 145.820312 22.328125 143.730469 22.429688 C 141.644531 22.53125 139.5625 22.6875 137.480469 22.890625 C 135.398438 23.097656 133.328125 23.351562 131.257812 23.660156 C 129.191406 23.964844 127.132812 24.324219 125.082031 24.730469 C 123.03125 25.140625 120.992188 25.597656 118.964844 26.105469 C 116.9375 26.613281 114.921875 27.167969 112.921875 27.777344 C 110.921875 28.382812 108.9375 29.039062 106.972656 29.742188 C 105.003906 30.445312 103.054688 31.199219 101.121094 32 C 99.191406 32.800781 97.28125 33.644531 95.390625 34.539062 C 93.5 35.433594 91.636719 36.371094 89.792969 37.359375 C 87.949219 38.34375 86.128906 39.375 84.335938 40.449219 C 82.542969 41.523438 80.777344 42.640625 79.039062 43.800781 C 77.300781 44.964844 75.59375 46.167969 73.914062 47.410156 C 72.234375 48.65625 70.589844 49.941406 68.972656 51.269531 C 67.355469 52.59375 65.773438 53.960938 64.226562 55.363281 C 62.675781 56.765625 61.164062 58.207031 59.6875 59.6875 C 58.207031 61.164062 56.765625 62.675781 55.363281 64.226562 C 53.960938 65.773438 52.59375 67.355469 51.269531 68.972656 C 49.941406 70.589844 48.65625 72.234375 47.410156 73.914062 C 46.167969 75.59375 44.964844 77.300781 43.800781 79.039062 C 42.640625 80.777344 41.523438 82.542969 40.449219 84.335938 C 39.375 86.128906 38.34375 87.949219 37.359375 89.792969 C 36.371094 91.636719 35.433594 93.5 34.539062 95.390625 C 33.644531 97.28125 32.800781 99.191406 32 101.121094 C 31.199219 103.054688 30.445312 105.003906 29.742188 106.972656 C 29.039062 108.9375 28.382812 110.921875 27.777344 112.921875 C 27.167969 114.921875 26.613281 116.9375 26.105469 118.964844 C 25.597656 120.992188 25.140625 123.03125 24.730469 125.082031 C 24.324219 127.132812 23.964844 129.191406 23.660156 131.257812 C 23.351562 133.328125 23.097656 135.398438 22.890625 137.480469 C 22.6875 139.5625 22.53125 141.644531 22.429688 143.730469 C 22.328125 145.820312 22.277344 147.910156 22.277344 150 C 22.277344 152.089844 22.328125 154.179688 22.429688 156.265625 C 22.53125 158.355469 22.6875 160.4375 22.890625 162.519531 C 23.097656 164.597656 23.351562 166.671875 23.660156 168.738281 C 23.964844 170.808594 24.324219 172.867188 24.730469 174.917969 C 25.140625 176.96875 25.597656 179.003906 26.105469 181.035156 C 26.613281 183.0625 27.167969 185.074219 27.777344 187.074219 C 28.382812 189.074219 29.039062 191.058594 29.742188 193.027344 C 30.445312 194.996094 31.199219 196.945312 32 198.875 C 32.800781 200.808594 33.644531 202.71875 34.539062 204.609375 C 35.433594 206.496094 36.371094 208.363281 37.359375 210.207031 C 38.34375 212.050781 39.375 213.867188 40.449219 215.660156 C 41.523438 217.453125 42.640625 219.21875 43.800781 220.957031 C 44.964844 222.695312 46.167969 224.40625 47.410156 226.082031 C 48.65625 227.761719 49.941406 229.410156 51.269531 231.027344 C 52.59375 232.640625 53.960938 234.222656 55.363281 235.773438 C 56.765625 237.320312 58.207031 238.835938 59.6875 240.3125 C 61.164062 241.789062 62.675781 243.230469 64.226562 244.636719 C 65.773438 246.039062 67.355469 247.402344 68.972656 248.730469 C 70.589844 250.054688 72.234375 251.34375 73.914062 252.585938 C 75.59375 253.832031 77.300781 255.035156 79.039062 256.195312 C 80.777344 257.359375 82.542969 258.476562 84.335938 259.550781 C 86.128906 260.625 87.949219 261.65625 89.792969 262.640625 C 91.636719 263.625 93.5 264.566406 95.390625 265.460938 C 97.28125 266.351562 99.191406 267.199219 101.121094 268 C 103.054688 268.800781 105.003906 269.550781 106.972656 270.253906 C 108.9375 270.960938 110.921875 271.617188 112.921875 272.222656 C 114.921875 272.828125 116.9375 273.386719 118.964844 273.894531 C 120.992188 274.402344 123.03125 274.859375 125.082031 275.269531 C 127.132812 275.675781 129.191406 276.03125 131.257812 276.339844 C 133.328125 276.644531 135.398438 276.902344 137.480469 277.105469 C 139.5625 277.3125 141.644531 277.464844 143.730469 277.566406 C 145.820312 277.671875 147.910156 277.722656 150 277.722656 C 152.089844 277.722656 154.179688 277.671875 156.265625 277.566406 C 158.355469 277.464844 160.4375 277.3125 162.519531 277.105469 C 164.597656 276.902344 166.671875 276.644531 168.738281 276.339844 C 170.808594 276.03125 172.867188 275.675781 174.917969 275.269531 C 176.96875 274.859375 179.003906 274.402344 181.035156 273.894531 C 183.0625 273.386719 185.074219 272.828125 187.074219 272.222656 C 189.074219 271.617188 191.058594 270.960938 193.027344 270.257812 C 194.996094 269.550781 196.945312 268.800781 198.875 268 C 200.808594 267.199219 202.71875 266.351562 204.609375 265.460938 C 206.496094 264.566406 208.363281 263.625 210.207031 262.640625 C 212.050781 261.65625 213.867188 260.625 215.660156 259.550781 C 217.453125 258.476562 219.21875 257.359375 220.957031 256.195312 C 222.695312 255.035156 224.40625 253.832031 226.082031 252.585938 C 227.761719 251.34375 229.410156 250.054688 231.027344 248.730469 C 232.640625 247.402344 234.222656 246.039062 235.773438 244.636719 C 237.320312 243.230469 238.835938 241.789062 240.3125 240.3125 C 241.789062 238.835938 243.230469 237.320312 244.636719 235.773438 C 246.039062 234.222656 247.402344 232.640625 248.730469 231.027344 C 250.054688 229.410156 251.34375 227.761719 252.585938 226.082031 C 253.832031 224.40625 255.035156 222.695312 256.195312 220.957031 C 257.359375 219.21875 258.476562 217.453125 259.550781 215.660156 C 260.625 213.867188 261.65625 212.050781 262.640625 210.207031 C 263.625 208.363281 264.566406 206.496094 265.460938 204.609375 C 266.351562 202.71875 267.199219 200.808594 268 198.875 C 268.800781 196.945312 269.550781 194.996094 270.257812 193.027344 C 270.960938 191.058594 271.617188 189.074219 272.222656 187.074219 C 272.828125 185.074219 273.386719 183.0625 273.894531 181.035156 C 274.402344 179.003906 274.859375 176.96875 275.269531 174.917969 C 275.675781 172.867188 276.03125 170.808594 276.339844 168.738281 C 276.644531 166.671875 276.902344 164.597656 277.105469 162.519531 C 277.3125 160.4375 277.464844 158.355469 277.566406 156.265625 C 277.671875 154.179688 277.722656 152.089844 277.722656 150 C 277.71875 147.910156 277.667969 145.820312 277.5625 143.734375 C 277.457031 141.648438 277.300781 139.5625 277.09375 137.484375 C 276.886719 135.40625 276.628906 133.332031 276.320312 131.265625 C 276.011719 129.199219 275.65625 127.140625 275.246094 125.089844 C 274.835938 123.042969 274.375 121.003906 273.867188 118.976562 C 273.359375 116.949219 272.800781 114.9375 272.191406 112.9375 C 271.582031 110.941406 270.925781 108.957031 270.222656 106.988281 C 269.515625 105.023438 268.761719 103.074219 267.960938 101.144531 C 267.160156 99.214844 266.316406 97.304688 265.421875 95.414062 C 264.527344 93.527344 263.585938 91.660156 262.601562 89.820312 C 261.613281 87.976562 260.582031 86.160156 259.507812 84.367188 C 258.433594 82.574219 257.316406 80.808594 256.15625 79.074219 C 254.992188 77.335938 253.789062 75.628906 252.542969 73.949219 C 251.300781 72.273438 250.015625 70.625 248.6875 69.011719 C 247.363281 67.394531 245.996094 65.8125 244.59375 64.265625 C 243.191406 62.71875 241.75 61.203125 240.273438 59.726562 C 238.792969 58.25 237.28125 56.808594 235.734375 55.40625 C 234.183594 54 232.605469 52.636719 230.988281 51.3125 C 229.375 49.984375 227.726562 48.699219 226.046875 47.453125 C 224.371094 46.210938 222.664062 45.003906 220.925781 43.84375 C 219.1875 42.683594 217.421875 41.566406 215.632812 40.488281 C 213.839844 39.414062 212.023438 38.382812 210.179688 37.398438 C 208.335938 36.414062 206.472656 35.472656 204.582031 34.578125 C 202.695312 33.683594 200.785156 32.835938 198.855469 32.035156 C 196.925781 31.234375 194.976562 30.480469 193.007812 29.777344 C 191.042969 29.070312 189.058594 28.414062 187.058594 27.808594 C 185.0625 27.199219 183.046875 26.640625 181.019531 26.132812 C 178.996094 25.621094 176.957031 25.164062 174.90625 24.753906 C 172.859375 24.34375 170.800781 23.984375 168.734375 23.675781 C 166.667969 23.367188 164.59375 23.109375 162.515625 22.902344 C 160.433594 22.699219 158.351562 22.542969 156.265625 22.4375 C 154.175781 22.332031 152.089844 22.277344 150 22.277344 Z M 242.035156 96.78125 L 207.75 96.78125 C 200.039062 78.910156 190.03125 62.433594 177.726562 47.351562 C 181.074219 48.265625 184.367188 49.335938 187.613281 50.566406 C 190.855469 51.800781 194.03125 53.1875 197.140625 54.730469 C 200.246094 56.269531 203.273438 57.960938 206.214844 59.796875 C 209.160156 61.632812 212.007812 63.609375 214.757812 65.722656 C 217.507812 67.835938 220.148438 70.078125 222.679688 72.453125 C 225.210938 74.824219 227.625 77.3125 229.914062 79.917969 C 232.203125 82.527344 234.359375 85.238281 236.382812 88.054688 C 238.410156 90.871094 240.292969 93.78125 242.035156 96.78125 Z M 197.894531 150 C 197.808594 160.898438 196.117188 171.539062 192.828125 181.929688 L 107.167969 181.929688 C 103.878906 171.539062 102.191406 160.898438 102.101562 150 C 102.191406 139.101562 103.878906 128.457031 107.167969 118.070312 L 192.828125 118.070312 C 196.117188 128.457031 197.808594 139.101562 197.894531 150 Z M 115.707031 203.21875 L 184.292969 203.21875 C 175.210938 221.144531 163.78125 237.421875 150 252.050781 C 136.210938 237.425781 124.78125 221.148438 115.707031 203.21875 Z M 115.707031 96.78125 C 124.785156 78.851562 136.21875 62.574219 150 47.949219 C 163.785156 62.570312 175.21875 78.851562 184.292969 96.78125 Z M 122.324219 47.351562 C 110 62.429688 99.976562 78.90625 92.246094 96.78125 L 57.964844 96.78125 C 59.707031 93.78125 61.59375 90.871094 63.621094 88.050781 C 65.644531 85.234375 67.804688 82.519531 70.097656 79.914062 C 72.386719 77.304688 74.800781 74.816406 77.335938 72.445312 C 79.871094 70.070312 82.511719 67.828125 85.265625 65.714844 C 88.019531 63.597656 90.867188 61.625 93.8125 59.789062 C 96.761719 57.953125 99.789062 56.261719 102.898438 54.722656 C 106.007812 53.179688 109.1875 51.792969 112.433594 50.5625 C 115.679688 49.332031 118.976562 48.261719 122.324219 47.351562 Z M 48.46875 118.070312 L 85.074219 118.070312 C 82.304688 128.53125 80.882812 139.175781 80.816406 150 C 80.882812 160.824219 82.304688 171.464844 85.074219 181.929688 L 48.46875 181.929688 C 46.84375 176.765625 45.621094 171.503906 44.796875 166.152344 C 43.976562 160.800781 43.5625 155.414062 43.5625 150 C 43.5625 144.582031 43.976562 139.199219 44.796875 133.847656 C 45.621094 128.492188 46.84375 123.234375 48.46875 118.070312 Z M 57.964844 203.21875 L 92.246094 203.21875 C 99.976562 221.09375 110 237.566406 122.324219 252.644531 C 118.976562 251.738281 115.679688 250.667969 112.433594 249.433594 C 109.1875 248.203125 106.007812 246.816406 102.898438 245.277344 C 99.789062 243.734375 96.761719 242.046875 93.8125 240.210938 C 90.867188 238.375 88.019531 236.398438 85.265625 234.285156 C 82.511719 232.171875 79.871094 229.925781 77.335938 227.554688 C 74.800781 225.183594 72.386719 222.691406 70.097656 220.085938 C 67.804688 217.476562 65.644531 214.765625 63.621094 211.949219 C 61.59375 209.128906 59.707031 206.21875 57.964844 203.21875 Z M 177.726562 252.644531 C 190.03125 237.566406 200.039062 221.089844 207.75 203.21875 L 242.035156 203.21875 C 240.292969 206.21875 238.410156 209.125 236.382812 211.945312 C 234.359375 214.761719 232.203125 217.472656 229.914062 220.078125 C 227.625 222.6875 225.210938 225.175781 222.679688 227.546875 C 220.148438 229.917969 217.507812 232.160156 214.757812 234.277344 C 212.007812 236.390625 209.160156 238.367188 206.214844 240.203125 C 203.273438 242.039062 200.246094 243.730469 197.140625 245.269531 C 194.03125 246.8125 190.855469 248.199219 187.613281 249.429688 C 184.367188 250.664062 181.074219 251.734375 177.726562 252.644531 Z M 251.527344 181.929688 L 214.925781 181.929688 C 217.695312 171.464844 219.113281 160.824219 219.183594 150 C 219.113281 139.175781 217.695312 128.53125 214.925781 118.070312 L 251.507812 118.070312 C 253.132812 123.234375 254.355469 128.492188 255.179688 133.847656 C 256.003906 139.199219 256.414062 144.582031 256.414062 150 C 256.414062 155.414062 256.003906 160.800781 255.179688 166.152344 C 254.355469 171.503906 253.132812 176.765625 251.507812 181.929688 Z M 251.527344 181.929688 " fill-opacity="1" fill-rule="nonzero"/></g></svg>