<svg xmlns="http://www.w3.org/2000/svg" xmlns:xlink="http://www.w3.org/1999/xlink" width="283" zoomAndPan="magnify" viewBox="0 0 212.25 242.249999" height="323" preserveAspectRatio="xMidYMid meet" version="1.0"><defs><clipPath id="1bf5671a55"><path d="M 13 13 L 192 13 L 192 229 L 13 229 Z M 13 13 " clip-rule="nonzero"/></clipPath><clipPath id="eb4aeb5081"><path d="M 210.835938 20.464844 L 186.71875 241.117188 L 0.242188 220.734375 L 24.359375 0.0820312 Z M 210.835938 20.464844 " clip-rule="nonzero"/></clipPath><clipPath id="0413688fd2"><path d="M 210.835938 20.464844 L 186.71875 241.117188 L 0.242188 220.734375 L 24.359375 0.0820312 Z M 210.835938 20.464844 " clip-rule="nonzero"/></clipPath></defs><g clip-path="url(#1bf5671a55)"><g clip-path="url(#eb4aeb5081)"><g clip-path="url(#0413688fd2)"><path fill="#af364d" d="M 172.449219 22.617188 C 162.390625 15.292969 148.40625 16.421875 136.046875 18.535156 C 123.679688 20.648438 110.386719 23.296875 98.953125 18.167969 C 95.496094 16.617188 92.289062 14.375 88.546875 13.695312 C 81.402344 12.390625 74.390625 17.339844 71.113281 23.519531 C 67.839844 29.695312 67.402344 36.863281 66.789062 43.785156 C 66.175781 50.710938 65.207031 57.921875 61.109375 63.625 C 52.789062 75.195312 35.082031 76.378906 24.230469 85.832031 C 15.988281 93.011719 12.707031 104.285156 13.023438 115.003906 C 13.34375 125.722656 16.832031 136.125 20.289062 146.351562 C 25.40625 161.503906 30.578125 176.769531 38.746094 190.664062 C 46.335938 203.582031 56.761719 215.382812 70.363281 222.460938 C 83.960938 229.542969 101.007812 231.351562 114.839844 224.957031 C 126.183594 219.714844 136 209.136719 148.609375 210.167969 C 156.019531 210.773438 162.828125 215.492188 170.238281 215 C 187.160156 213.871094 192.128906 191.503906 191.679688 178.660156 C 191.140625 163.292969 183.617188 149.683594 173.695312 137.914062 C 167.277344 130.296875 159.019531 122.855469 158.699219 112.453125 C 158.214844 96.945312 171.5625 82.652344 177.824219 69.21875 C 184.574219 54.742188 187.738281 33.75 172.449219 22.617188 " fill-opacity="1" fill-rule="nonzero"/></g></g></g></svg>