<svg xmlns="http://www.w3.org/2000/svg" xmlns:xlink="http://www.w3.org/1999/xlink" width="51" zoomAndPan="magnify" viewBox="0 0 38.25 24.75" height="33" preserveAspectRatio="xMidYMid meet" version="1.0"><defs><clipPath id="ec43a54b53"><path d="M 18 8 L 36.777344 8 L 36.777344 23.652344 L 18 23.652344 Z M 18 8 " clip-rule="nonzero"/></clipPath><clipPath id="58eaec8555"><path d="M 29 8 L 36.777344 8 L 36.777344 11 L 29 11 Z M 29 8 " clip-rule="nonzero"/></clipPath><clipPath id="392b4ac4f2"><path d="M 0 8 L 19 8 L 19 23.652344 L 0 23.652344 Z M 0 8 " clip-rule="nonzero"/></clipPath><clipPath id="7aae175e0e"><path d="M 4 0.117188 L 33 0.117188 L 33 21 L 4 21 Z M 4 0.117188 " clip-rule="nonzero"/></clipPath></defs><path fill="#ffffff" d="M 26.746094 19.300781 C 28.394531 19.300781 29.734375 17.964844 29.734375 16.3125 C 29.734375 14.660156 28.394531 13.324219 26.746094 13.324219 C 25.09375 13.324219 23.757812 14.660156 23.757812 16.3125 C 23.757812 17.964844 25.09375 19.300781 26.746094 19.300781 Z M 26.746094 19.300781 " fill-opacity="1" fill-rule="nonzero"/><path fill="#ffffff" d="M 9.992188 19.300781 C 11.644531 19.300781 12.980469 17.964844 12.980469 16.3125 C 12.980469 14.660156 11.644531 13.324219 9.992188 13.324219 C 8.34375 13.324219 7.003906 14.660156 7.003906 16.3125 C 7.003906 17.964844 8.34375 19.300781 9.992188 19.300781 Z M 9.992188 19.300781 " fill-opacity="1" fill-rule="nonzero"/><path fill="#ffffff" d="M 10.519531 14.945312 L 15.523438 7.539062 C 15.523438 7.539062 18.394531 8.007812 18.433594 9.8125 C 18.433594 9.8125 16.648438 6.070312 11.390625 15.5 Z M 10.519531 14.945312 " fill-opacity="1" fill-rule="nonzero"/><path fill="#ffffff" d="M 26.402344 14.945312 L 21.398438 7.539062 C 21.398438 7.539062 18.527344 8.007812 18.492188 9.8125 C 18.492188 9.8125 20.273438 6.070312 25.53125 15.5 Z M 26.402344 14.945312 " fill-opacity="1" fill-rule="nonzero"/><g clip-path="url(#ec43a54b53)"><path fill="#ffffff" d="M 36.855469 9.132812 C 35.949219 10.0625 34.691406 10.652344 33.300781 10.6875 C 33.15625 10.683594 33.011719 10.683594 32.867188 10.683594 L 32.835938 10.683594 C 25.292969 10.699219 19.117188 16.546875 18.582031 23.953125 C 18.554688 23.605469 18.542969 23.25 18.542969 22.898438 C 18.542969 16.207031 23.132812 10.589844 29.332031 9.011719 C 30.464844 8.722656 31.648438 8.570312 32.867188 8.570312 C 34.253906 8.570312 35.589844 8.765625 36.855469 9.132812 Z M 36.855469 9.132812 " fill-opacity="1" fill-rule="nonzero"/></g><g clip-path="url(#58eaec8555)"><path fill="#ffffff" d="M 36.855469 9.132812 C 35.949219 10.0625 34.691406 10.652344 33.300781 10.6875 C 33.25 10.691406 33.199219 10.691406 33.148438 10.691406 C 33.046875 10.691406 32.941406 10.6875 32.835938 10.683594 C 31.449219 10.601562 30.210938 9.972656 29.328125 9.011719 C 30.460938 8.722656 31.644531 8.570312 32.867188 8.570312 C 34.25 8.570312 35.585938 8.765625 36.851562 9.132812 Z M 36.855469 9.132812 " fill-opacity="1" fill-rule="nonzero"/></g><g clip-path="url(#392b4ac4f2)"><path fill="#ffffff" d="M 0.121094 9.132812 C 1.027344 10.0625 2.285156 10.652344 3.675781 10.6875 C 3.816406 10.683594 3.964844 10.683594 4.105469 10.683594 L 4.136719 10.683594 C 11.679688 10.699219 17.855469 16.546875 18.394531 23.953125 C 18.421875 23.605469 18.433594 23.25 18.433594 22.898438 C 18.433594 16.207031 13.84375 10.589844 7.644531 9.011719 C 6.511719 8.722656 5.328125 8.570312 4.105469 8.570312 C 2.71875 8.570312 1.382812 8.765625 0.121094 9.132812 Z M 0.121094 9.132812 " fill-opacity="1" fill-rule="nonzero"/></g><path fill="#ffffff" d="M 0.121094 9.132812 C 1.027344 10.0625 2.285156 10.652344 3.675781 10.6875 C 3.722656 10.691406 3.777344 10.691406 3.824219 10.691406 C 3.929688 10.691406 4.03125 10.6875 4.136719 10.683594 C 5.527344 10.601562 6.765625 9.972656 7.644531 9.011719 C 6.515625 8.722656 5.332031 8.570312 4.109375 8.570312 C 2.722656 8.570312 1.386719 8.765625 0.125 9.132812 Z M 0.121094 9.132812 " fill-opacity="1" fill-rule="nonzero"/><g clip-path="url(#7aae175e0e)"><path fill="#ffffff" d="M 32.265625 13.652344 C 32.265625 16.324219 31.476562 18.808594 30.121094 20.90625 L 29.167969 20.90625 C 30.621094 18.847656 31.472656 16.351562 31.472656 13.652344 L 31.472656 13.613281 C 31.464844 13.761719 31.460938 13.902344 31.449219 14.042969 C 30.984375 7.492188 25.359375 2.316406 18.488281 2.316406 C 11.613281 2.316406 5.992188 7.488281 5.527344 14.042969 C 5.519531 13.886719 5.507812 13.726562 5.503906 13.570312 C 5.503906 13.597656 5.503906 13.625 5.503906 13.652344 C 5.503906 16.347656 6.355469 18.847656 7.804688 20.90625 L 6.859375 20.90625 C 5.5 18.808594 4.714844 16.324219 4.714844 13.652344 C 4.714844 6.179688 10.882812 0.117188 18.488281 0.117188 C 22.351562 0.117188 25.84375 1.675781 28.34375 4.199219 C 28.644531 4.5 28.933594 4.816406 29.203125 5.144531 C 31.117188 7.472656 32.265625 10.429688 32.265625 13.652344 Z M 32.265625 13.652344 " fill-opacity="1" fill-rule="nonzero"/></g></svg>