<svg xmlns="http://www.w3.org/2000/svg" xmlns:xlink="http://www.w3.org/1999/xlink" width="36" zoomAndPan="magnify" viewBox="0 0 26.88 7.5" height="10" preserveAspectRatio="xMidYMid meet" version="1.0"><defs><clipPath id="9e1216db4a"><path d="M 24 5 L 25.984375 5 L 25.984375 7 L 24 7 Z M 24 5 " clip-rule="nonzero"/></clipPath><clipPath id="11fdfb39e5"><path d="M 25 5 L 25.984375 5 L 25.984375 7 L 25 7 Z M 25 5 " clip-rule="nonzero"/></clipPath><clipPath id="03651732e7"><path d="M 0.785156 2 L 7 2 L 7 7 L 0.785156 7 Z M 0.785156 2 " clip-rule="nonzero"/></clipPath><clipPath id="c05b7bf49a"><path d="M 0.785156 2 L 3 2 L 3 4 L 0.785156 4 Z M 0.785156 2 " clip-rule="nonzero"/></clipPath></defs><path fill="#335ad3" d="M 12.941406 6.234375 C 12.902344 6.246094 12.863281 6.25 12.824219 6.25 C 12.769531 6.25 12.722656 6.242188 12.683594 6.226562 C 12.640625 6.207031 12.609375 6.183594 12.578125 6.15625 C 12.550781 6.125 12.527344 6.089844 12.511719 6.046875 C 12.496094 6.003906 12.492188 5.957031 12.492188 5.90625 C 12.492188 5.855469 12.5 5.8125 12.515625 5.769531 C 12.527344 5.726562 12.550781 5.691406 12.582031 5.660156 C 12.609375 5.628906 12.644531 5.605469 12.6875 5.589844 C 12.726562 5.570312 12.773438 5.5625 12.824219 5.5625 C 12.859375 5.5625 12.890625 5.566406 12.925781 5.574219 C 12.929688 5.574219 12.933594 5.578125 12.941406 5.578125 C 12.949219 5.578125 12.953125 5.582031 12.960938 5.582031 C 12.964844 5.585938 12.972656 5.585938 12.980469 5.589844 C 12.984375 5.589844 12.988281 5.589844 12.992188 5.589844 C 13.007812 5.589844 13.015625 5.585938 13.015625 5.570312 L 13.027344 5.570312 L 13.027344 5.609375 C 13.027344 5.621094 13.027344 5.632812 13.027344 5.648438 C 13.027344 5.664062 13.027344 5.675781 13.027344 5.6875 C 13.027344 5.703125 13.023438 5.710938 13.019531 5.722656 C 12.996094 5.6875 12.972656 5.65625 12.945312 5.636719 C 12.917969 5.621094 12.878906 5.609375 12.835938 5.609375 C 12.789062 5.609375 12.753906 5.617188 12.722656 5.632812 C 12.6875 5.648438 12.664062 5.671875 12.640625 5.699219 C 12.621094 5.726562 12.605469 5.757812 12.59375 5.792969 C 12.585938 5.828125 12.582031 5.867188 12.582031 5.90625 C 12.582031 5.945312 12.585938 5.984375 12.597656 6.023438 C 12.605469 6.058594 12.621094 6.089844 12.644531 6.113281 C 12.664062 6.140625 12.691406 6.164062 12.722656 6.175781 C 12.757812 6.191406 12.792969 6.199219 12.839844 6.199219 C 12.855469 6.199219 12.875 6.199219 12.890625 6.199219 C 12.910156 6.199219 12.925781 6.199219 12.945312 6.195312 C 12.964844 6.191406 12.980469 6.1875 12.996094 6.179688 C 13.011719 6.175781 13.027344 6.167969 13.042969 6.15625 L 13.046875 6.171875 C 13.015625 6.199219 12.980469 6.21875 12.941406 6.234375 Z M 12.941406 6.234375 " fill-opacity="1" fill-rule="nonzero"/><path fill="#335ad3" d="M 13.683594 6.039062 C 13.667969 6.082031 13.648438 6.117188 13.625 6.148438 C 13.597656 6.179688 13.5625 6.207031 13.527344 6.226562 C 13.488281 6.242188 13.445312 6.25 13.394531 6.25 C 13.34375 6.25 13.296875 6.242188 13.257812 6.226562 C 13.222656 6.207031 13.1875 6.183594 13.160156 6.152344 C 13.136719 6.121094 13.117188 6.082031 13.101562 6.042969 C 13.089844 6 13.082031 5.957031 13.082031 5.90625 C 13.082031 5.847656 13.089844 5.800781 13.109375 5.757812 C 13.125 5.710938 13.148438 5.675781 13.179688 5.648438 C 13.207031 5.617188 13.242188 5.597656 13.28125 5.582031 C 13.316406 5.566406 13.355469 5.5625 13.394531 5.5625 C 13.429688 5.5625 13.46875 5.570312 13.507812 5.582031 C 13.542969 5.597656 13.578125 5.621094 13.605469 5.648438 C 13.636719 5.675781 13.660156 5.710938 13.675781 5.757812 C 13.695312 5.800781 13.703125 5.851562 13.703125 5.90625 C 13.703125 5.957031 13.695312 6 13.683594 6.039062 Z M 13.605469 5.804688 C 13.597656 5.769531 13.582031 5.734375 13.566406 5.707031 C 13.546875 5.675781 13.523438 5.65625 13.496094 5.636719 C 13.46875 5.617188 13.433594 5.609375 13.394531 5.609375 C 13.355469 5.609375 13.320312 5.617188 13.289062 5.636719 C 13.261719 5.65625 13.238281 5.679688 13.222656 5.707031 C 13.203125 5.734375 13.191406 5.769531 13.183594 5.804688 C 13.175781 5.839844 13.171875 5.875 13.171875 5.90625 C 13.171875 5.941406 13.175781 5.976562 13.183594 6.011719 C 13.191406 6.046875 13.203125 6.082031 13.222656 6.109375 C 13.238281 6.136719 13.261719 6.160156 13.289062 6.179688 C 13.320312 6.199219 13.351562 6.207031 13.394531 6.207031 C 13.433594 6.207031 13.46875 6.199219 13.496094 6.179688 C 13.527344 6.160156 13.550781 6.136719 13.566406 6.109375 C 13.585938 6.078125 13.597656 6.046875 13.605469 6.011719 C 13.613281 5.976562 13.617188 5.941406 13.617188 5.90625 C 13.617188 5.875 13.613281 5.839844 13.605469 5.804688 Z M 13.605469 5.804688 " fill-opacity="1" fill-rule="nonzero"/><path fill="#335ad3" d="M 14.355469 5.589844 C 14.347656 5.59375 14.34375 5.597656 14.339844 5.601562 C 14.339844 5.609375 14.335938 5.613281 14.335938 5.625 C 14.335938 5.632812 14.335938 5.644531 14.335938 5.65625 L 14.335938 6.242188 L 14.285156 6.242188 L 13.894531 5.679688 L 13.894531 6.15625 C 13.894531 6.167969 13.894531 6.179688 13.894531 6.191406 C 13.894531 6.199219 13.894531 6.207031 13.898438 6.210938 C 13.902344 6.21875 13.90625 6.222656 13.914062 6.226562 C 13.921875 6.226562 13.929688 6.230469 13.941406 6.230469 L 13.941406 6.238281 L 13.785156 6.238281 L 13.785156 6.230469 C 13.800781 6.230469 13.808594 6.226562 13.816406 6.226562 C 13.824219 6.222656 13.828125 6.21875 13.832031 6.210938 C 13.835938 6.207031 13.835938 6.199219 13.835938 6.191406 C 13.835938 6.183594 13.835938 6.171875 13.835938 6.160156 L 13.835938 5.625 C 13.832031 5.617188 13.832031 5.609375 13.828125 5.605469 C 13.824219 5.597656 13.824219 5.59375 13.820312 5.589844 C 13.816406 5.589844 13.8125 5.585938 13.804688 5.585938 C 13.800781 5.585938 13.792969 5.582031 13.785156 5.582031 L 13.785156 5.574219 L 13.914062 5.574219 C 13.972656 5.664062 14.035156 5.753906 14.097656 5.839844 C 14.160156 5.929688 14.222656 6.019531 14.28125 6.109375 L 14.28125 5.65625 C 14.28125 5.640625 14.28125 5.632812 14.28125 5.621094 C 14.28125 5.613281 14.277344 5.605469 14.273438 5.601562 C 14.273438 5.59375 14.265625 5.589844 14.257812 5.585938 C 14.253906 5.582031 14.242188 5.582031 14.226562 5.582031 L 14.226562 5.574219 L 14.386719 5.574219 L 14.386719 5.582031 C 14.371094 5.582031 14.363281 5.582031 14.355469 5.585938 Z M 14.355469 5.589844 " fill-opacity="1" fill-rule="nonzero"/><path fill="#335ad3" d="M 14.492188 6.226562 C 14.492188 6.226562 14.488281 6.234375 14.488281 6.238281 L 14.476562 6.238281 L 14.472656 6.097656 L 14.472656 6.09375 L 14.480469 6.09375 C 14.496094 6.121094 14.507812 6.144531 14.53125 6.160156 C 14.550781 6.175781 14.570312 6.191406 14.59375 6.199219 C 14.613281 6.207031 14.636719 6.207031 14.660156 6.207031 C 14.683594 6.203125 14.703125 6.199219 14.722656 6.191406 C 14.742188 6.179688 14.757812 6.167969 14.769531 6.148438 C 14.777344 6.132812 14.785156 6.109375 14.785156 6.085938 C 14.785156 6.058594 14.777344 6.035156 14.761719 6.015625 C 14.746094 6 14.726562 5.980469 14.703125 5.964844 C 14.679688 5.949219 14.65625 5.9375 14.628906 5.921875 C 14.601562 5.90625 14.578125 5.890625 14.554688 5.875 C 14.53125 5.859375 14.511719 5.835938 14.496094 5.8125 C 14.480469 5.792969 14.472656 5.761719 14.472656 5.726562 C 14.472656 5.703125 14.476562 5.679688 14.488281 5.660156 C 14.5 5.640625 14.515625 5.621094 14.53125 5.609375 C 14.550781 5.59375 14.570312 5.582031 14.59375 5.574219 C 14.613281 5.566406 14.636719 5.5625 14.660156 5.5625 C 14.675781 5.5625 14.6875 5.566406 14.703125 5.566406 C 14.714844 5.570312 14.730469 5.570312 14.742188 5.574219 C 14.742188 5.574219 14.746094 5.578125 14.753906 5.578125 C 14.757812 5.582031 14.765625 5.582031 14.773438 5.585938 C 14.777344 5.585938 14.785156 5.589844 14.792969 5.589844 C 14.796875 5.589844 14.800781 5.589844 14.800781 5.589844 C 14.8125 5.589844 14.816406 5.585938 14.820312 5.574219 L 14.832031 5.574219 C 14.832031 5.597656 14.835938 5.621094 14.835938 5.648438 C 14.839844 5.671875 14.839844 5.699219 14.839844 5.722656 L 14.828125 5.722656 C 14.820312 5.695312 14.804688 5.675781 14.789062 5.660156 C 14.773438 5.644531 14.753906 5.632812 14.734375 5.625 C 14.710938 5.613281 14.691406 5.609375 14.667969 5.609375 C 14.644531 5.609375 14.628906 5.613281 14.609375 5.621094 C 14.589844 5.628906 14.574219 5.640625 14.566406 5.65625 C 14.554688 5.671875 14.546875 5.691406 14.546875 5.714844 C 14.546875 5.734375 14.554688 5.75 14.5625 5.761719 C 14.570312 5.773438 14.582031 5.789062 14.597656 5.800781 C 14.613281 5.8125 14.632812 5.824219 14.648438 5.835938 C 14.667969 5.847656 14.6875 5.859375 14.707031 5.871094 L 14.699219 5.867188 C 14.722656 5.878906 14.742188 5.890625 14.761719 5.902344 C 14.78125 5.917969 14.800781 5.933594 14.816406 5.949219 C 14.832031 5.964844 14.84375 5.984375 14.851562 6.003906 C 14.863281 6.023438 14.867188 6.046875 14.867188 6.074219 C 14.867188 6.101562 14.863281 6.128906 14.847656 6.148438 C 14.835938 6.171875 14.820312 6.191406 14.800781 6.207031 C 14.78125 6.21875 14.757812 6.230469 14.734375 6.238281 C 14.707031 6.246094 14.683594 6.25 14.65625 6.25 C 14.628906 6.25 14.605469 6.25 14.578125 6.242188 C 14.554688 6.234375 14.527344 6.230469 14.503906 6.222656 C 14.496094 6.222656 14.496094 6.222656 14.492188 6.226562 Z M 14.492188 6.226562 " fill-opacity="1" fill-rule="nonzero"/><path fill="#335ad3" d="M 15.554688 5.585938 C 15.546875 5.585938 15.539062 5.589844 15.535156 5.59375 C 15.527344 5.597656 15.523438 5.605469 15.523438 5.613281 C 15.519531 5.621094 15.519531 5.628906 15.519531 5.636719 L 15.519531 6.007812 C 15.519531 6.085938 15.496094 6.144531 15.453125 6.1875 C 15.410156 6.230469 15.347656 6.25 15.269531 6.25 C 15.191406 6.25 15.128906 6.230469 15.085938 6.1875 C 15.042969 6.144531 15.023438 6.082031 15.023438 6.003906 L 15.023438 5.632812 C 15.023438 5.621094 15.019531 5.605469 15.019531 5.597656 C 15.015625 5.589844 15.003906 5.585938 14.988281 5.585938 L 14.972656 5.585938 L 14.972656 5.574219 L 15.15625 5.574219 L 15.15625 5.585938 C 15.144531 5.585938 15.136719 5.585938 15.128906 5.585938 C 15.125 5.585938 15.117188 5.589844 15.113281 5.589844 C 15.109375 5.59375 15.109375 5.597656 15.109375 5.605469 C 15.105469 5.613281 15.105469 5.621094 15.105469 5.632812 L 15.105469 6.007812 C 15.105469 6.066406 15.121094 6.113281 15.148438 6.148438 C 15.175781 6.183594 15.21875 6.203125 15.28125 6.203125 C 15.339844 6.203125 15.386719 6.183594 15.417969 6.152344 C 15.449219 6.117188 15.464844 6.074219 15.464844 6.015625 L 15.464844 5.628906 C 15.464844 5.621094 15.460938 5.609375 15.460938 5.605469 C 15.457031 5.597656 15.453125 5.59375 15.445312 5.589844 C 15.4375 5.585938 15.425781 5.585938 15.414062 5.585938 L 15.414062 5.574219 L 15.570312 5.574219 L 15.570312 5.585938 Z M 15.554688 5.585938 " fill-opacity="1" fill-rule="nonzero"/><path fill="#335ad3" d="M 16.144531 6.238281 L 15.699219 6.238281 L 15.699219 6.230469 C 15.710938 6.230469 15.71875 6.230469 15.726562 6.230469 C 15.730469 6.230469 15.738281 6.226562 15.738281 6.222656 C 15.742188 6.21875 15.746094 6.214844 15.746094 6.207031 C 15.746094 6.203125 15.746094 6.195312 15.746094 6.183594 L 15.746094 5.632812 C 15.746094 5.625 15.746094 5.613281 15.746094 5.609375 C 15.746094 5.601562 15.742188 5.597656 15.738281 5.59375 C 15.738281 5.589844 15.730469 5.589844 15.726562 5.589844 C 15.71875 5.589844 15.710938 5.585938 15.699219 5.585938 L 15.699219 5.578125 L 15.882812 5.578125 L 15.882812 5.585938 C 15.871094 5.585938 15.863281 5.585938 15.855469 5.589844 C 15.851562 5.589844 15.84375 5.589844 15.839844 5.59375 C 15.835938 5.597656 15.835938 5.601562 15.835938 5.609375 C 15.832031 5.613281 15.832031 5.625 15.832031 5.632812 L 15.832031 6.175781 C 15.832031 6.179688 15.835938 6.183594 15.835938 6.1875 C 15.839844 6.191406 15.84375 6.195312 15.851562 6.195312 C 15.855469 6.195312 15.859375 6.195312 15.867188 6.195312 C 15.871094 6.195312 15.875 6.195312 15.878906 6.195312 L 16.023438 6.195312 C 16.042969 6.195312 16.054688 6.195312 16.070312 6.191406 C 16.085938 6.191406 16.097656 6.1875 16.105469 6.183594 C 16.117188 6.175781 16.125 6.171875 16.136719 6.160156 C 16.144531 6.148438 16.152344 6.136719 16.160156 6.121094 L 16.171875 6.125 L 16.144531 6.242188 Z M 16.144531 6.238281 " fill-opacity="1" fill-rule="nonzero"/><path fill="#335ad3" d="M 16.589844 5.691406 C 16.585938 5.667969 16.578125 5.648438 16.566406 5.640625 C 16.554688 5.628906 16.535156 5.625 16.511719 5.625 L 16.382812 5.625 L 16.382812 6.179688 C 16.382812 6.195312 16.382812 6.203125 16.382812 6.207031 C 16.386719 6.214844 16.386719 6.21875 16.390625 6.222656 C 16.394531 6.226562 16.402344 6.226562 16.410156 6.230469 C 16.414062 6.230469 16.425781 6.230469 16.4375 6.230469 L 16.4375 6.238281 L 16.246094 6.238281 L 16.246094 6.230469 C 16.257812 6.230469 16.265625 6.230469 16.273438 6.230469 C 16.28125 6.230469 16.285156 6.226562 16.289062 6.222656 C 16.292969 6.21875 16.296875 6.214844 16.296875 6.207031 C 16.296875 6.203125 16.296875 6.195312 16.296875 6.179688 L 16.296875 5.625 L 16.167969 5.625 C 16.144531 5.625 16.125 5.628906 16.113281 5.640625 C 16.101562 5.648438 16.089844 5.667969 16.085938 5.695312 L 16.078125 5.695312 L 16.082031 5.574219 L 16.597656 5.574219 L 16.601562 5.695312 L 16.589844 5.695312 Z M 16.589844 5.691406 " fill-opacity="1" fill-rule="nonzero"/><path fill="#335ad3" d="M 17.21875 6.039062 C 17.203125 6.082031 17.183594 6.117188 17.15625 6.148438 C 17.132812 6.179688 17.097656 6.207031 17.058594 6.226562 C 17.023438 6.242188 16.976562 6.25 16.925781 6.25 C 16.878906 6.25 16.832031 6.242188 16.792969 6.226562 C 16.753906 6.207031 16.722656 6.183594 16.695312 6.152344 C 16.667969 6.121094 16.648438 6.082031 16.636719 6.042969 C 16.621094 6 16.617188 5.957031 16.617188 5.90625 C 16.617188 5.847656 16.625 5.800781 16.640625 5.757812 C 16.660156 5.710938 16.683594 5.675781 16.710938 5.648438 C 16.742188 5.617188 16.773438 5.597656 16.8125 5.582031 C 16.847656 5.566406 16.886719 5.5625 16.925781 5.5625 C 16.964844 5.5625 17 5.570312 17.039062 5.582031 C 17.078125 5.597656 17.109375 5.621094 17.136719 5.648438 C 17.167969 5.675781 17.191406 5.710938 17.207031 5.757812 C 17.226562 5.800781 17.234375 5.851562 17.234375 5.90625 C 17.234375 5.957031 17.226562 6 17.214844 6.039062 Z M 17.136719 5.804688 C 17.128906 5.769531 17.117188 5.734375 17.101562 5.707031 C 17.082031 5.675781 17.058594 5.65625 17.03125 5.636719 C 17.003906 5.617188 16.96875 5.609375 16.929688 5.609375 C 16.886719 5.609375 16.851562 5.617188 16.824219 5.636719 C 16.796875 5.65625 16.773438 5.679688 16.757812 5.707031 C 16.738281 5.734375 16.726562 5.769531 16.71875 5.804688 C 16.710938 5.839844 16.707031 5.875 16.707031 5.90625 C 16.707031 5.941406 16.710938 5.976562 16.71875 6.011719 C 16.726562 6.046875 16.738281 6.082031 16.757812 6.109375 C 16.773438 6.136719 16.796875 6.160156 16.824219 6.179688 C 16.851562 6.199219 16.886719 6.207031 16.929688 6.207031 C 16.96875 6.207031 17.003906 6.199219 17.03125 6.179688 C 17.058594 6.160156 17.082031 6.136719 17.101562 6.109375 C 17.121094 6.078125 17.132812 6.046875 17.140625 6.011719 C 17.148438 5.976562 17.152344 5.941406 17.152344 5.90625 C 17.152344 5.875 17.148438 5.839844 17.140625 5.804688 Z M 17.136719 5.804688 " fill-opacity="1" fill-rule="nonzero"/><path fill="#335ad3" d="M 17.757812 6.238281 C 17.742188 6.207031 17.726562 6.171875 17.710938 6.144531 C 17.695312 6.117188 17.679688 6.09375 17.660156 6.066406 C 17.640625 6.042969 17.621094 6.019531 17.601562 6 C 17.578125 5.976562 17.554688 5.953125 17.527344 5.929688 L 17.457031 5.929688 L 17.457031 6.183594 C 17.457031 6.195312 17.457031 6.203125 17.457031 6.207031 C 17.460938 6.214844 17.460938 6.21875 17.464844 6.222656 C 17.46875 6.226562 17.472656 6.230469 17.480469 6.230469 C 17.488281 6.230469 17.496094 6.230469 17.503906 6.230469 L 17.503906 6.238281 L 17.328125 6.238281 L 17.328125 6.230469 C 17.335938 6.230469 17.347656 6.230469 17.351562 6.230469 C 17.359375 6.230469 17.363281 6.226562 17.367188 6.222656 C 17.367188 6.21875 17.371094 6.214844 17.371094 6.207031 C 17.371094 6.203125 17.371094 6.195312 17.371094 6.183594 L 17.371094 5.632812 C 17.371094 5.625 17.371094 5.613281 17.371094 5.609375 C 17.371094 5.601562 17.367188 5.597656 17.367188 5.59375 C 17.363281 5.589844 17.359375 5.589844 17.351562 5.589844 C 17.347656 5.589844 17.335938 5.585938 17.328125 5.585938 L 17.328125 5.578125 L 17.5625 5.578125 C 17.589844 5.578125 17.617188 5.578125 17.644531 5.585938 C 17.671875 5.59375 17.695312 5.601562 17.714844 5.617188 C 17.734375 5.628906 17.75 5.648438 17.761719 5.671875 C 17.773438 5.691406 17.78125 5.71875 17.78125 5.753906 C 17.78125 5.777344 17.777344 5.800781 17.765625 5.816406 C 17.757812 5.835938 17.746094 5.851562 17.730469 5.867188 C 17.714844 5.878906 17.695312 5.890625 17.675781 5.898438 C 17.65625 5.90625 17.632812 5.910156 17.613281 5.914062 C 17.632812 5.929688 17.644531 5.941406 17.660156 5.953125 C 17.671875 5.964844 17.679688 5.976562 17.691406 5.984375 C 17.699219 5.996094 17.707031 6.007812 17.714844 6.015625 C 17.722656 6.027344 17.734375 6.039062 17.746094 6.054688 C 17.757812 6.070312 17.769531 6.089844 17.785156 6.109375 C 17.796875 6.132812 17.804688 6.152344 17.816406 6.167969 C 17.828125 6.1875 17.835938 6.203125 17.84375 6.214844 C 17.851562 6.226562 17.863281 6.234375 17.867188 6.234375 L 17.867188 6.242188 L 17.757812 6.242188 Z M 17.457031 5.882812 L 17.503906 5.882812 C 17.527344 5.882812 17.550781 5.878906 17.574219 5.875 C 17.597656 5.871094 17.617188 5.863281 17.636719 5.855469 C 17.652344 5.84375 17.667969 5.828125 17.679688 5.8125 C 17.691406 5.792969 17.695312 5.769531 17.695312 5.742188 C 17.695312 5.71875 17.691406 5.699219 17.683594 5.683594 C 17.671875 5.667969 17.660156 5.65625 17.644531 5.644531 C 17.628906 5.636719 17.613281 5.628906 17.59375 5.628906 C 17.574219 5.625 17.554688 5.621094 17.53125 5.621094 L 17.515625 5.621094 C 17.507812 5.621094 17.5 5.621094 17.492188 5.621094 C 17.488281 5.621094 17.480469 5.625 17.472656 5.628906 C 17.46875 5.628906 17.460938 5.632812 17.457031 5.636719 Z M 17.457031 5.882812 " fill-opacity="1" fill-rule="nonzero"/><path fill="#335ad3" d="M 17.988281 6.238281 L 17.988281 6.230469 C 17.996094 6.230469 18.007812 6.230469 18.011719 6.230469 C 18.019531 6.230469 18.027344 6.226562 18.03125 6.226562 C 18.035156 6.222656 18.035156 6.214844 18.039062 6.210938 C 18.039062 6.203125 18.039062 6.195312 18.039062 6.183594 L 18.039062 5.636719 C 18.039062 5.625 18.039062 5.613281 18.039062 5.609375 C 18.035156 5.601562 18.035156 5.597656 18.03125 5.59375 C 18.027344 5.589844 18.019531 5.589844 18.011719 5.589844 C 18.007812 5.589844 17.996094 5.589844 17.988281 5.589844 L 17.988281 5.578125 L 18.175781 5.578125 L 18.175781 5.589844 C 18.164062 5.589844 18.15625 5.589844 18.148438 5.589844 C 18.140625 5.589844 18.136719 5.589844 18.132812 5.59375 C 18.128906 5.597656 18.125 5.601562 18.125 5.609375 C 18.125 5.613281 18.125 5.625 18.125 5.636719 L 18.125 6.183594 C 18.125 6.195312 18.125 6.203125 18.125 6.210938 C 18.128906 6.214844 18.128906 6.222656 18.132812 6.226562 C 18.136719 6.226562 18.140625 6.230469 18.148438 6.230469 C 18.15625 6.230469 18.164062 6.230469 18.175781 6.230469 L 18.175781 6.238281 Z M 17.988281 6.238281 " fill-opacity="1" fill-rule="nonzero"/><path fill="#335ad3" d="M 18.773438 6.238281 L 18.773438 6.230469 C 18.785156 6.230469 18.796875 6.226562 18.804688 6.222656 C 18.8125 6.214844 18.8125 6.207031 18.804688 6.1875 L 18.746094 6.039062 L 18.449219 6.039062 L 18.394531 6.175781 C 18.386719 6.195312 18.382812 6.207031 18.386719 6.214844 C 18.390625 6.226562 18.402344 6.230469 18.425781 6.230469 L 18.425781 6.242188 L 18.285156 6.242188 L 18.285156 6.230469 C 18.292969 6.230469 18.300781 6.226562 18.304688 6.222656 C 18.3125 6.21875 18.316406 6.214844 18.320312 6.210938 C 18.324219 6.203125 18.328125 6.199219 18.332031 6.191406 C 18.335938 6.183594 18.339844 6.179688 18.339844 6.171875 L 18.59375 5.570312 L 18.644531 5.570312 L 18.90625 6.199219 C 18.914062 6.214844 18.929688 6.226562 18.949219 6.230469 L 18.949219 6.238281 Z M 18.597656 5.671875 L 18.46875 5.992188 L 18.726562 5.992188 Z M 18.597656 5.671875 " fill-opacity="1" fill-rule="nonzero"/><path fill="#335ad3" d="M 19.742188 6.234375 C 19.703125 6.246094 19.664062 6.25 19.621094 6.25 C 19.570312 6.25 19.523438 6.242188 19.480469 6.226562 C 19.441406 6.207031 19.40625 6.183594 19.378906 6.15625 C 19.347656 6.125 19.328125 6.089844 19.3125 6.046875 C 19.296875 6.003906 19.289062 5.957031 19.289062 5.90625 C 19.289062 5.855469 19.296875 5.8125 19.3125 5.769531 C 19.328125 5.726562 19.351562 5.691406 19.378906 5.660156 C 19.410156 5.628906 19.445312 5.605469 19.484375 5.589844 C 19.523438 5.570312 19.570312 5.5625 19.621094 5.5625 C 19.65625 5.5625 19.691406 5.566406 19.726562 5.574219 C 19.730469 5.574219 19.734375 5.578125 19.742188 5.578125 C 19.746094 5.578125 19.753906 5.582031 19.757812 5.582031 C 19.765625 5.585938 19.773438 5.585938 19.777344 5.589844 C 19.785156 5.589844 19.789062 5.589844 19.792969 5.589844 C 19.804688 5.589844 19.8125 5.585938 19.816406 5.570312 L 19.828125 5.570312 L 19.828125 5.609375 C 19.828125 5.621094 19.828125 5.632812 19.828125 5.648438 C 19.828125 5.664062 19.828125 5.675781 19.824219 5.6875 C 19.824219 5.703125 19.824219 5.710938 19.820312 5.722656 C 19.796875 5.6875 19.773438 5.65625 19.746094 5.636719 C 19.714844 5.621094 19.679688 5.609375 19.636719 5.609375 C 19.589844 5.609375 19.554688 5.617188 19.519531 5.632812 C 19.488281 5.648438 19.464844 5.671875 19.441406 5.699219 C 19.421875 5.726562 19.40625 5.757812 19.398438 5.792969 C 19.386719 5.828125 19.382812 5.867188 19.382812 5.90625 C 19.382812 5.945312 19.386719 5.984375 19.398438 6.023438 C 19.40625 6.058594 19.421875 6.089844 19.445312 6.113281 C 19.464844 6.140625 19.492188 6.164062 19.523438 6.175781 C 19.558594 6.191406 19.59375 6.199219 19.640625 6.199219 C 19.65625 6.199219 19.675781 6.199219 19.691406 6.199219 C 19.710938 6.199219 19.726562 6.199219 19.746094 6.195312 C 19.765625 6.191406 19.78125 6.1875 19.796875 6.179688 C 19.8125 6.175781 19.828125 6.167969 19.84375 6.15625 L 19.847656 6.171875 C 19.816406 6.199219 19.78125 6.21875 19.742188 6.234375 Z M 19.742188 6.234375 " fill-opacity="1" fill-rule="nonzero"/><path fill="#335ad3" d="M 20.484375 6.039062 C 20.46875 6.082031 20.449219 6.117188 20.421875 6.148438 C 20.394531 6.179688 20.363281 6.207031 20.324219 6.226562 C 20.285156 6.242188 20.242188 6.25 20.191406 6.25 C 20.140625 6.25 20.097656 6.242188 20.058594 6.226562 C 20.019531 6.207031 19.988281 6.183594 19.960938 6.152344 C 19.933594 6.121094 19.914062 6.082031 19.898438 6.042969 C 19.886719 6 19.878906 5.957031 19.878906 5.90625 C 19.878906 5.847656 19.890625 5.800781 19.90625 5.757812 C 19.925781 5.710938 19.949219 5.675781 19.976562 5.648438 C 20.007812 5.617188 20.039062 5.597656 20.078125 5.582031 C 20.113281 5.566406 20.152344 5.5625 20.191406 5.5625 C 20.226562 5.5625 20.265625 5.570312 20.304688 5.582031 C 20.339844 5.597656 20.375 5.621094 20.402344 5.648438 C 20.433594 5.675781 20.457031 5.710938 20.472656 5.757812 C 20.492188 5.800781 20.5 5.851562 20.5 5.90625 C 20.5 5.957031 20.492188 6 20.480469 6.039062 Z M 20.402344 5.804688 C 20.394531 5.769531 20.382812 5.734375 20.363281 5.707031 C 20.347656 5.675781 20.324219 5.65625 20.296875 5.636719 C 20.269531 5.617188 20.234375 5.609375 20.191406 5.609375 C 20.152344 5.609375 20.117188 5.617188 20.089844 5.636719 C 20.0625 5.65625 20.039062 5.679688 20.019531 5.707031 C 20.003906 5.734375 19.992188 5.769531 19.984375 5.804688 C 19.976562 5.839844 19.972656 5.875 19.972656 5.90625 C 19.972656 5.941406 19.976562 5.976562 19.984375 6.011719 C 19.992188 6.046875 20.003906 6.082031 20.019531 6.109375 C 20.039062 6.136719 20.0625 6.160156 20.089844 6.179688 C 20.117188 6.199219 20.152344 6.207031 20.191406 6.207031 C 20.234375 6.207031 20.269531 6.199219 20.296875 6.179688 C 20.324219 6.160156 20.347656 6.136719 20.367188 6.109375 C 20.382812 6.078125 20.394531 6.046875 20.402344 6.011719 C 20.414062 5.976562 20.417969 5.941406 20.417969 5.90625 C 20.417969 5.875 20.414062 5.839844 20.402344 5.804688 Z M 20.402344 5.804688 " fill-opacity="1" fill-rule="nonzero"/><path fill="#335ad3" d="M 21.023438 6.238281 C 21.007812 6.207031 20.992188 6.171875 20.976562 6.144531 C 20.960938 6.117188 20.945312 6.09375 20.925781 6.066406 C 20.90625 6.042969 20.886719 6.019531 20.863281 6 C 20.84375 5.976562 20.820312 5.953125 20.792969 5.929688 L 20.722656 5.929688 L 20.722656 6.183594 C 20.722656 6.195312 20.722656 6.203125 20.722656 6.207031 C 20.722656 6.214844 20.726562 6.21875 20.730469 6.222656 C 20.734375 6.226562 20.738281 6.230469 20.746094 6.230469 C 20.753906 6.230469 20.761719 6.230469 20.769531 6.230469 L 20.769531 6.238281 L 20.59375 6.238281 L 20.59375 6.230469 C 20.601562 6.230469 20.609375 6.230469 20.617188 6.230469 C 20.621094 6.230469 20.628906 6.226562 20.628906 6.222656 C 20.632812 6.21875 20.636719 6.214844 20.636719 6.207031 C 20.636719 6.203125 20.636719 6.195312 20.636719 6.183594 L 20.636719 5.632812 C 20.636719 5.625 20.636719 5.613281 20.636719 5.609375 C 20.636719 5.601562 20.632812 5.597656 20.628906 5.59375 C 20.628906 5.589844 20.621094 5.589844 20.617188 5.589844 C 20.609375 5.589844 20.601562 5.585938 20.59375 5.585938 L 20.59375 5.578125 L 20.828125 5.578125 C 20.855469 5.578125 20.882812 5.578125 20.910156 5.585938 C 20.933594 5.59375 20.960938 5.601562 20.980469 5.617188 C 21 5.628906 21.015625 5.648438 21.027344 5.671875 C 21.039062 5.691406 21.046875 5.71875 21.046875 5.753906 C 21.046875 5.777344 21.039062 5.800781 21.03125 5.816406 C 21.023438 5.835938 21.011719 5.851562 20.996094 5.867188 C 20.980469 5.878906 20.960938 5.890625 20.941406 5.898438 C 20.921875 5.90625 20.898438 5.910156 20.878906 5.914062 C 20.894531 5.929688 20.910156 5.941406 20.921875 5.953125 C 20.933594 5.964844 20.945312 5.976562 20.953125 5.984375 C 20.964844 5.996094 20.972656 6.007812 20.980469 6.015625 C 20.988281 6.027344 21 6.039062 21.011719 6.054688 C 21.023438 6.070312 21.035156 6.089844 21.046875 6.109375 C 21.058594 6.132812 21.070312 6.152344 21.082031 6.167969 C 21.089844 6.1875 21.101562 6.203125 21.109375 6.214844 C 21.117188 6.226562 21.125 6.234375 21.132812 6.234375 L 21.132812 6.242188 L 21.023438 6.242188 Z M 20.722656 5.882812 L 20.769531 5.882812 C 20.792969 5.882812 20.816406 5.878906 20.835938 5.875 C 20.859375 5.871094 20.882812 5.863281 20.898438 5.855469 C 20.917969 5.84375 20.933594 5.828125 20.945312 5.8125 C 20.953125 5.792969 20.960938 5.769531 20.960938 5.742188 C 20.960938 5.71875 20.957031 5.699219 20.945312 5.683594 C 20.9375 5.667969 20.925781 5.65625 20.910156 5.644531 C 20.894531 5.636719 20.875 5.628906 20.855469 5.628906 C 20.835938 5.625 20.816406 5.621094 20.796875 5.621094 L 20.777344 5.621094 C 20.769531 5.621094 20.765625 5.621094 20.757812 5.621094 C 20.75 5.621094 20.742188 5.625 20.738281 5.628906 C 20.730469 5.628906 20.726562 5.632812 20.722656 5.636719 Z M 20.722656 5.882812 " fill-opacity="1" fill-rule="nonzero"/><path fill="#335ad3" d="M 21.382812 6.179688 C 21.382812 6.195312 21.382812 6.203125 21.382812 6.207031 C 21.386719 6.214844 21.386719 6.21875 21.390625 6.222656 C 21.394531 6.226562 21.402344 6.226562 21.40625 6.230469 C 21.414062 6.230469 21.421875 6.230469 21.433594 6.230469 L 21.433594 6.238281 L 21.253906 6.238281 L 21.253906 6.230469 C 21.261719 6.230469 21.269531 6.230469 21.277344 6.226562 C 21.285156 6.226562 21.289062 6.226562 21.292969 6.222656 C 21.292969 6.21875 21.296875 6.214844 21.296875 6.207031 C 21.296875 6.203125 21.296875 6.191406 21.296875 6.179688 L 21.296875 5.632812 C 21.296875 5.625 21.296875 5.613281 21.296875 5.609375 C 21.296875 5.601562 21.292969 5.597656 21.292969 5.59375 C 21.289062 5.589844 21.285156 5.589844 21.277344 5.585938 C 21.269531 5.585938 21.261719 5.585938 21.253906 5.585938 L 21.253906 5.574219 L 21.472656 5.574219 C 21.503906 5.574219 21.53125 5.578125 21.558594 5.585938 C 21.585938 5.59375 21.613281 5.605469 21.632812 5.617188 C 21.65625 5.632812 21.671875 5.652344 21.6875 5.675781 C 21.699219 5.699219 21.703125 5.726562 21.703125 5.761719 C 21.703125 5.796875 21.699219 5.828125 21.683594 5.851562 C 21.671875 5.875 21.652344 5.894531 21.628906 5.910156 C 21.609375 5.925781 21.582031 5.9375 21.554688 5.945312 C 21.523438 5.949219 21.492188 5.953125 21.460938 5.953125 L 21.382812 5.949219 L 21.382812 6.183594 Z M 21.382812 5.902344 L 21.453125 5.902344 C 21.476562 5.902344 21.5 5.902344 21.519531 5.898438 C 21.539062 5.890625 21.558594 5.882812 21.574219 5.871094 C 21.589844 5.863281 21.597656 5.847656 21.605469 5.828125 C 21.617188 5.808594 21.621094 5.785156 21.621094 5.757812 C 21.621094 5.734375 21.617188 5.714844 21.605469 5.695312 C 21.597656 5.679688 21.585938 5.664062 21.570312 5.65625 C 21.554688 5.644531 21.539062 5.636719 21.519531 5.628906 C 21.496094 5.625 21.476562 5.621094 21.453125 5.621094 C 21.449219 5.621094 21.441406 5.621094 21.4375 5.621094 C 21.429688 5.621094 21.421875 5.621094 21.417969 5.621094 C 21.410156 5.621094 21.402344 5.621094 21.398438 5.621094 C 21.390625 5.621094 21.386719 5.621094 21.382812 5.625 Z M 21.382812 5.902344 " fill-opacity="1" fill-rule="nonzero"/><path fill="#335ad3" d="M 22.40625 6.039062 C 22.390625 6.082031 22.371094 6.117188 22.34375 6.148438 C 22.320312 6.179688 22.285156 6.207031 22.246094 6.226562 C 22.210938 6.242188 22.164062 6.25 22.113281 6.25 C 22.066406 6.25 22.019531 6.242188 21.980469 6.226562 C 21.941406 6.207031 21.910156 6.183594 21.882812 6.152344 C 21.859375 6.121094 21.835938 6.082031 21.824219 6.042969 C 21.808594 6 21.804688 5.957031 21.804688 5.90625 C 21.804688 5.847656 21.8125 5.800781 21.828125 5.757812 C 21.847656 5.710938 21.871094 5.675781 21.898438 5.648438 C 21.929688 5.617188 21.960938 5.597656 22 5.582031 C 22.035156 5.566406 22.074219 5.5625 22.113281 5.5625 C 22.152344 5.5625 22.191406 5.570312 22.226562 5.582031 C 22.265625 5.597656 22.296875 5.621094 22.328125 5.648438 C 22.355469 5.675781 22.378906 5.710938 22.398438 5.757812 C 22.414062 5.800781 22.421875 5.851562 22.421875 5.90625 C 22.421875 5.957031 22.414062 6 22.402344 6.039062 Z M 22.324219 5.804688 C 22.316406 5.769531 22.304688 5.734375 22.285156 5.707031 C 22.269531 5.675781 22.246094 5.65625 22.21875 5.636719 C 22.191406 5.617188 22.15625 5.609375 22.113281 5.609375 C 22.074219 5.609375 22.039062 5.617188 22.011719 5.636719 C 21.984375 5.65625 21.960938 5.679688 21.941406 5.707031 C 21.925781 5.734375 21.914062 5.769531 21.90625 5.804688 C 21.898438 5.839844 21.894531 5.875 21.894531 5.90625 C 21.894531 5.941406 21.898438 5.976562 21.90625 6.011719 C 21.914062 6.046875 21.925781 6.082031 21.941406 6.109375 C 21.960938 6.136719 21.984375 6.160156 22.011719 6.179688 C 22.039062 6.199219 22.074219 6.207031 22.113281 6.207031 C 22.15625 6.207031 22.191406 6.199219 22.21875 6.179688 C 22.246094 6.160156 22.269531 6.136719 22.289062 6.109375 C 22.304688 6.078125 22.316406 6.046875 22.328125 6.011719 C 22.335938 5.976562 22.339844 5.941406 22.339844 5.90625 C 22.339844 5.875 22.335938 5.839844 22.328125 5.804688 Z M 22.324219 5.804688 " fill-opacity="1" fill-rule="nonzero"/><path fill="#335ad3" d="M 22.945312 6.238281 C 22.929688 6.207031 22.914062 6.171875 22.898438 6.144531 C 22.882812 6.117188 22.867188 6.09375 22.847656 6.066406 C 22.828125 6.042969 22.808594 6.019531 22.785156 6 C 22.765625 5.976562 22.742188 5.953125 22.714844 5.929688 L 22.644531 5.929688 L 22.644531 6.183594 C 22.644531 6.195312 22.644531 6.203125 22.644531 6.207031 C 22.644531 6.214844 22.648438 6.21875 22.652344 6.222656 C 22.65625 6.226562 22.660156 6.230469 22.667969 6.230469 C 22.675781 6.230469 22.683594 6.230469 22.691406 6.230469 L 22.691406 6.238281 L 22.515625 6.238281 L 22.515625 6.230469 C 22.523438 6.230469 22.53125 6.230469 22.539062 6.230469 C 22.542969 6.230469 22.550781 6.226562 22.550781 6.222656 C 22.554688 6.21875 22.558594 6.214844 22.558594 6.207031 C 22.558594 6.203125 22.558594 6.195312 22.558594 6.183594 L 22.558594 5.632812 C 22.558594 5.625 22.558594 5.613281 22.558594 5.609375 C 22.558594 5.601562 22.554688 5.597656 22.550781 5.59375 C 22.550781 5.589844 22.542969 5.589844 22.539062 5.589844 C 22.53125 5.589844 22.523438 5.585938 22.515625 5.585938 L 22.515625 5.578125 L 22.75 5.578125 C 22.777344 5.578125 22.804688 5.578125 22.832031 5.585938 C 22.855469 5.59375 22.882812 5.601562 22.902344 5.617188 C 22.921875 5.628906 22.9375 5.648438 22.949219 5.671875 C 22.960938 5.691406 22.96875 5.71875 22.96875 5.753906 C 22.96875 5.777344 22.964844 5.800781 22.953125 5.816406 C 22.945312 5.835938 22.933594 5.851562 22.917969 5.867188 C 22.902344 5.878906 22.882812 5.890625 22.863281 5.898438 C 22.84375 5.90625 22.820312 5.910156 22.800781 5.914062 C 22.816406 5.929688 22.832031 5.941406 22.84375 5.953125 C 22.855469 5.964844 22.867188 5.976562 22.875 5.984375 C 22.886719 5.996094 22.894531 6.007812 22.902344 6.015625 C 22.910156 6.027344 22.921875 6.039062 22.933594 6.054688 C 22.945312 6.070312 22.957031 6.089844 22.96875 6.109375 C 22.980469 6.132812 22.992188 6.152344 23.003906 6.167969 C 23.011719 6.1875 23.023438 6.203125 23.03125 6.214844 C 23.039062 6.226562 23.046875 6.234375 23.054688 6.234375 L 23.054688 6.242188 L 22.945312 6.242188 Z M 22.644531 5.882812 L 22.691406 5.882812 C 22.714844 5.882812 22.738281 5.878906 22.761719 5.875 C 22.78125 5.871094 22.804688 5.863281 22.820312 5.855469 C 22.839844 5.84375 22.855469 5.828125 22.867188 5.8125 C 22.878906 5.792969 22.882812 5.769531 22.882812 5.742188 C 22.882812 5.71875 22.878906 5.699219 22.871094 5.683594 C 22.859375 5.667969 22.847656 5.65625 22.832031 5.644531 C 22.816406 5.636719 22.800781 5.628906 22.78125 5.628906 C 22.761719 5.625 22.742188 5.621094 22.71875 5.621094 L 22.699219 5.621094 C 22.695312 5.621094 22.6875 5.621094 22.679688 5.621094 C 22.671875 5.621094 22.667969 5.625 22.660156 5.628906 C 22.652344 5.628906 22.648438 5.632812 22.644531 5.636719 Z M 22.644531 5.882812 " fill-opacity="1" fill-rule="nonzero"/><path fill="#335ad3" d="M 23.589844 6.238281 L 23.589844 6.230469 C 23.605469 6.230469 23.613281 6.226562 23.621094 6.222656 C 23.628906 6.214844 23.628906 6.207031 23.621094 6.1875 L 23.5625 6.039062 L 23.265625 6.039062 L 23.210938 6.175781 C 23.203125 6.195312 23.203125 6.207031 23.203125 6.214844 C 23.207031 6.226562 23.21875 6.230469 23.242188 6.230469 L 23.242188 6.242188 L 23.101562 6.242188 L 23.101562 6.230469 C 23.109375 6.230469 23.117188 6.226562 23.121094 6.222656 C 23.128906 6.21875 23.132812 6.214844 23.136719 6.210938 C 23.140625 6.203125 23.144531 6.199219 23.148438 6.191406 C 23.152344 6.183594 23.15625 6.179688 23.15625 6.171875 L 23.410156 5.570312 L 23.460938 5.570312 L 23.722656 6.199219 C 23.730469 6.214844 23.746094 6.226562 23.765625 6.230469 L 23.765625 6.238281 Z M 23.414062 5.671875 L 23.285156 5.992188 L 23.546875 5.992188 Z M 23.414062 5.671875 " fill-opacity="1" fill-rule="nonzero"/><path fill="#335ad3" d="M 24.21875 5.691406 C 24.214844 5.667969 24.207031 5.648438 24.195312 5.640625 C 24.183594 5.628906 24.164062 5.625 24.136719 5.625 L 24.011719 5.625 L 24.011719 6.179688 C 24.011719 6.195312 24.011719 6.203125 24.011719 6.207031 C 24.015625 6.214844 24.015625 6.21875 24.019531 6.222656 C 24.023438 6.226562 24.027344 6.226562 24.035156 6.230469 C 24.042969 6.230469 24.050781 6.230469 24.0625 6.230469 L 24.0625 6.238281 L 23.875 6.238281 L 23.875 6.230469 C 23.882812 6.230469 23.894531 6.230469 23.898438 6.230469 C 23.90625 6.230469 23.914062 6.226562 23.917969 6.222656 C 23.921875 6.21875 23.921875 6.214844 23.925781 6.207031 C 23.925781 6.203125 23.925781 6.195312 23.925781 6.179688 L 23.925781 5.625 L 23.796875 5.625 C 23.773438 5.625 23.753906 5.628906 23.742188 5.640625 C 23.726562 5.648438 23.71875 5.667969 23.714844 5.695312 L 23.707031 5.695312 L 23.710938 5.574219 L 24.226562 5.574219 L 24.226562 5.695312 L 24.21875 5.695312 Z M 24.21875 5.691406 " fill-opacity="1" fill-rule="nonzero"/><path fill="#335ad3" d="M 24.332031 6.238281 L 24.332031 6.230469 C 24.34375 6.230469 24.351562 6.230469 24.359375 6.230469 C 24.367188 6.230469 24.371094 6.226562 24.375 6.226562 C 24.378906 6.222656 24.382812 6.214844 24.382812 6.210938 C 24.386719 6.203125 24.386719 6.195312 24.386719 6.183594 L 24.386719 5.636719 C 24.386719 5.625 24.386719 5.613281 24.382812 5.609375 C 24.382812 5.601562 24.378906 5.597656 24.375 5.59375 C 24.371094 5.589844 24.367188 5.589844 24.359375 5.589844 C 24.351562 5.589844 24.34375 5.589844 24.332031 5.589844 L 24.332031 5.578125 L 24.523438 5.578125 L 24.523438 5.589844 C 24.511719 5.589844 24.503906 5.589844 24.496094 5.589844 C 24.488281 5.589844 24.484375 5.589844 24.480469 5.59375 C 24.476562 5.597656 24.472656 5.601562 24.472656 5.609375 C 24.46875 5.613281 24.46875 5.625 24.46875 5.636719 L 24.46875 6.183594 C 24.46875 6.195312 24.46875 6.203125 24.472656 6.210938 C 24.472656 6.214844 24.476562 6.222656 24.480469 6.226562 C 24.484375 6.226562 24.488281 6.230469 24.496094 6.230469 C 24.503906 6.230469 24.511719 6.230469 24.523438 6.230469 L 24.523438 6.238281 Z M 24.332031 6.238281 " fill-opacity="1" fill-rule="nonzero"/><g clip-path="url(#9e1216db4a)"><path fill="#335ad3" d="M 25.234375 5.597656 C 25.226562 5.605469 25.222656 5.613281 25.21875 5.625 L 24.976562 6.246094 L 24.9375 6.246094 L 24.683594 5.628906 C 24.679688 5.613281 24.671875 5.605469 24.664062 5.597656 C 24.65625 5.589844 24.644531 5.585938 24.632812 5.585938 L 24.632812 5.574219 L 24.804688 5.574219 L 24.804688 5.585938 C 24.796875 5.585938 24.792969 5.585938 24.785156 5.585938 C 24.78125 5.585938 24.773438 5.585938 24.769531 5.589844 C 24.765625 5.589844 24.765625 5.59375 24.765625 5.597656 C 24.765625 5.605469 24.765625 5.609375 24.765625 5.617188 L 24.96875 6.125 L 25.152344 5.640625 C 25.160156 5.621094 25.160156 5.609375 25.15625 5.601562 C 25.152344 5.59375 25.140625 5.585938 25.121094 5.585938 L 25.121094 5.574219 L 25.261719 5.574219 L 25.261719 5.585938 C 25.25 5.585938 25.238281 5.589844 25.230469 5.597656 Z M 25.234375 5.597656 " fill-opacity="1" fill-rule="nonzero"/></g><g clip-path="url(#11fdfb39e5)"><path fill="#335ad3" d="M 25.640625 6.238281 L 25.640625 6.230469 C 25.65625 6.230469 25.667969 6.226562 25.675781 6.222656 C 25.679688 6.214844 25.679688 6.207031 25.675781 6.1875 L 25.613281 6.039062 L 25.320312 6.039062 L 25.261719 6.175781 C 25.257812 6.195312 25.253906 6.207031 25.257812 6.214844 C 25.261719 6.226562 25.273438 6.230469 25.292969 6.230469 L 25.292969 6.242188 L 25.15625 6.242188 L 25.15625 6.230469 C 25.164062 6.230469 25.171875 6.226562 25.175781 6.222656 C 25.179688 6.21875 25.1875 6.214844 25.191406 6.210938 C 25.195312 6.203125 25.199219 6.199219 25.203125 6.191406 C 25.203125 6.183594 25.207031 6.179688 25.210938 6.171875 L 25.460938 5.570312 L 25.515625 5.570312 L 25.777344 6.199219 C 25.78125 6.214844 25.796875 6.226562 25.816406 6.230469 L 25.816406 6.238281 Z M 25.46875 5.671875 L 25.339844 5.992188 L 25.597656 5.992188 Z M 25.46875 5.671875 " fill-opacity="1" fill-rule="nonzero"/></g><path fill="#335ad3" d="M 15.699219 4.324219 L 15.699219 4.261719 C 15.792969 4.261719 15.863281 4.246094 15.910156 4.210938 C 15.953125 4.175781 15.953125 4.109375 15.910156 4.003906 L 15.527344 3.070312 L 13.679688 3.070312 L 13.332031 3.929688 C 13.289062 4.039062 13.277344 4.117188 13.292969 4.175781 C 13.3125 4.234375 13.386719 4.261719 13.519531 4.261719 L 13.519531 4.324219 L 12.65625 4.324219 L 12.65625 4.261719 C 12.707031 4.257812 12.75 4.246094 12.785156 4.21875 C 12.820312 4.195312 12.847656 4.164062 12.875 4.132812 C 12.902344 4.097656 12.925781 4.0625 12.945312 4.023438 C 12.960938 3.980469 12.980469 3.941406 12.996094 3.898438 L 14.570312 0.121094 L 14.90625 0.121094 L 16.542969 4.058594 C 16.585938 4.171875 16.675781 4.238281 16.804688 4.261719 L 16.804688 4.324219 Z M 14.613281 0.765625 L 13.800781 2.769531 L 15.421875 2.769531 Z M 14.613281 0.765625 " fill-opacity="1" fill-rule="nonzero"/><path fill="#335ad3" d="M 19.183594 4.285156 C 18.949219 4.359375 18.703125 4.398438 18.445312 4.398438 C 18.117188 4.398438 17.824219 4.347656 17.566406 4.242188 C 17.3125 4.136719 17.09375 3.992188 16.914062 3.800781 C 16.734375 3.613281 16.59375 3.386719 16.5 3.121094 C 16.40625 2.859375 16.359375 2.566406 16.359375 2.246094 C 16.359375 1.925781 16.410156 1.652344 16.507812 1.390625 C 16.605469 1.125 16.746094 0.894531 16.929688 0.703125 C 17.109375 0.507812 17.328125 0.355469 17.585938 0.246094 C 17.839844 0.140625 18.128906 0.0859375 18.441406 0.0859375 C 18.660156 0.0859375 18.878906 0.109375 19.09375 0.15625 C 19.117188 0.164062 19.152344 0.175781 19.191406 0.1875 C 19.230469 0.195312 19.269531 0.207031 19.308594 0.21875 C 19.351562 0.230469 19.390625 0.242188 19.425781 0.25 C 19.464844 0.257812 19.492188 0.261719 19.519531 0.261719 C 19.597656 0.261719 19.644531 0.226562 19.667969 0.152344 L 19.734375 0.152344 L 19.734375 0.378906 C 19.734375 0.460938 19.734375 0.546875 19.730469 0.632812 C 19.730469 0.71875 19.726562 0.800781 19.71875 0.882812 C 19.714844 0.964844 19.703125 1.039062 19.683594 1.097656 C 19.542969 0.867188 19.382812 0.6875 19.207031 0.566406 C 19.03125 0.449219 18.800781 0.386719 18.515625 0.386719 C 18.234375 0.386719 18.003906 0.4375 17.804688 0.539062 C 17.601562 0.636719 17.4375 0.773438 17.308594 0.941406 C 17.179688 1.109375 17.085938 1.304688 17.019531 1.53125 C 16.957031 1.753906 16.925781 1.992188 16.925781 2.242188 C 16.925781 2.492188 16.957031 2.742188 17.023438 2.96875 C 17.089844 3.191406 17.1875 3.390625 17.320312 3.554688 C 17.453125 3.71875 17.621094 3.851562 17.824219 3.949219 C 18.027344 4.042969 18.269531 4.09375 18.546875 4.09375 C 18.644531 4.09375 18.753906 4.089844 18.867188 4.085938 C 18.980469 4.082031 19.097656 4.070312 19.207031 4.050781 C 19.320312 4.035156 19.429688 4.003906 19.53125 3.964844 C 19.632812 3.925781 19.726562 3.871094 19.808594 3.804688 L 19.832031 3.90625 C 19.636719 4.082031 19.417969 4.210938 19.183594 4.285156 Z M 19.183594 4.285156 " fill-opacity="1" fill-rule="nonzero"/><path fill="#335ad3" d="M 23.851562 4.324219 L 23.851562 4.261719 C 23.917969 4.261719 23.96875 4.261719 24.011719 4.253906 C 24.050781 4.25 24.082031 4.234375 24.105469 4.214844 C 24.128906 4.195312 24.144531 4.164062 24.152344 4.125 C 24.160156 4.085938 24.164062 4.03125 24.164062 3.960938 L 24.164062 0.644531 L 22.59375 4.324219 L 22.382812 4.324219 L 20.808594 0.722656 L 20.808594 3.800781 C 20.808594 3.878906 20.808594 3.949219 20.8125 4.003906 C 20.816406 4.0625 20.824219 4.109375 20.84375 4.148438 C 20.859375 4.1875 20.890625 4.21875 20.933594 4.234375 C 20.980469 4.253906 21.042969 4.261719 21.128906 4.261719 L 21.128906 4.324219 L 20.140625 4.324219 L 20.140625 4.261719 C 20.226562 4.261719 20.292969 4.253906 20.339844 4.234375 C 20.386719 4.21875 20.417969 4.191406 20.4375 4.152344 C 20.457031 4.117188 20.464844 4.070312 20.46875 4.011719 C 20.46875 3.953125 20.46875 3.886719 20.46875 3.804688 L 20.46875 0.527344 C 20.46875 0.453125 20.464844 0.394531 20.457031 0.355469 C 20.445312 0.3125 20.425781 0.285156 20.402344 0.265625 C 20.378906 0.246094 20.34375 0.234375 20.300781 0.230469 C 20.257812 0.226562 20.203125 0.226562 20.140625 0.226562 L 20.140625 0.164062 L 21.097656 0.164062 L 22.589844 3.570312 L 24.042969 0.164062 L 24.980469 0.164062 L 24.980469 0.226562 C 24.917969 0.226562 24.863281 0.230469 24.824219 0.234375 C 24.785156 0.242188 24.757812 0.253906 24.734375 0.277344 C 24.714844 0.296875 24.699219 0.328125 24.695312 0.367188 C 24.6875 0.410156 24.6875 0.460938 24.6875 0.527344 L 24.6875 3.960938 C 24.6875 4.03125 24.6875 4.085938 24.695312 4.125 C 24.699219 4.164062 24.714844 4.195312 24.734375 4.214844 C 24.753906 4.234375 24.785156 4.25 24.824219 4.253906 C 24.863281 4.261719 24.917969 4.265625 24.980469 4.265625 L 24.980469 4.324219 Z M 23.851562 4.324219 " fill-opacity="1" fill-rule="nonzero"/><path fill="#335ad3" d="M 12.050781 3.414062 C 12.050781 4.449219 12.039062 5.445312 12.015625 6.386719 C 11.984375 5.328125 11.96875 4.191406 11.96875 3.007812 C 11.96875 1.972656 11.980469 0.976562 12.003906 0.0351562 C 12.035156 1.089844 12.050781 2.226562 12.050781 3.414062 Z M 12.050781 3.414062 " fill-opacity="1" fill-rule="nonzero"/><path fill="#335ad3" d="M 8.523438 5.558594 C 9 5.558594 9.390625 5.171875 9.390625 4.691406 C 9.390625 4.214844 9 3.828125 8.523438 3.828125 C 8.046875 3.828125 7.65625 4.214844 7.65625 4.691406 C 7.65625 5.171875 8.046875 5.558594 8.523438 5.558594 Z M 8.523438 5.558594 " fill-opacity="1" fill-rule="nonzero"/><path fill="#335ad3" d="M 3.667969 5.558594 C 4.148438 5.558594 4.535156 5.171875 4.535156 4.691406 C 4.535156 4.214844 4.148438 3.828125 3.667969 3.828125 C 3.191406 3.828125 2.804688 4.214844 2.804688 4.691406 C 2.804688 5.171875 3.191406 5.558594 3.667969 5.558594 Z M 3.667969 5.558594 " fill-opacity="1" fill-rule="nonzero"/><path fill="#335ad3" d="M 3.824219 4.296875 L 5.273438 2.152344 C 5.273438 2.152344 6.101562 2.285156 6.113281 2.808594 C 6.113281 2.808594 5.597656 1.726562 4.074219 4.457031 Z M 3.824219 4.296875 " fill-opacity="1" fill-rule="nonzero"/><path fill="#335ad3" d="M 8.421875 4.296875 L 6.972656 2.152344 C 6.972656 2.152344 6.140625 2.285156 6.132812 2.808594 C 6.132812 2.808594 6.648438 1.726562 8.171875 4.457031 Z M 8.421875 4.296875 " fill-opacity="1" fill-rule="nonzero"/><path fill="#335ad3" d="M 11.453125 2.613281 C 11.191406 2.882812 10.824219 3.050781 10.421875 3.0625 C 10.378906 3.0625 10.339844 3.0625 10.296875 3.0625 L 10.289062 3.0625 C 8.101562 3.066406 6.3125 4.761719 6.15625 6.90625 C 6.148438 6.804688 6.148438 6.703125 6.148438 6.601562 C 6.148438 4.664062 7.476562 3.035156 9.273438 2.578125 C 9.601562 2.496094 9.941406 2.449219 10.296875 2.449219 C 10.699219 2.449219 11.085938 2.507812 11.453125 2.613281 Z M 11.453125 2.613281 " fill-opacity="1" fill-rule="nonzero"/><path fill="#335ad3" d="M 11.453125 2.613281 C 11.1875 2.882812 10.824219 3.050781 10.421875 3.0625 C 10.40625 3.066406 10.394531 3.066406 10.378906 3.066406 C 10.347656 3.066406 10.320312 3.0625 10.289062 3.0625 C 9.886719 3.039062 9.527344 2.855469 9.273438 2.578125 C 9.597656 2.496094 9.941406 2.449219 10.296875 2.449219 C 10.699219 2.449219 11.085938 2.507812 11.449219 2.613281 Z M 11.453125 2.613281 " fill-opacity="1" fill-rule="nonzero"/><g clip-path="url(#03651732e7)"><path fill="#335ad3" d="M 0.808594 2.613281 C 1.070312 2.882812 1.4375 3.050781 1.839844 3.0625 C 1.878906 3.0625 1.921875 3.0625 1.964844 3.0625 L 1.972656 3.0625 C 4.160156 3.066406 5.949219 4.761719 6.101562 6.90625 C 6.113281 6.804688 6.113281 6.703125 6.113281 6.601562 C 6.113281 4.664062 4.785156 3.035156 2.988281 2.578125 C 2.660156 2.496094 2.316406 2.449219 1.964844 2.449219 C 1.5625 2.449219 1.175781 2.507812 0.808594 2.613281 Z M 0.808594 2.613281 " fill-opacity="1" fill-rule="nonzero"/></g><g clip-path="url(#c05b7bf49a)"><path fill="#335ad3" d="M 0.808594 2.613281 C 1.070312 2.882812 1.4375 3.050781 1.839844 3.0625 C 1.851562 3.066406 1.867188 3.066406 1.882812 3.066406 C 1.914062 3.066406 1.941406 3.0625 1.972656 3.0625 C 2.375 3.039062 2.734375 2.855469 2.988281 2.578125 C 2.660156 2.496094 2.320312 2.449219 1.964844 2.449219 C 1.5625 2.449219 1.175781 2.507812 0.808594 2.613281 Z M 0.808594 2.613281 " fill-opacity="1" fill-rule="nonzero"/></g><path fill="#335ad3" d="M 10.121094 3.921875 C 10.121094 4.695312 9.894531 5.417969 9.5 6.023438 L 9.226562 6.023438 C 9.644531 5.425781 9.894531 4.703125 9.894531 3.921875 L 9.894531 3.910156 C 9.890625 3.953125 9.890625 3.996094 9.886719 4.035156 C 9.75 2.136719 8.121094 0.636719 6.128906 0.636719 C 4.140625 0.636719 2.511719 2.136719 2.375 4.035156 C 2.371094 3.988281 2.371094 3.945312 2.367188 3.898438 C 2.367188 3.90625 2.367188 3.914062 2.367188 3.921875 C 2.367188 4.703125 2.617188 5.425781 3.035156 6.023438 L 2.761719 6.023438 C 2.367188 5.417969 2.140625 4.695312 2.140625 3.921875 C 2.140625 1.757812 3.925781 0 6.128906 0 C 7.25 0 8.261719 0.453125 8.984375 1.183594 C 9.074219 1.269531 9.15625 1.363281 9.234375 1.457031 C 9.789062 2.132812 10.121094 2.988281 10.121094 3.921875 Z M 10.121094 3.921875 " fill-opacity="1" fill-rule="nonzero"/><path fill="#335ad3" d="M 18.117188 5.328125 C 18.125 5.316406 18.136719 5.304688 18.144531 5.292969 C 18.152344 5.277344 18.164062 5.265625 18.171875 5.257812 C 18.179688 5.246094 18.1875 5.238281 18.191406 5.238281 C 18.203125 5.238281 18.210938 5.238281 18.214844 5.238281 C 18.222656 5.238281 18.230469 5.242188 18.238281 5.246094 C 18.242188 5.246094 18.242188 5.25 18.246094 5.25 C 18.25 5.253906 18.25 5.253906 18.25 5.257812 C 18.253906 5.257812 18.253906 5.261719 18.253906 5.261719 C 18.253906 5.265625 18.253906 5.265625 18.25 5.269531 L 18.144531 5.351562 L 18.097656 5.351562 C 18.101562 5.347656 18.109375 5.339844 18.117188 5.328125 Z M 18.117188 5.328125 " fill-opacity="1" fill-rule="nonzero"/></svg>