<svg xmlns="http://www.w3.org/2000/svg" xmlns:xlink="http://www.w3.org/1999/xlink" width="317" zoomAndPan="magnify" viewBox="0 0 237.75 183.000001" height="244" preserveAspectRatio="xMidYMid meet" version="1.0"><defs><clipPath id="78a2843074"><path d="M 0.523438 0 L 236.234375 0 L 236.234375 90 L 0.523438 90 Z M 0.523438 0 " clip-rule="nonzero"/></clipPath><clipPath id="c3a5c74850"><path d="M 0.523438 39 L 236.234375 39 L 236.234375 181.257812 L 0.523438 181.257812 Z M 0.523438 39 " clip-rule="nonzero"/></clipPath></defs><g clip-path="url(#78a2843074)"><path fill="#2c2824" d="M 118.4375 89.183594 L 236.332031 18.445312 L 236.332031 18.136719 C 236.332031 17.542969 236.300781 16.949219 236.242188 16.359375 C 236.183594 15.769531 236.097656 15.183594 235.980469 14.597656 C 235.867188 14.015625 235.722656 13.441406 235.550781 12.871094 C 235.378906 12.304688 235.175781 11.746094 234.949219 11.195312 C 234.722656 10.648438 234.46875 10.113281 234.1875 9.585938 C 233.910156 9.0625 233.605469 8.554688 233.273438 8.0625 C 232.945312 7.566406 232.589844 7.089844 232.214844 6.632812 C 231.835938 6.171875 231.4375 5.734375 231.019531 5.3125 C 230.597656 4.890625 230.160156 4.492188 229.699219 4.117188 C 229.238281 3.738281 228.761719 3.386719 228.269531 3.058594 C 227.777344 2.726562 227.265625 2.421875 226.742188 2.140625 C 226.21875 1.863281 225.683594 1.609375 225.132812 1.378906 C 224.585938 1.152344 224.027344 0.953125 223.457031 0.78125 C 222.890625 0.609375 222.3125 0.464844 221.730469 0.347656 C 221.148438 0.234375 220.5625 0.144531 219.96875 0.0859375 C 219.378906 0.0273438 218.785156 0 218.191406 0 L 18.679688 0 C 18.085938 0 17.492188 0.0273438 16.902344 0.0859375 C 16.308594 0.144531 15.722656 0.234375 15.140625 0.347656 C 14.558594 0.464844 13.984375 0.609375 13.414062 0.78125 C 12.84375 0.953125 12.285156 1.152344 11.738281 1.378906 C 11.1875 1.609375 10.652344 1.863281 10.128906 2.140625 C 9.605469 2.421875 9.097656 2.726562 8.601562 3.058594 C 8.109375 3.386719 7.632812 3.738281 7.171875 4.117188 C 6.714844 4.492188 6.273438 4.890625 5.855469 5.3125 C 5.433594 5.734375 5.035156 6.171875 4.660156 6.632812 C 4.28125 7.089844 3.929688 7.566406 3.597656 8.0625 C 3.269531 8.554688 2.964844 9.0625 2.683594 9.585938 C 2.402344 10.113281 2.148438 10.648438 1.921875 11.195312 C 1.695312 11.746094 1.496094 12.304688 1.324219 12.871094 C 1.148438 13.441406 1.007812 14.015625 0.890625 14.597656 C 0.773438 15.183594 0.6875 15.769531 0.628906 16.359375 C 0.570312 16.949219 0.542969 17.542969 0.542969 18.136719 L 0.542969 18.445312 Z M 118.4375 89.183594 " fill-opacity="1" fill-rule="nonzero"/></g><g clip-path="url(#c3a5c74850)"><path fill="#2c2824" d="M 123.105469 107.527344 C 122.402344 107.953125 121.652344 108.273438 120.859375 108.496094 C 120.066406 108.714844 119.257812 108.824219 118.4375 108.824219 C 117.613281 108.824219 116.804688 108.714844 116.011719 108.496094 C 115.21875 108.273438 114.472656 107.953125 113.765625 107.527344 L 0.542969 39.59375 L 0.542969 163.238281 C 0.542969 163.832031 0.570312 164.425781 0.628906 165.015625 C 0.6875 165.609375 0.773438 166.195312 0.890625 166.777344 C 1.007812 167.359375 1.148438 167.933594 1.324219 168.503906 C 1.496094 169.070312 1.695312 169.628906 1.921875 170.179688 C 2.148438 170.726562 2.402344 171.265625 2.683594 171.789062 C 2.964844 172.3125 3.269531 172.820312 3.597656 173.316406 C 3.929688 173.808594 4.28125 174.285156 4.660156 174.746094 C 5.035156 175.203125 5.433594 175.644531 5.855469 176.0625 C 6.273438 176.484375 6.714844 176.882812 7.171875 177.257812 C 7.632812 177.636719 8.109375 177.988281 8.601562 178.320312 C 9.097656 178.648438 9.605469 178.953125 10.128906 179.234375 C 10.652344 179.515625 11.1875 179.769531 11.738281 179.996094 C 12.285156 180.222656 12.84375 180.421875 13.414062 180.59375 C 13.984375 180.765625 14.558594 180.910156 15.140625 181.027344 C 15.722656 181.144531 16.308594 181.230469 16.902344 181.289062 C 17.492188 181.347656 18.085938 181.375 18.679688 181.375 L 218.191406 181.375 C 218.785156 181.375 219.378906 181.347656 219.96875 181.289062 C 220.5625 181.230469 221.148438 181.144531 221.730469 181.027344 C 222.3125 180.910156 222.890625 180.765625 223.457031 180.59375 C 224.027344 180.421875 224.585938 180.222656 225.132812 179.996094 C 225.683594 179.769531 226.21875 179.515625 226.742188 179.234375 C 227.265625 178.953125 227.777344 178.648438 228.269531 178.320312 C 228.761719 177.988281 229.238281 177.636719 229.699219 177.257812 C 230.160156 176.882812 230.597656 176.484375 231.019531 176.0625 C 231.4375 175.644531 231.835938 175.203125 232.214844 174.746094 C 232.589844 174.285156 232.945312 173.808594 233.273438 173.316406 C 233.605469 172.820312 233.910156 172.3125 234.1875 171.789062 C 234.46875 171.265625 234.722656 170.726562 234.949219 170.179688 C 235.175781 169.628906 235.378906 169.070312 235.550781 168.503906 C 235.722656 167.933594 235.867188 167.359375 235.980469 166.777344 C 236.097656 166.195312 236.183594 165.609375 236.242188 165.015625 C 236.300781 164.425781 236.332031 163.832031 236.332031 163.238281 L 236.332031 39.59375 Z M 123.105469 107.527344 " fill-opacity="1" fill-rule="nonzero"/></g></svg>