<svg xmlns="http://www.w3.org/2000/svg" xmlns:xlink="http://www.w3.org/1999/xlink" width="400" zoomAndPan="magnify" viewBox="0 0 300 299.999988" height="400" preserveAspectRatio="xMidYMid meet" version="1.0"><defs><clipPath id="ec7eccaef6"><path d="M 13.457031 13.457031 L 286.566406 13.457031 L 286.566406 286.566406 L 13.457031 286.566406 Z M 13.457031 13.457031 " clip-rule="nonzero"/></clipPath></defs><g clip-path="url(#ec7eccaef6)"><path fill="#335ad3" d="M 149.996094 38.054688 C 186.445312 38.054688 190.773438 38.191406 205.167969 38.851562 C 220.050781 39.535156 235.375 42.921875 246.21875 53.765625 C 257.160156 64.714844 260.453125 79.890625 261.132812 94.820312 C 261.796875 109.214844 261.933594 113.539062 261.933594 149.996094 C 261.933594 186.445312 261.796875 190.773438 261.132812 205.167969 C 260.464844 219.96875 256.992188 235.441406 246.21875 246.21875 C 235.273438 257.160156 220.101562 260.453125 205.167969 261.132812 C 190.773438 261.796875 186.445312 261.933594 149.996094 261.933594 C 113.539062 261.933594 109.214844 261.796875 94.820312 261.132812 C 80.132812 260.464844 64.453125 256.914062 53.765625 246.21875 C 42.878906 235.328125 39.535156 220.003906 38.851562 205.167969 C 38.191406 190.773438 38.054688 186.445312 38.054688 149.996094 C 38.054688 113.539062 38.191406 109.214844 38.851562 94.820312 C 39.519531 80.074219 43.027344 64.511719 53.765625 53.765625 C 64.691406 42.84375 79.929688 39.535156 94.820312 38.851562 C 109.214844 38.191406 113.539062 38.054688 149.996094 38.054688 M 149.996094 13.457031 C 112.910156 13.457031 108.257812 13.613281 93.695312 14.273438 C 72.585938 15.242188 51.628906 21.113281 36.371094 36.371094 C 21.054688 51.6875 15.242188 72.601562 14.273438 93.695312 C 13.613281 108.257812 13.457031 112.910156 13.457031 149.996094 C 13.457031 187.074219 13.613281 191.730469 14.273438 206.289062 C 15.242188 227.378906 21.136719 248.390625 36.371094 263.613281 C 51.675781 278.917969 72.621094 284.746094 93.695312 285.710938 C 108.257812 286.371094 112.910156 286.53125 149.996094 286.53125 C 187.074219 286.53125 191.730469 286.371094 206.289062 285.710938 C 227.386719 284.746094 248.371094 278.859375 263.613281 263.613281 C 278.941406 248.289062 284.746094 227.386719 285.710938 206.289062 C 286.371094 191.730469 286.53125 187.074219 286.53125 149.996094 C 286.53125 112.910156 286.371094 108.257812 285.710938 93.695312 C 284.746094 72.585938 278.859375 51.617188 263.613281 36.371094 C 248.335938 21.089844 227.332031 15.230469 206.289062 14.273438 C 191.730469 13.613281 187.074219 13.457031 149.996094 13.457031 Z M 149.996094 13.457031 " fill-opacity="1" fill-rule="nonzero"/></g><path fill="#335ad3" d="M 149.996094 79.882812 C 111.273438 79.882812 79.882812 111.273438 79.882812 149.996094 C 79.882812 188.714844 111.273438 220.101562 149.996094 220.101562 C 188.714844 220.101562 220.101562 188.714844 220.101562 149.996094 C 220.101562 111.273438 188.714844 79.882812 149.996094 79.882812 Z M 149.996094 195.503906 C 124.859375 195.503906 104.480469 175.128906 104.480469 149.996094 C 104.480469 124.859375 124.859375 104.480469 149.996094 104.480469 C 175.128906 104.480469 195.503906 124.859375 195.503906 149.996094 C 195.503906 175.128906 175.128906 195.503906 149.996094 195.503906 Z M 149.996094 195.503906 " fill-opacity="1" fill-rule="nonzero"/><path fill="#335ad3" d="M 239.265625 77.105469 C 239.265625 78.179688 239.160156 79.246094 238.953125 80.300781 C 238.742188 81.355469 238.429688 82.382812 238.015625 83.375 C 237.605469 84.371094 237.101562 85.316406 236.503906 86.207031 C 235.90625 87.101562 235.226562 87.929688 234.464844 88.691406 C 233.707031 89.453125 232.878906 90.132812 231.980469 90.730469 C 231.085938 91.324219 230.144531 91.832031 229.148438 92.242188 C 228.15625 92.65625 227.132812 92.964844 226.074219 93.175781 C 225.023438 93.382812 223.957031 93.488281 222.882812 93.488281 C 221.804688 93.488281 220.738281 93.382812 219.683594 93.175781 C 218.628906 92.964844 217.601562 92.65625 216.609375 92.242188 C 215.617188 91.832031 214.671875 91.324219 213.777344 90.730469 C 212.882812 90.132812 212.054688 89.453125 211.292969 88.691406 C 210.535156 87.929688 209.855469 87.101562 209.261719 86.207031 C 208.660156 85.316406 208.152344 84.371094 207.742188 83.375 C 207.335938 82.382812 207.023438 81.355469 206.808594 80.300781 C 206.601562 79.246094 206.5 78.179688 206.5 77.105469 C 206.5 76.027344 206.601562 74.960938 206.808594 73.910156 C 207.023438 72.851562 207.335938 71.832031 207.746094 70.835938 C 208.152344 69.84375 208.660156 68.898438 209.261719 68.003906 C 209.855469 67.105469 210.535156 66.28125 211.292969 65.519531 C 212.054688 64.757812 212.882812 64.078125 213.777344 63.484375 C 214.671875 62.882812 215.617188 62.378906 216.609375 61.96875 C 217.601562 61.558594 218.628906 61.246094 219.683594 61.035156 C 220.738281 60.824219 221.804688 60.722656 222.882812 60.722656 C 223.957031 60.722656 225.023438 60.824219 226.074219 61.035156 C 227.132812 61.246094 228.15625 61.558594 229.148438 61.96875 C 230.144531 62.378906 231.085938 62.882812 231.980469 63.484375 C 232.878906 64.078125 233.707031 64.757812 234.464844 65.519531 C 235.226562 66.28125 235.90625 67.105469 236.503906 68.003906 C 237.101562 68.898438 237.605469 69.84375 238.015625 70.835938 C 238.429688 71.832031 238.742188 72.851562 238.953125 73.910156 C 239.160156 74.960938 239.265625 76.027344 239.265625 77.105469 Z M 239.265625 77.105469 " fill-opacity="1" fill-rule="nonzero"/></svg>