<svg xmlns="http://www.w3.org/2000/svg" xmlns:xlink="http://www.w3.org/1999/xlink" width="167" zoomAndPan="magnify" viewBox="0 0 125.25 141.749996" height="189" preserveAspectRatio="xMidYMid meet" version="1.0"><defs><clipPath id="d3d98905e7"><path d="M 10.164062 0.296875 L 114.539062 0.296875 L 114.539062 113.617188 L 10.164062 113.617188 Z M 10.164062 0.296875 " clip-rule="nonzero"/></clipPath><clipPath id="52d110aa19"><path d="M 0 20 L 124.503906 20 L 124.503906 141 L 0 141 Z M 0 20 " clip-rule="nonzero"/></clipPath><clipPath id="d2feaf996f"><path d="M 0 30.089844 L 115.183594 20.816406 L 124.101562 131.542969 L 8.914062 140.816406 Z M 0 30.089844 " clip-rule="nonzero"/></clipPath><clipPath id="d5007c59de"><path d="M 0 30.089844 L 115.183594 20.816406 L 124.101562 131.542969 L 8.914062 140.816406 Z M 0 30.089844 " clip-rule="nonzero"/></clipPath><clipPath id="e114dda37a"><path d="M 0 30.089844 L 115.183594 20.816406 L 124.101562 131.542969 L 8.914062 140.816406 Z M 0 30.089844 " clip-rule="nonzero"/></clipPath></defs><g clip-path="url(#d3d98905e7)"><path fill="#335ad3" d="M 78.683594 7.246094 L 15.03125 79.628906 C 7.5625 88.121094 8.394531 101.058594 16.886719 108.523438 C 25.378906 115.992188 38.316406 115.160156 45.78125 106.667969 L 109.441406 34.292969 C 116.910156 25.800781 116.078125 12.863281 107.585938 5.398438 C 99.09375 -2.070312 86.152344 -1.238281 78.691406 7.253906 Z M 78.683594 7.246094 " fill-opacity="1" fill-rule="nonzero"/></g><g clip-path="url(#52d110aa19)"><g clip-path="url(#d2feaf996f)"><g clip-path="url(#d5007c59de)"><g clip-path="url(#e114dda37a)"><path stroke-linecap="butt" transform="matrix(0.169141, -0.0136182, 0.0136522, 0.169563, 0.000222209, 30.089723)" fill="none" stroke-linejoin="miter" d="M 635.359075 211.666484 L 205.615487 613.383163 C 158.229748 657.678953 83.954162 655.146149 39.723288 607.708097 C -4.507586 560.270045 -1.944448 485.881705 45.46239 441.610646 L 475.207825 39.871078 C 522.593564 -4.424712 596.867303 -1.869019 641.077078 45.544301 C 685.307952 92.982353 682.76776 167.372536 635.359075 211.666484 Z M 635.359075 211.666484 " stroke="#77e0c5" stroke-width="15" stroke-opacity="1" stroke-miterlimit="4"/></g></g></g></g></svg>