<svg xmlns="http://www.w3.org/2000/svg" xmlns:xlink="http://www.w3.org/1999/xlink" width="167" zoomAndPan="magnify" viewBox="0 0 125.25 121.499994" height="162" preserveAspectRatio="xMidYMid meet" version="1.0"><defs><clipPath id="d2ae3d64fe"><path d="M 0 0.113281 L 124.503906 0.113281 L 124.503906 120.890625 L 0 120.890625 Z M 0 0.113281 " clip-rule="nonzero"/></clipPath><clipPath id="10e75f37a3"><path d="M 0 9.417969 L 115.183594 0.140625 L 124.101562 110.867188 L 8.914062 120.144531 Z M 0 9.417969 " clip-rule="nonzero"/></clipPath><clipPath id="3fb06c5670"><path d="M 0 9.417969 L 115.183594 0.140625 L 124.101562 110.867188 L 8.914062 120.144531 Z M 0 9.417969 " clip-rule="nonzero"/></clipPath><clipPath id="ebdb7a475e"><path d="M 0 9.417969 L 115.183594 0.140625 L 124.101562 110.867188 L 8.914062 120.144531 Z M 0 9.417969 " clip-rule="nonzero"/></clipPath></defs><g clip-path="url(#d2ae3d64fe)"><g clip-path="url(#10e75f37a3)"><g clip-path="url(#3fb06c5670)"><g clip-path="url(#ebdb7a475e)"><path stroke-linecap="butt" transform="matrix(0.169141, -0.0136182, 0.0136522, 0.169563, 0.000222209, 9.417163)" fill="none" stroke-linejoin="miter" d="M 635.358802 211.670525 L 205.615175 613.387235 C 158.229432 657.683029 83.955687 655.127335 39.722963 607.712167 C -4.507915 560.274111 -1.944775 485.885765 45.463914 441.591814 L 475.20754 39.875104 C 522.593284 -4.42069 596.867029 -1.864996 641.076808 45.548328 C 685.307685 92.986384 682.767491 167.376574 635.358802 211.670525 Z M 635.358802 211.670525 " stroke="#77e0c5" stroke-width="15" stroke-opacity="1" stroke-miterlimit="4"/></g></g></g></g></svg>