<svg xmlns="http://www.w3.org/2000/svg" xmlns:xlink="http://www.w3.org/1999/xlink" width="400" zoomAndPan="magnify" viewBox="0 0 300 299.999988" height="400" preserveAspectRatio="xMidYMid meet" version="1.0"><defs><clipPath id="f19bb419fa"><path d="M 13.113281 11 L 288 11 L 288 287 L 13.113281 287 Z M 13.113281 11 " clip-rule="nonzero"/></clipPath></defs><g clip-path="url(#f19bb419fa)"><path fill="#335ad3" d="M 246.710938 245.554688 L 206.085938 245.554688 L 206.085938 181.9375 C 206.085938 166.765625 205.816406 147.242188 184.957031 147.242188 C 163.800781 147.242188 160.558594 163.765625 160.558594 180.84375 L 160.558594 245.554688 L 119.949219 245.554688 L 119.949219 114.726562 L 158.949219 114.726562 L 158.949219 132.597656 L 159.492188 132.597656 C 167.449219 119.007812 182.226562 110.890625 197.964844 111.46875 C 239.144531 111.46875 246.722656 138.558594 246.722656 173.777344 Z M 74.109375 96.839844 C 61.085938 96.839844 50.535156 86.289062 50.535156 73.265625 C 50.535156 60.242188 61.085938 49.691406 74.109375 49.691406 C 87.132812 49.691406 97.683594 60.242188 97.683594 73.265625 C 97.683594 86.289062 87.132812 96.839844 74.109375 96.839844 M 94.414062 245.554688 L 53.75 245.554688 L 53.75 114.726562 L 94.414062 114.726562 Z M 266.960938 11.972656 L 33.335938 11.972656 C 22.296875 11.847656 13.246094 20.699219 13.113281 31.734375 L 13.113281 266.320312 C 13.246094 277.371094 22.296875 286.21875 33.335938 286.097656 L 266.960938 286.097656 C 278.023438 286.234375 287.117188 277.382812 287.265625 266.320312 L 287.265625 31.722656 C 287.105469 20.65625 278.011719 11.808594 266.960938 11.957031 " fill-opacity="1" fill-rule="nonzero"/></g><path fill="#335ad3" d="M 318.472656 250.660156 C 308.152344 250.753906 299.855469 259.214844 299.964844 269.535156 C 300.058594 279.855469 308.515625 288.152344 318.839844 288.042969 C 329.160156 287.949219 337.453125 279.492188 337.347656 269.167969 C 337.25 258.984375 329.011719 250.753906 318.839844 250.660156 L 318.472656 250.660156 M 318.90625 285.894531 C 309.855469 286.042969 301.964844 278.84375 301.816406 269.792969 C 301.667969 260.738281 308.882812 253.28125 317.933594 253.132812 C 326.984375 252.984375 334.441406 260.199219 334.589844 269.25 C 334.589844 269.34375 334.589844 269.425781 334.589844 269.519531 C 334.78125 278.371094 327.753906 285.707031 318.90625 285.894531 L 318.488281 285.894531 " fill-opacity="1" fill-rule="nonzero"/></svg>