<svg xmlns="http://www.w3.org/2000/svg" xmlns:xlink="http://www.w3.org/1999/xlink" width="400" zoomAndPan="magnify" viewBox="0 0 300 299.999988" height="400" preserveAspectRatio="xMidYMid meet" version="1.0"><defs><clipPath id="52e74f1d17"><path d="M 8.304688 8.304688 L 292 8.304688 L 292 292 L 8.304688 292 Z M 8.304688 8.304688 " clip-rule="nonzero"/></clipPath></defs><g clip-path="url(#52e74f1d17)"><path fill="#335ad3" d="M 150 8.304688 C 147.679688 8.304688 145.363281 8.363281 143.042969 8.476562 C 140.730469 8.585938 138.417969 8.761719 136.109375 8.988281 C 133.800781 9.214844 131.503906 9.496094 129.207031 9.839844 C 126.914062 10.179688 124.628906 10.578125 122.355469 11.027344 C 120.078125 11.484375 117.816406 11.988281 115.570312 12.554688 C 113.320312 13.117188 111.082031 13.730469 108.863281 14.40625 C 106.644531 15.078125 104.445312 15.808594 102.265625 16.585938 C 100.082031 17.367188 97.917969 18.203125 95.773438 19.09375 C 93.632812 19.980469 91.511719 20.917969 89.417969 21.910156 C 87.320312 22.902344 85.25 23.941406 83.207031 25.039062 C 81.160156 26.128906 79.140625 27.273438 77.152344 28.464844 C 75.164062 29.65625 73.203125 30.898438 71.277344 32.183594 C 69.347656 33.476562 67.453125 34.808594 65.589844 36.1875 C 63.726562 37.570312 61.902344 38.996094 60.109375 40.46875 C 58.316406 41.9375 56.558594 43.453125 54.84375 45.011719 C 53.125 46.566406 51.445312 48.164062 49.808594 49.808594 C 48.164062 51.445312 46.566406 53.125 45.011719 54.84375 C 43.453125 56.558594 41.9375 58.316406 40.46875 60.109375 C 38.996094 61.902344 37.570312 63.726562 36.1875 65.589844 C 34.808594 67.453125 33.476562 69.347656 32.183594 71.277344 C 30.898438 73.203125 29.65625 75.164062 28.464844 77.152344 C 27.273438 79.140625 26.128906 81.160156 25.039062 83.207031 C 23.941406 85.25 22.902344 87.320312 21.910156 89.417969 C 20.917969 91.511719 19.980469 93.632812 19.09375 95.773438 C 18.203125 97.917969 17.367188 100.082031 16.585938 102.265625 C 15.808594 104.445312 15.078125 106.644531 14.40625 108.863281 C 13.730469 111.082031 13.117188 113.320312 12.554688 115.570312 C 11.988281 117.816406 11.484375 120.078125 11.027344 122.355469 C 10.578125 124.628906 10.179688 126.914062 9.839844 129.207031 C 9.496094 131.503906 9.214844 133.800781 8.988281 136.109375 C 8.761719 138.417969 8.585938 140.730469 8.476562 143.042969 C 8.363281 145.363281 8.304688 147.679688 8.304688 150 C 8.304688 152.316406 8.363281 154.636719 8.476562 156.949219 C 8.585938 159.269531 8.761719 161.578125 8.988281 163.886719 C 9.214844 166.191406 9.496094 168.492188 9.839844 170.785156 C 10.179688 173.082031 10.578125 175.367188 11.027344 177.640625 C 11.484375 179.917969 11.988281 182.175781 12.554688 184.429688 C 13.117188 186.675781 13.730469 188.910156 14.40625 191.128906 C 15.078125 193.347656 15.808594 195.546875 16.585938 197.730469 C 17.367188 199.914062 18.203125 202.078125 19.09375 204.21875 C 19.980469 206.363281 20.917969 208.484375 21.910156 210.582031 C 22.902344 212.671875 23.941406 214.746094 25.039062 216.789062 C 26.128906 218.835938 27.273438 220.851562 28.464844 222.839844 C 29.65625 224.828125 30.898438 226.789062 32.183594 228.714844 C 33.476562 230.644531 34.808594 232.542969 36.1875 234.402344 C 37.570312 236.265625 38.996094 238.09375 40.46875 239.886719 C 41.9375 241.679688 43.453125 243.433594 45.011719 245.152344 C 46.566406 246.871094 48.164062 248.550781 49.808594 250.1875 C 51.445312 251.828125 53.125 253.425781 54.84375 254.984375 C 56.558594 256.542969 58.316406 258.054688 60.109375 259.527344 C 61.902344 260.996094 63.726562 262.425781 65.589844 263.804688 C 67.453125 265.1875 69.347656 266.523438 71.277344 267.808594 C 73.203125 269.101562 75.164062 270.339844 77.152344 271.53125 C 79.140625 272.722656 81.160156 273.867188 83.207031 274.960938 C 85.25 276.050781 87.320312 277.09375 89.417969 278.085938 C 91.511719 279.074219 93.632812 280.015625 95.773438 280.90625 C 97.917969 281.792969 100.082031 282.625 102.265625 283.40625 C 104.445312 284.1875 106.644531 284.917969 108.863281 285.589844 C 111.082031 286.261719 113.320312 286.878906 115.570312 287.445312 C 117.816406 288.007812 120.078125 288.515625 122.355469 288.96875 C 124.628906 289.417969 126.914062 289.8125 129.207031 290.15625 C 131.503906 290.496094 133.800781 290.78125 136.109375 291.007812 C 138.417969 291.234375 140.730469 291.40625 143.042969 291.515625 C 145.363281 291.632812 147.679688 291.691406 150 291.691406 C 152.316406 291.691406 154.636719 291.632812 156.949219 291.515625 C 159.269531 291.40625 161.578125 291.234375 163.886719 291.007812 C 166.191406 290.78125 168.492188 290.496094 170.785156 290.15625 C 173.082031 289.8125 175.367188 289.417969 177.640625 288.96875 C 179.917969 288.515625 182.175781 288.007812 184.429688 287.445312 C 186.675781 286.878906 188.910156 286.261719 191.128906 285.589844 C 193.347656 284.917969 195.546875 284.1875 197.730469 283.410156 C 199.914062 282.625 202.078125 281.792969 204.21875 280.90625 C 206.363281 280.015625 208.484375 279.074219 210.582031 278.085938 C 212.671875 277.09375 214.746094 276.050781 216.789062 274.960938 C 218.835938 273.867188 220.851562 272.722656 222.839844 271.53125 C 224.828125 270.339844 226.789062 269.101562 228.714844 267.808594 C 230.644531 266.523438 232.542969 265.1875 234.402344 263.804688 C 236.265625 262.425781 238.09375 260.996094 239.886719 259.527344 C 241.679688 258.054688 243.433594 256.542969 245.152344 254.984375 C 246.871094 253.425781 248.550781 251.828125 250.1875 250.1875 C 251.828125 248.550781 253.425781 246.871094 254.984375 245.152344 C 256.542969 243.433594 258.054688 241.679688 259.527344 239.886719 C 260.996094 238.09375 262.425781 236.265625 263.804688 234.402344 C 265.1875 232.542969 266.523438 230.644531 267.808594 228.714844 C 269.101562 226.789062 270.339844 224.828125 271.53125 222.839844 C 272.722656 220.851562 273.867188 218.835938 274.960938 216.789062 C 276.050781 214.746094 277.09375 212.671875 278.085938 210.582031 C 279.074219 208.484375 280.015625 206.363281 280.90625 204.21875 C 281.792969 202.078125 282.625 199.914062 283.410156 197.730469 C 284.1875 195.546875 284.917969 193.347656 285.589844 191.128906 C 286.261719 188.910156 286.878906 186.675781 287.445312 184.429688 C 288.007812 182.175781 288.515625 179.917969 288.96875 177.640625 C 289.417969 175.367188 289.8125 173.082031 290.15625 170.785156 C 290.496094 168.492188 290.78125 166.191406 291.007812 163.886719 C 291.234375 161.578125 291.40625 159.269531 291.515625 156.949219 C 291.632812 154.636719 291.691406 152.316406 291.691406 150 C 291.6875 147.679688 291.628906 145.363281 291.511719 143.046875 C 291.394531 140.734375 291.222656 138.417969 290.992188 136.113281 C 290.761719 133.808594 290.476562 131.507812 290.136719 129.214844 C 289.792969 126.921875 289.398438 124.640625 288.941406 122.363281 C 288.488281 120.09375 287.976562 117.832031 287.414062 115.582031 C 286.851562 113.332031 286.230469 111.101562 285.554688 108.882812 C 284.878906 106.667969 284.148438 104.464844 283.371094 102.28125 C 282.585938 100.101562 281.75 97.941406 280.859375 95.800781 C 279.972656 93.660156 279.035156 91.539062 278.042969 89.441406 C 277.050781 87.347656 276.007812 85.277344 274.914062 83.238281 C 273.820312 81.191406 272.675781 79.175781 271.484375 77.1875 C 270.292969 75.199219 269.050781 73.238281 267.765625 71.316406 C 266.472656 69.386719 265.140625 67.492188 263.757812 65.628906 C 262.378906 63.769531 260.953125 61.941406 259.480469 60.152344 C 258.011719 58.359375 256.492188 56.601562 254.9375 54.886719 C 253.382812 53.171875 251.785156 51.488281 250.144531 49.851562 C 248.503906 48.214844 246.824219 46.613281 245.109375 45.058594 C 243.390625 43.5 241.640625 41.984375 239.84375 40.515625 C 238.054688 39.042969 236.226562 37.617188 234.363281 36.234375 C 232.503906 34.855469 230.609375 33.519531 228.679688 32.230469 C 226.753906 30.945312 224.792969 29.703125 222.808594 28.507812 C 220.820312 27.316406 218.804688 26.171875 216.761719 25.082031 C 214.714844 23.988281 212.648438 22.945312 210.550781 21.953125 C 208.457031 20.960938 206.339844 20.019531 204.199219 19.132812 C 202.054688 18.242188 199.894531 17.40625 197.710938 16.625 C 195.53125 15.84375 193.328125 15.113281 191.109375 14.441406 C 188.894531 13.765625 186.660156 13.148438 184.410156 12.582031 C 182.164062 12.015625 179.902344 11.507812 177.628906 11.054688 C 175.359375 10.597656 173.074219 10.199219 170.78125 9.859375 C 168.488281 9.515625 166.1875 9.230469 163.882812 9 C 161.574219 8.773438 159.261719 8.601562 156.949219 8.484375 C 154.628906 8.367188 152.316406 8.304688 150 8.304688 Z M 252.101562 90.957031 L 214.066406 90.957031 C 205.511719 71.132812 194.40625 52.855469 180.757812 36.121094 C 184.472656 37.136719 188.125 38.324219 191.726562 39.6875 C 195.324219 41.058594 198.84375 42.597656 202.296875 44.308594 C 205.738281 46.015625 209.097656 47.890625 212.363281 49.929688 C 215.628906 51.964844 218.789062 54.160156 221.839844 56.503906 C 224.890625 58.847656 227.820312 61.335938 230.628906 63.96875 C 233.433594 66.601562 236.113281 69.359375 238.652344 72.25 C 241.191406 75.144531 243.585938 78.152344 245.828125 81.277344 C 248.078125 84.402344 250.167969 87.628906 252.101562 90.957031 Z M 203.132812 150 C 203.035156 162.089844 201.160156 173.894531 197.511719 185.421875 L 102.480469 185.421875 C 98.832031 173.894531 96.960938 162.089844 96.859375 150 C 96.960938 137.90625 98.832031 126.097656 102.480469 114.578125 L 197.511719 114.578125 C 201.160156 126.097656 203.035156 137.90625 203.132812 150 Z M 111.953125 209.039062 L 188.042969 209.039062 C 177.964844 228.925781 165.285156 246.980469 150 263.210938 C 134.699219 246.984375 122.019531 228.929688 111.953125 209.039062 Z M 111.953125 90.957031 C 122.027344 71.066406 134.710938 53.011719 150 36.785156 C 165.292969 53.007812 177.976562 71.066406 188.042969 90.957031 Z M 119.296875 36.121094 C 105.625 52.851562 94.503906 71.128906 85.925781 90.957031 L 47.898438 90.957031 C 49.828125 87.628906 51.921875 84.402344 54.171875 81.273438 C 56.417969 78.148438 58.8125 75.136719 61.355469 72.246094 C 63.894531 69.351562 66.574219 66.589844 69.386719 63.960938 C 72.199219 61.328125 75.128906 58.839844 78.183594 56.496094 C 81.238281 54.144531 84.398438 51.957031 87.664062 49.921875 C 90.9375 47.882812 94.296875 46.007812 97.746094 44.300781 C 101.195312 42.589844 104.722656 41.050781 108.324219 39.683594 C 111.925781 38.320312 115.582031 37.132812 119.296875 36.121094 Z M 37.363281 114.578125 L 77.972656 114.578125 C 74.898438 126.179688 73.320312 137.988281 73.246094 150 C 73.320312 162.007812 74.898438 173.8125 77.972656 185.421875 L 37.363281 185.421875 C 35.558594 179.691406 34.203125 173.855469 33.289062 167.917969 C 32.378906 161.980469 31.917969 156.003906 31.917969 150 C 31.917969 143.988281 32.378906 138.015625 33.289062 132.078125 C 34.203125 126.136719 35.558594 120.304688 37.363281 114.578125 Z M 47.898438 209.039062 L 85.925781 209.039062 C 94.503906 228.867188 105.625 247.140625 119.296875 263.871094 C 115.582031 262.863281 111.925781 261.675781 108.324219 260.308594 C 104.722656 258.941406 101.195312 257.402344 97.746094 255.695312 C 94.296875 253.984375 90.9375 252.113281 87.664062 250.074219 C 84.398438 248.039062 81.238281 245.847656 78.183594 243.503906 C 75.128906 241.15625 72.199219 238.664062 69.386719 236.035156 C 66.574219 233.40625 63.894531 230.640625 61.355469 227.75 C 58.8125 224.855469 56.417969 221.847656 54.171875 218.722656 C 51.921875 215.59375 49.828125 212.367188 47.898438 209.039062 Z M 180.757812 263.871094 C 194.40625 247.140625 205.511719 228.863281 214.066406 209.039062 L 252.101562 209.039062 C 250.167969 212.367188 248.078125 215.589844 245.828125 218.71875 C 243.585938 221.84375 241.191406 224.851562 238.652344 227.742188 C 236.113281 230.636719 233.433594 233.394531 230.628906 236.027344 C 227.820312 238.65625 224.890625 241.144531 221.839844 243.492188 C 218.789062 245.839844 215.628906 248.03125 212.363281 250.066406 C 209.097656 252.105469 205.738281 253.980469 202.296875 255.6875 C 198.84375 257.398438 195.324219 258.9375 191.726562 260.304688 C 188.125 261.671875 184.472656 262.859375 180.757812 263.871094 Z M 262.628906 185.421875 L 222.023438 185.421875 C 225.097656 173.8125 226.671875 162.007812 226.75 150 C 226.671875 137.988281 225.097656 126.179688 222.023438 114.578125 L 262.609375 114.578125 C 264.410156 120.304688 265.769531 126.136719 266.683594 132.078125 C 267.597656 138.015625 268.050781 143.988281 268.050781 150 C 268.050781 156.003906 267.597656 161.980469 266.683594 167.917969 C 265.769531 173.855469 264.410156 179.691406 262.609375 185.421875 Z M 262.628906 185.421875 " fill-opacity="1" fill-rule="nonzero"/></g></svg>