<svg xmlns="http://www.w3.org/2000/svg" xmlns:xlink="http://www.w3.org/1999/xlink" width="400" zoomAndPan="magnify" viewBox="0 0 300 149.999998" height="200" preserveAspectRatio="xMidYMid meet" version="1.0"><defs><clipPath id="015b61d949"><path d="M 13.5 49.734375 L 73.714844 49.734375 L 73.714844 118.054688 L 13.5 118.054688 Z M 13.5 49.734375 " clip-rule="nonzero"/></clipPath><clipPath id="9b66cab57f"><path d="M 48.738281 49.144531 L 90.230469 49.144531 L 90.230469 117.878906 L 48.738281 117.878906 Z M 48.738281 49.144531 " clip-rule="nonzero"/></clipPath></defs><path fill="#ffffff" d="M 34.269531 73.101562 L 25.667969 73.101562 C 25.390625 73.144531 25.105469 73.078125 24.875 72.910156 C 24.648438 72.742188 24.492188 72.492188 24.449219 72.210938 C 23.625 69.667969 22.769531 67.128906 21.886719 64.617188 C 21.550781 63.667969 21.886719 63.394531 22.738281 63.484375 C 23.59375 63.578125 24.082031 63.484375 24.722656 63.484375 L 39.972656 63.484375 C 45.160156 63.484375 50.378906 63.484375 55.5625 63.484375 C 56.101562 63.480469 56.636719 63.617188 57.105469 63.886719 C 57.574219 64.15625 57.964844 64.546875 58.234375 65.015625 C 58.503906 65.488281 58.648438 66.023438 58.644531 66.566406 C 58.640625 67.109375 58.492188 67.640625 58.214844 68.109375 C 55.5625 72.546875 52.605469 76.804688 49.554688 81.429688 C 48.515625 78.796875 47.601562 76.5625 46.714844 74.324219 C 46.503906 73.804688 46.410156 73.222656 45.800781 72.976562 Z M 34.269531 73.101562 " fill-opacity="1" fill-rule="nonzero"/><g clip-path="url(#015b61d949)"><path fill="#ffffff" d="M 16.519531 58.613281 C 16.578125 58.886719 16.734375 59.125 16.960938 59.285156 C 17.1875 59.441406 17.464844 59.507812 17.738281 59.472656 L 59.984375 59.472656 C 63.035156 59.472656 64.042969 60.667969 64.074219 63.636719 C 64.074219 65.230469 64.074219 66.699219 64.074219 68.445312 C 64.164062 69.679688 63.796875 70.902344 63.035156 71.875 C 61.386719 74.109375 59.984375 76.4375 58.277344 78.703125 C 54.527344 83.695312 51.078125 88.871094 47.507812 94.015625 C 45.953125 96.191406 44.460938 98.332031 42.871094 100.507812 C 38.816406 106.261719 34.757812 111.992188 30.671875 117.746094 L 30.425781 118.054688 L 42.203125 118.054688 C 44.335938 114.683594 46.53125 111.347656 48.699219 107.976562 C 52.328125 102.804688 55.777344 97.566406 59.132812 92.207031 C 59.132812 92.207031 59.375 92.023438 59.4375 91.902344 C 63.910156 85.144531 68.382812 78.378906 72.859375 71.597656 C 73.214844 71.085938 73.40625 70.476562 73.40625 69.855469 C 73.40625 64.066406 73.40625 58.246094 73.40625 52.460938 C 72.75 51.261719 71.65625 50.359375 70.355469 49.949219 L 14.414062 49.949219 C 13.621094 49.949219 13.40625 50.195312 13.679688 50.957031 C 14.808594 53.289062 15.632812 55.859375 16.519531 58.613281 Z M 16.519531 58.613281 " fill-opacity="1" fill-rule="nonzero"/></g><g clip-path="url(#9b66cab57f)"><path fill="#ffffff" d="M 90.09375 53.347656 C 89.917969 52.394531 89.453125 51.515625 88.757812 50.839844 C 88.0625 50.164062 87.175781 49.726562 86.21875 49.582031 C 84.308594 49 82.273438 49 80.363281 49.582031 L 80.363281 54.757812 C 80.363281 58.585938 80.363281 62.414062 80.363281 66.242188 C 80.5 67.46875 80.390625 68.710938 80.039062 69.894531 C 79.6875 71.078125 79.101562 72.179688 78.320312 73.128906 C 77.667969 73.992188 77.085938 74.902344 76.582031 75.855469 C 75.554688 77.203125 74.640625 78.625 73.832031 80.113281 C 70.265625 85.132812 66.910156 90.25 63.675781 95.421875 C 63.367188 95.757812 63.082031 96.117188 62.824219 96.496094 C 58.144531 103.539062 53.488281 110.601562 48.851562 117.6875 L 59.984375 117.6875 C 61.449219 115.390625 63.035156 113.0625 64.347656 110.734375 C 65.660156 108.40625 67.703125 105.621094 69.351562 103.046875 C 72.125 98.640625 74.839844 94.226562 77.617188 89.851562 C 81.683594 83.4375 85.75 77.050781 89.816406 70.679688 C 90.054688 70.273438 90.171875 69.804688 90.15625 69.332031 Z M 90.09375 53.347656 " fill-opacity="1" fill-rule="nonzero"/></g><path fill="#ffffff" d="M 123.53125 84.660156 L 111.84375 84.660156 L 109.96875 90.214844 L 101.988281 90.214844 L 113.320312 58.769531 L 122.152344 58.769531 L 133.476562 90.214844 L 125.40625 90.214844 Z M 121.566406 78.742188 L 117.691406 67.234375 L 113.851562 78.742188 Z M 121.566406 78.742188 " fill-opacity="1" fill-rule="nonzero"/><path fill="#ffffff" d="M 156.855469 68.710938 C 156.289062 67.664062 155.480469 66.867188 154.421875 66.3125 C 153.367188 65.761719 152.128906 65.484375 150.699219 65.484375 C 148.230469 65.484375 146.25 66.296875 144.761719 67.925781 C 143.277344 69.554688 142.539062 71.726562 142.539062 74.445312 C 142.539062 77.34375 143.316406 79.605469 144.878906 81.230469 C 146.441406 82.863281 148.589844 83.675781 151.324219 83.675781 C 153.199219 83.675781 154.78125 83.199219 156.074219 82.246094 C 157.363281 81.289062 158.308594 79.910156 158.902344 78.117188 L 149.222656 78.117188 L 149.222656 72.472656 L 165.816406 72.472656 L 165.816406 79.597656 C 165.253906 81.511719 164.296875 83.289062 162.941406 84.929688 C 161.589844 86.570312 159.871094 87.898438 157.792969 88.914062 C 155.710938 89.929688 153.359375 90.433594 150.738281 90.433594 C 147.648438 90.433594 144.890625 89.757812 142.464844 88.398438 C 140.042969 87.039062 138.152344 85.152344 136.800781 82.734375 C 135.445312 80.3125 134.769531 77.550781 134.769531 74.445312 C 134.769531 71.339844 135.445312 68.570312 136.800781 66.136719 C 138.152344 63.703125 140.03125 61.804688 142.441406 60.445312 C 144.851562 59.089844 147.605469 58.410156 150.699219 58.410156 C 154.449219 58.410156 157.605469 59.320312 160.179688 61.140625 C 162.75 62.960938 164.453125 65.484375 165.285156 68.710938 Z M 156.855469 68.710938 " fill-opacity="1" fill-rule="nonzero"/><path fill="#ffffff" d="M 176.839844 84.300781 L 186.832031 84.300781 L 186.832031 90.214844 L 169.207031 90.214844 L 169.207031 58.769531 L 176.839844 58.769531 Z M 176.839844 84.300781 " fill-opacity="1" fill-rule="nonzero"/><path fill="#ffffff" d="M 209.132812 84.660156 L 197.445312 84.660156 L 195.570312 90.214844 L 187.589844 90.214844 L 198.921875 58.769531 L 207.753906 58.769531 L 219.082031 90.214844 L 211.007812 90.214844 Z M 207.171875 78.742188 L 203.292969 67.234375 L 199.457031 78.742188 Z M 207.171875 78.742188 " fill-opacity="1" fill-rule="nonzero"/><path fill="#ffffff" d="M 248.527344 58.769531 L 237.683594 79.820312 L 237.683594 90.214844 L 230.058594 90.214844 L 230.058594 79.820312 L 219.214844 58.769531 L 227.867188 58.769531 L 233.9375 71.9375 L 239.960938 58.769531 Z M 248.527344 58.769531 " fill-opacity="1" fill-rule="nonzero"/><path fill="#ffffff" d="M 270.246094 84.660156 L 258.558594 84.660156 L 256.683594 90.214844 L 248.703125 90.214844 L 260.035156 58.769531 L 268.867188 58.769531 L 280.191406 90.214844 L 272.121094 90.214844 Z M 268.28125 78.742188 L 264.40625 67.234375 L 260.566406 78.742188 Z M 268.28125 78.742188 " fill-opacity="1" fill-rule="nonzero"/><path fill="#ffffff" d="M 102.617188 95.878906 L 104.445312 95.878906 L 104.445312 109.9375 L 102.617188 109.9375 Z M 102.617188 95.878906 " fill-opacity="1" fill-rule="nonzero"/><path fill="#ffffff" d="M 113.359375 98.679688 C 114.699219 98.679688 115.78125 99.089844 116.609375 99.902344 C 117.4375 100.71875 117.851562 101.890625 117.851562 103.421875 L 117.851562 109.9375 L 116.050781 109.9375 L 116.050781 103.683594 C 116.050781 102.585938 115.773438 101.742188 115.226562 101.15625 C 114.671875 100.570312 113.925781 100.273438 112.972656 100.273438 C 112.011719 100.273438 111.246094 100.578125 110.679688 101.183594 C 110.109375 101.789062 109.824219 102.671875 109.824219 103.828125 L 109.824219 109.9375 L 107.996094 109.9375 L 107.996094 98.882812 L 109.824219 98.882812 L 109.824219 100.457031 C 110.183594 99.894531 110.675781 99.457031 111.296875 99.144531 C 111.921875 98.835938 112.605469 98.679688 113.359375 98.679688 Z M 113.359375 98.679688 " fill-opacity="1" fill-rule="nonzero"/><path fill="#ffffff" d="M 126.652344 98.679688 C 127.992188 98.679688 129.074219 99.089844 129.902344 99.902344 C 130.730469 100.71875 131.144531 101.890625 131.144531 103.421875 L 131.144531 109.9375 L 129.34375 109.9375 L 129.34375 103.683594 C 129.34375 102.585938 129.066406 101.742188 128.515625 101.15625 C 127.964844 100.570312 127.214844 100.273438 126.265625 100.273438 C 125.304688 100.273438 124.539062 100.578125 123.96875 101.183594 C 123.402344 101.789062 123.117188 102.671875 123.117188 103.828125 L 123.117188 109.9375 L 121.289062 109.9375 L 121.289062 98.882812 L 123.117188 98.882812 L 123.117188 100.457031 C 123.476562 99.894531 123.96875 99.457031 124.589844 99.144531 C 125.214844 98.835938 125.898438 98.679688 126.652344 98.679688 Z M 126.652344 98.679688 " fill-opacity="1" fill-rule="nonzero"/><path fill="#ffffff" d="M 139.378906 110.117188 C 138.347656 110.117188 137.414062 109.882812 136.578125 109.414062 C 135.742188 108.941406 135.085938 108.273438 134.609375 107.40625 C 134.136719 106.539062 133.898438 105.53125 133.898438 104.390625 C 133.898438 103.261719 134.140625 102.265625 134.628906 101.398438 C 135.117188 100.53125 135.78125 99.867188 136.625 99.40625 C 137.472656 98.941406 138.414062 98.707031 139.460938 98.707031 C 140.503906 98.707031 141.449219 98.941406 142.292969 99.40625 C 143.136719 99.867188 143.800781 100.53125 144.289062 101.390625 C 144.777344 102.25 145.023438 103.25 145.023438 104.390625 C 145.023438 105.53125 144.769531 106.539062 144.269531 107.40625 C 143.765625 108.273438 143.085938 108.941406 142.226562 109.414062 C 141.371094 109.882812 140.421875 110.117188 139.378906 110.117188 Z M 139.378906 108.503906 C 140.035156 108.503906 140.652344 108.351562 141.222656 108.042969 C 141.800781 107.734375 142.265625 107.269531 142.621094 106.648438 C 142.976562 106.03125 143.15625 105.277344 143.15625 104.390625 C 143.15625 103.5 142.980469 102.75 142.628906 102.128906 C 142.28125 101.511719 141.824219 101.050781 141.261719 100.75 C 140.703125 100.449219 140.097656 100.292969 139.441406 100.292969 C 138.769531 100.292969 138.15625 100.449219 137.601562 100.75 C 137.046875 101.050781 136.601562 101.511719 136.269531 102.128906 C 135.933594 102.75 135.765625 103.5 135.765625 104.390625 C 135.765625 105.292969 135.929688 106.050781 136.253906 106.667969 C 136.582031 107.289062 137.023438 107.75 137.570312 108.054688 C 138.117188 108.355469 138.722656 108.503906 139.378906 108.503906 Z M 139.378906 108.503906 " fill-opacity="1" fill-rule="nonzero"/><path fill="#ffffff" d="M 151.96875 108.242188 L 155.382812 98.882812 L 157.332031 98.882812 L 153.015625 109.9375 L 150.886719 109.9375 L 146.566406 98.882812 L 148.539062 98.882812 Z M 151.96875 108.242188 " fill-opacity="1" fill-rule="nonzero"/><path fill="#ffffff" d="M 158.898438 104.371094 C 158.898438 103.242188 159.125 102.253906 159.582031 101.398438 C 160.039062 100.546875 160.660156 99.882812 161.457031 99.414062 C 162.253906 98.941406 163.140625 98.707031 164.117188 98.707031 C 165.082031 98.707031 165.917969 98.917969 166.625 99.335938 C 167.335938 99.75 167.867188 100.273438 168.214844 100.902344 L 168.214844 98.882812 L 170.0625 98.882812 L 170.0625 109.9375 L 168.214844 109.9375 L 168.214844 107.878906 C 167.851562 108.523438 167.3125 109.058594 166.59375 109.484375 C 165.878906 109.90625 165.046875 110.117188 164.097656 110.117188 C 163.121094 110.117188 162.238281 109.878906 161.449219 109.394531 C 160.660156 108.910156 160.039062 108.230469 159.582031 107.355469 C 159.125 106.480469 158.898438 105.484375 158.898438 104.371094 Z M 168.214844 104.390625 C 168.214844 103.558594 168.046875 102.832031 167.714844 102.214844 C 167.378906 101.597656 166.925781 101.121094 166.355469 100.792969 C 165.785156 100.460938 165.160156 100.292969 164.480469 100.292969 C 163.792969 100.292969 163.167969 100.457031 162.605469 100.785156 C 162.046875 101.109375 161.601562 101.578125 161.265625 102.195312 C 160.933594 102.8125 160.765625 103.539062 160.765625 104.371094 C 160.765625 105.214844 160.933594 105.953125 161.265625 106.578125 C 161.601562 107.207031 162.046875 107.6875 162.605469 108.015625 C 163.167969 108.34375 163.792969 108.503906 164.480469 108.503906 C 165.160156 108.503906 165.785156 108.34375 166.355469 108.015625 C 166.925781 107.6875 167.378906 107.207031 167.714844 106.578125 C 168.046875 105.953125 168.214844 105.222656 168.214844 104.390625 Z M 168.214844 104.390625 " fill-opacity="1" fill-rule="nonzero"/><path fill="#ffffff" d="M 175.820312 100.398438 L 175.820312 106.910156 C 175.820312 107.445312 175.933594 107.824219 176.160156 108.046875 C 176.390625 108.269531 176.785156 108.382812 177.351562 108.382812 L 178.695312 108.382812 L 178.695312 109.9375 L 177.050781 109.9375 C 176.03125 109.9375 175.265625 109.699219 174.753906 109.230469 C 174.246094 108.761719 173.992188 107.988281 173.992188 106.910156 L 173.992188 100.398438 L 172.570312 100.398438 L 172.570312 98.882812 L 173.992188 98.882812 L 173.992188 96.101562 L 175.820312 96.101562 L 175.820312 98.882812 L 178.695312 98.882812 L 178.695312 100.398438 Z M 175.820312 100.398438 " fill-opacity="1" fill-rule="nonzero"/><path fill="#ffffff" d="M 182.292969 97.09375 C 181.941406 97.09375 181.648438 96.972656 181.40625 96.726562 C 181.164062 96.484375 181.042969 96.1875 181.042969 95.839844 C 181.042969 95.492188 181.164062 95.199219 181.40625 94.957031 C 181.648438 94.714844 181.941406 94.59375 182.292969 94.59375 C 182.625 94.59375 182.910156 94.714844 183.144531 94.957031 C 183.378906 95.199219 183.496094 95.492188 183.496094 95.839844 C 183.496094 96.1875 183.378906 96.484375 183.144531 96.726562 C 182.910156 96.972656 182.625 97.09375 182.292969 97.09375 Z M 183.175781 98.882812 L 183.175781 109.9375 L 181.347656 109.9375 L 181.347656 98.882812 Z M 183.175781 98.882812 " fill-opacity="1" fill-rule="nonzero"/><path fill="#ffffff" d="M 191.523438 110.117188 C 190.496094 110.117188 189.5625 109.882812 188.726562 109.414062 C 187.890625 108.941406 187.230469 108.273438 186.753906 107.40625 C 186.28125 106.539062 186.046875 105.53125 186.046875 104.390625 C 186.046875 103.261719 186.289062 102.265625 186.773438 101.398438 C 187.265625 100.53125 187.929688 99.867188 188.773438 99.40625 C 189.617188 98.941406 190.5625 98.707031 191.609375 98.707031 C 192.652344 98.707031 193.59375 98.941406 194.4375 99.40625 C 195.285156 99.867188 195.949219 100.53125 196.433594 101.390625 C 196.925781 102.25 197.167969 103.25 197.167969 104.390625 C 197.167969 105.53125 196.917969 106.539062 196.414062 107.40625 C 195.910156 108.273438 195.230469 108.941406 194.371094 109.414062 C 193.515625 109.882812 192.566406 110.117188 191.523438 110.117188 Z M 191.523438 108.503906 C 192.183594 108.503906 192.796875 108.351562 193.371094 108.042969 C 193.945312 107.734375 194.414062 107.269531 194.769531 106.648438 C 195.125 106.03125 195.304688 105.277344 195.304688 104.390625 C 195.304688 103.5 195.128906 102.75 194.777344 102.128906 C 194.429688 101.511719 193.972656 101.050781 193.410156 100.75 C 192.851562 100.449219 192.242188 100.292969 191.589844 100.292969 C 190.914062 100.292969 190.300781 100.449219 189.746094 100.75 C 189.191406 101.050781 188.746094 101.511719 188.414062 102.128906 C 188.078125 102.75 187.914062 103.5 187.914062 104.390625 C 187.914062 105.292969 188.074219 106.050781 188.402344 106.667969 C 188.730469 107.289062 189.167969 107.75 189.714844 108.054688 C 190.265625 108.355469 190.867188 108.503906 191.523438 108.503906 Z M 191.523438 108.503906 " fill-opacity="1" fill-rule="nonzero"/><path fill="#ffffff" d="M 205.382812 98.679688 C 206.722656 98.679688 207.804688 99.089844 208.632812 99.902344 C 209.460938 100.71875 209.875 101.890625 209.875 103.421875 L 209.875 109.9375 L 208.074219 109.9375 L 208.074219 103.683594 C 208.074219 102.585938 207.796875 101.742188 207.25 101.15625 C 206.699219 100.570312 205.949219 100.273438 204.996094 100.273438 C 204.035156 100.273438 203.269531 100.578125 202.703125 101.183594 C 202.132812 101.789062 201.851562 102.671875 201.851562 103.828125 L 201.851562 109.9375 L 200.023438 109.9375 L 200.023438 98.882812 L 201.851562 98.882812 L 201.851562 100.457031 C 202.210938 99.894531 202.699219 99.457031 203.320312 99.144531 C 203.945312 98.835938 204.628906 98.679688 205.382812 98.679688 Z M 205.382812 98.679688 " fill-opacity="1" fill-rule="nonzero"/></svg>