<svg xmlns="http://www.w3.org/2000/svg" xmlns:xlink="http://www.w3.org/1999/xlink" width="40" zoomAndPan="magnify" viewBox="0 0 30 30.000001" height="40" preserveAspectRatio="xMidYMid meet" version="1.0"><defs><clipPath id="9b3d191737"><path d="M 18 6 L 28.066406 6 L 28.066406 23 L 18 23 Z M 18 6 " clip-rule="nonzero"/></clipPath><clipPath id="ce764d88bc"><path d="M 2 5.8125 L 28 5.8125 L 28 17 L 2 17 Z M 2 5.8125 " clip-rule="nonzero"/></clipPath><clipPath id="1768b9f187"><path d="M 1.933594 6 L 12 6 L 12 23 L 1.933594 23 Z M 1.933594 6 " clip-rule="nonzero"/></clipPath><clipPath id="8aa02ba7d3"><path d="M 2 14 L 28 14 L 28 23.230469 L 2 23.230469 Z M 2 14 " clip-rule="nonzero"/></clipPath></defs><g clip-path="url(#9b3d191737)"><path fill="#ffffff" d="M 18.558594 14.484375 L 27.855469 6.433594 C 27.988281 6.628906 28.066406 6.867188 28.066406 7.121094 L 28.066406 21.851562 C 28.066406 22.105469 27.988281 22.339844 27.855469 22.535156 Z M 18.558594 14.484375 " fill-opacity="1" fill-rule="nonzero"/></g><g clip-path="url(#ce764d88bc)"><path fill="#ffffff" d="M 26.828125 5.882812 C 27.03125 5.882812 27.214844 5.9375 27.382812 6.019531 L 16.023438 15.855469 C 15.441406 16.363281 14.558594 16.363281 13.976562 15.855469 L 2.617188 6.019531 C 2.785156 5.9375 2.96875 5.882812 3.171875 5.882812 Z M 26.828125 5.882812 " fill-opacity="1" fill-rule="nonzero"/></g><g clip-path="url(#1768b9f187)"><path fill="#ffffff" d="M 2.144531 22.535156 C 2.011719 22.339844 1.933594 22.105469 1.933594 21.851562 L 1.933594 7.121094 C 1.933594 6.867188 2.011719 6.628906 2.144531 6.433594 L 11.441406 14.484375 Z M 2.144531 22.535156 " fill-opacity="1" fill-rule="nonzero"/></g><g clip-path="url(#8aa02ba7d3)"><path fill="#ffffff" d="M 3.171875 23.085938 C 2.96875 23.085938 2.785156 23.035156 2.617188 22.949219 L 11.914062 14.894531 L 13.566406 16.328125 C 13.976562 16.679688 14.488281 16.859375 15 16.859375 C 15.511719 16.859375 16.023438 16.679688 16.429688 16.328125 L 18.082031 14.894531 L 27.382812 22.949219 C 27.214844 23.035156 27.027344 23.085938 26.828125 23.085938 Z M 3.171875 23.085938 " fill-opacity="1" fill-rule="nonzero"/></g></svg>