<svg xmlns="http://www.w3.org/2000/svg" xmlns:xlink="http://www.w3.org/1999/xlink" width="40" zoomAndPan="magnify" viewBox="0 0 30 30.000001" height="40" preserveAspectRatio="xMidYMid meet" version="1.0"><defs><clipPath id="335adbee35"><path d="M 6.953125 1.425781 L 22.921875 1.425781 L 22.921875 27.554688 L 6.953125 27.554688 Z M 6.953125 1.425781 " clip-rule="nonzero"/></clipPath></defs><g clip-path="url(#335adbee35)"><path fill="#ffffff" d="M 15.027344 27.601562 C 14.433594 24.683594 13.382812 22.257812 12.117188 20.007812 C 11.175781 18.339844 10.085938 16.796875 9.074219 15.179688 C 8.738281 14.640625 8.449219 14.070312 8.125 13.507812 C 7.476562 12.386719 6.953125 11.089844 6.988281 9.402344 C 7.019531 7.757812 7.496094 6.433594 8.183594 5.355469 C 9.3125 3.578125 11.203125 2.121094 13.742188 1.738281 C 15.820312 1.425781 17.765625 1.953125 19.148438 2.761719 C 20.273438 3.421875 21.148438 4.300781 21.8125 5.339844 C 22.503906 6.425781 22.984375 7.703125 23.023438 9.375 C 23.042969 10.230469 22.902344 11.023438 22.707031 11.679688 C 22.507812 12.34375 22.183594 12.902344 21.898438 13.496094 C 21.339844 14.65625 20.640625 15.71875 19.9375 16.78125 C 17.847656 19.945312 15.886719 23.175781 15.027344 27.601562 Z M 15.027344 27.601562 " fill-opacity="1" fill-rule="evenodd"/></g><path fill="#2a2a2a" d="M 17.816406 9.386719 C 17.816406 9.757812 17.742188 10.117188 17.601562 10.460938 C 17.457031 10.804688 17.253906 11.109375 16.992188 11.371094 C 16.726562 11.636719 16.425781 11.839844 16.082031 11.980469 C 15.734375 12.125 15.378906 12.195312 15.003906 12.195312 C 14.632812 12.195312 14.273438 12.125 13.929688 11.980469 C 13.585938 11.839844 13.28125 11.636719 13.019531 11.371094 C 12.753906 11.109375 12.550781 10.804688 12.410156 10.460938 C 12.265625 10.117188 12.195312 9.757812 12.195312 9.386719 C 12.195312 9.011719 12.265625 8.652344 12.410156 8.308594 C 12.550781 7.964844 12.753906 7.660156 13.019531 7.398438 C 13.28125 7.136719 13.585938 6.933594 13.929688 6.789062 C 14.273438 6.648438 14.632812 6.574219 15.003906 6.574219 C 15.378906 6.574219 15.734375 6.648438 16.082031 6.789062 C 16.425781 6.933594 16.726562 7.136719 16.992188 7.398438 C 17.253906 7.660156 17.457031 7.964844 17.601562 8.308594 C 17.742188 8.652344 17.816406 9.011719 17.816406 9.386719 Z M 17.816406 9.386719 " fill-opacity="1" fill-rule="nonzero"/></svg>